<?xml version="1.0" encoding="UTF-8"?>
<svg width="500px" height="184px" viewBox="0 0 500 184" version="1.1" xmlns="http://www.w3.org/2000/svg" xmlns:xlink="http://www.w3.org/1999/xlink">
    <title>B2BNN-Logo-Tagline-01</title>
    <g id="Page-1" stroke="none" stroke-width="1" fill="none" fill-rule="evenodd">
        <g id="B2BNN-Logo-Tagline-01" fill-rule="nonzero">
            <g id="Group" transform="translate(250.000000, 91.712732) scale(-1, 1) rotate(-180.000000) translate(-250.000000, -91.712732) translate(0.000000, 0.000000)">
                <path d="M88.683693,183.032391 C78.2631556,180.987607 72.1681243,175.796999 70.7918269,167.775152 C69.5334978,160.53976 73.7410356,154.208792 80.7404909,152.871817 C84.6334464,152.164007 87.8185918,153.304368 89.4308259,156.01764 C90.1779588,157.315291 90.1779588,157.354614 89.4701487,157.86581 C89.0769208,158.180393 88.329788,158.416329 87.8972374,158.416329 C86.3243261,158.416329 84.3975097,160.107209 83.1785034,162.545222 C80.3865859,168.089734 82.7459528,174.971221 88.2904652,177.527202 C93.0878447,179.7686 99.3794899,177.802461 101.699534,173.319664 C102.603958,171.550139 103.429737,167.263955 103.429737,164.275424 C103.469059,154.012178 96.6268951,144.102836 78.3418012,127.862527 C69.2582384,119.762034 69.6121434,120.155262 69.6121434,118.621673 C69.6121434,115.987047 68.3144916,116.144338 92.6946169,116.262306 C113.221109,116.340952 114.794021,116.419597 114.990635,117.048762 C115.541154,118.700319 117.743229,132.463293 117.743229,134.232818 L117.782552,136.198957 L116.366932,136.316925 C114.754698,136.434894 114.440116,136.159634 113.457046,133.446362 C112.395331,130.575799 110.665129,128.255755 108.934926,127.351331 C107.637274,126.682844 106.260977,126.525553 100.79511,126.289616 C94.0315915,126.053679 86.3636488,126.407584 86.7175539,126.958103 C86.7961995,127.115394 89.0375981,128.766951 91.6329017,130.654445 C100.283914,136.906767 107.519306,143.512995 111.294293,148.585634 C113.535692,151.574165 116.248964,157.118677 116.799483,159.83195 C117.074742,161.090279 117.19271,163.803551 117.114065,165.887658 C116.996097,169.190772 116.799483,170.01655 115.698445,172.257949 C112.473977,178.824854 104.884679,182.993069 95.3685661,183.386296 C92.9305536,183.504265 90.4138955,183.346974 88.683693,183.032391 Z" id="Path" fill="#000000"></path>
                <path d="M463.036584,183.15036 C452.851984,181.656094 446.835598,176.190227 445.577269,167.342601 C444.790813,161.562152 446.44237,157.000709 451.003813,152.517912 C454.621509,148.978861 457.8853,147.052045 466.025116,143.709609 C474.479514,140.249204 477.350077,138.715615 479.237571,136.67083 C481.085742,134.665369 481.557615,133.053134 481.20371,130.02528 C480.535223,124.3628 475.030033,120.627135 467.36209,120.587812 C457.216812,120.509167 450.649908,125.306546 447.700699,135.019274 C446.874921,137.732546 446.835598,137.771868 445.419978,137.889837 C443.689775,138.047128 443.768421,138.754938 444.358262,128.255755 C444.987427,117.16673 445.105395,116.340952 445.931174,116.340952 C446.835598,116.340952 447.307471,116.970116 447.936636,119.014901 C448.251218,120.115939 448.644446,120.666458 449.076996,120.666458 C449.430901,120.666458 451.082458,119.880002 452.773338,118.936256 C457.216812,116.419597 460.795186,115.554496 466.92954,115.554496 C477.350077,115.554496 485.253956,119.172192 489.618785,125.857065 C493.511741,131.912774 493.118513,139.34478 488.55707,145.439811 C485.214634,149.843963 479.316216,153.422336 467.991255,157.826488 C459.02566,161.286892 456.312388,163.213709 455.368642,166.713436 C454.228281,170.960297 456.587648,175.24648 461.070445,177.133974 C469.288907,180.555056 478.215178,176.465487 482.304748,167.342601 C483.130526,165.455107 484.03495,163.882196 484.270887,163.764228 C484.506824,163.685582 485.214634,163.685582 485.843798,163.803551 L486.944836,164.039487 L486.669577,171.353525 C486.315672,181.144898 486.197703,182.009999 485.057343,182.009999 C484.192241,182.009999 483.916982,181.577448 483.130526,179.178759 C482.815944,178.156366 482.147457,178.274335 478.529761,180.201151 C473.457122,182.8751 468.0699,183.936815 463.036584,183.15036 Z" id="Path" fill="#418ABA"></path>
                <path d="M2.52747614,182.44255 C2.17357109,182.049322 2.40950779,179.729278 2.88138118,179.375373 C3.11731788,179.139436 3.9824191,178.864176 4.72955197,178.706885 C7.04959615,178.313657 8.58318467,177.133974 9.05505807,175.364449 C9.33031754,174.302734 9.44828589,165.730367 9.36964033,148.664279 C9.25167198,125.463837 9.2123492,123.497698 8.54386189,122.514629 C7.52146954,120.902395 6.22381771,120.233907 3.66783684,119.997971 C0.875919266,119.722711 0.404045873,119.368806 0.404045873,117.638604 L0.404045873,116.301629 L22.3461586,116.419597 C43.5411385,116.576889 44.3669169,116.576889 47.3554484,117.44199 C54.2369354,119.368806 59.545511,123.025825 61.6296185,127.272685 C62.6520109,129.31747 62.7306564,129.907312 62.7306564,133.878913 C62.7306564,138.086451 62.6913337,138.283065 61.2757135,141.153628 C58.5231187,146.776786 53.8830303,149.961931 46.8049295,151.180937 C44.7601448,151.534842 43.0299423,151.849425 42.9512967,151.92807 C42.8726512,152.006716 43.5018157,152.281975 44.3275941,152.517912 C49.4395559,154.208792 53.9616759,157.511905 55.7705239,160.97231 C56.6749479,162.66319 56.832239,163.410323 56.832239,166.4775 C56.832239,169.505354 56.6749479,170.331132 55.7705239,172.257949 C54.3942265,175.207158 52.0741823,177.369911 48.2205496,179.257404 C44.0916574,181.302189 41.0638032,181.931353 32.6094049,182.403227 C26.1997913,182.796455 2.92070397,182.796455 2.52747614,182.44255 Z M36.7382971,176.308195 C40.7885437,174.81393 43.0299423,170.99962 43.0299423,165.49443 C43.0299423,162.112671 42.3221322,160.225177 40.2380247,157.983779 C37.9966261,155.585089 35.5979364,154.602019 30.2893607,153.815564 C25.7279179,153.186399 23.6044877,153.304368 22.7787092,154.366083 C22.0708991,155.191861 22.2281903,176.504809 22.9753231,177.016006 C23.2112598,177.173297 25.9638546,177.251942 29.1096772,177.173297 C33.2778922,177.055328 35.3226769,176.819392 36.7382971,176.308195 Z M32.8453416,148.192406 C37.4461072,147.641887 39.8841197,146.934077 42.2434867,145.400488 C47.7093535,141.743469 49.9114293,133.83959 47.0408661,127.941173 C44.7994675,123.419053 41.1424487,121.649528 34.0250251,121.649528 C27.4581204,121.649528 24.1156838,123.222439 22.8573548,126.91878 C22.3854814,128.373723 22.2281903,147.838501 22.7000637,148.310374 C23.0932915,148.703602 28.8344178,148.624956 32.8453416,148.192406 Z" id="Shape" fill="#000000"></path>
                <path d="M127.534602,182.206613 C127.180697,181.931353 127.102052,181.420157 127.259343,180.555056 C127.49528,179.454018 127.731216,179.218081 129.146836,178.864176 C132.0174,178.117043 132.961146,177.605847 133.629634,176.347518 C134.258798,175.24648 134.298121,172.887113 134.298121,149.568703 C134.298121,125.857065 134.258798,123.930249 133.590311,122.750565 C132.685887,121.099009 130.955684,120.194585 128.006476,119.919325 L125.647109,119.683388 L125.52914,117.992509 L125.411172,116.301629 L147.353285,116.419597 C168.430296,116.576889 169.413366,116.616211 172.362575,117.44199 C176.098239,118.464382 181.05291,121.020363 183.412277,123.065148 C188.091688,127.19404 189.232048,135.097919 186.125549,141.507533 C184.670606,144.496064 181.288846,147.759855 178.103701,149.293444 C176.688081,149.961931 173.896163,150.827032 171.930024,151.22026 L168.351651,151.888747 L172.205283,153.736918 C179.047448,157.040032 181.878688,160.932987 181.878688,166.870728 C181.878688,169.584 181.721397,170.370455 180.699005,172.336594 C179.244062,175.207158 176.491467,177.723816 172.873771,179.414695 C169.020138,181.262866 165.52041,181.931353 157.616531,182.403227 C149.358747,182.914423 128.321058,182.757132 127.534602,182.206613 Z M159.346734,176.858714 C165.048537,175.639708 167.9191,171.982689 167.9191,165.887658 C167.9191,160.932987 165.559733,157.000709 161.627455,155.309829 C159.700639,154.484051 153.291025,153.304368 150.695721,153.304368 C149.319424,153.304368 147.864481,153.894209 147.392608,154.641342 C146.920734,155.349152 146.99938,175.639708 147.471253,176.544132 C147.864481,177.212619 148.336354,177.291265 152.583215,177.291265 C155.139196,177.291265 158.206373,177.094651 159.346734,176.858714 Z M157.734499,148.192406 C163.161043,147.563241 165.952961,146.540849 168.508942,144.181482 C173.463613,139.698685 174.682619,133.328394 171.694087,127.62659 C170.31779,124.952641 168.037068,123.065148 165.048537,122.160724 C162.807138,121.492236 154.785291,121.492236 152.858474,122.200046 C150.892335,122.868534 148.690259,124.834673 147.903804,126.564875 C147.117348,128.413046 146.72412,147.091368 147.471253,147.995792 C148.061095,148.703602 152.583215,148.782248 157.734499,148.192406 Z" id="Shape" fill="#000000"></path>
                <path d="M374.992874,182.206613 C374.049127,181.734739 373.695222,180.240474 374.363709,179.493341 C374.599646,179.178759 375.543393,178.824854 376.48714,178.706885 C379.003798,178.313657 381.559779,176.544132 382.582171,174.460025 C384.194405,171.078265 384.508987,172.13998 372.39757,139.226811 C371.257209,136.159634 370.116849,133.682299 369.920235,133.760945 C369.684298,133.83959 368.937165,135.569793 368.229355,137.614577 C367.560868,139.659362 364.454368,148.467665 361.387191,157.236646 C355.488774,174.10612 354.938255,176.426164 356.471843,177.527202 C357.297622,178.156366 359.10647,178.706885 361.465837,179.06079 C362.606197,179.257404 362.999425,179.493341 363.196039,180.240474 C363.746558,182.481872 364.375722,182.403227 347.073698,182.403227 C331.501876,182.403227 331.147971,182.403227 330.912034,181.616771 C330.440161,180.201151 331.030003,179.296727 332.602914,179.06079 C337.596907,178.274335 339.523724,176.740746 341.961736,171.589462 C342.905483,169.662645 347.702863,156.882741 352.696856,143.198412 C357.651527,129.514084 362.016356,117.795895 362.370261,117.16673 C363.038748,115.829756 363.982495,115.475851 367.128317,115.397205 C368.740551,115.357882 369.448361,115.515173 369.802267,116.02637 C370.038203,116.380275 373.970481,126.48623 378.492601,138.519001 C383.014721,150.551773 386.789709,160.382468 386.947,160.382468 C387.064968,160.382468 390.48605,150.315836 394.536297,138.007805 L401.889657,115.672465 L404.602929,115.397205 C407.670106,115.121946 409.046404,115.475851 409.911505,116.812825 C410.226087,117.324021 415.023467,130.182571 420.567979,145.361165 C426.112491,160.579082 431.067162,173.712892 431.578358,174.499347 C432.87601,176.622778 434.645535,177.959752 436.965579,178.667562 C438.10594,178.982145 439.206978,179.257404 439.52156,179.257404 C440.111402,179.257404 440.622598,180.948284 440.268693,181.813385 C440.072079,182.324581 438.499168,182.403227 428.157276,182.324581 L416.242473,182.206613 L416.242473,180.830315 C416.242473,179.493341 416.242473,179.493341 418.759131,178.982145 C423.241928,178.077721 423.949738,177.016006 423.202605,172.572531 C422.770055,170.055873 410.147442,133.249748 409.714891,133.249748 C409.518277,133.249748 408.259948,137.182027 401.024556,160.382468 C398.232638,169.30874 397.092278,174.10612 397.367537,175.600385 C397.642797,177.133974 399.09774,178.35298 401.063879,178.667562 C403.698505,179.100113 404.249024,179.493341 404.249024,181.026929 L404.249024,182.403227 L390.014177,182.481872 C380.851968,182.560518 375.50407,182.44255 374.992874,182.206613 Z" id="Path" fill="#418ABA"></path>
                <path d="M189.939858,181.026929 C189.939858,179.493341 190.451055,179.100113 192.967713,178.667562 C195.602339,178.235012 197.096605,177.016006 198.001029,174.53867 C198.748162,172.454563 198.787485,171.392848 198.787485,149.568703 C198.787485,125.149255 198.669516,123.694312 196.821345,121.68885 C195.877599,120.666458 194.147396,120.076616 191.040896,119.683388 C189.074757,119.447452 188.445593,118.700319 188.956789,117.127407 C189.192726,116.340952 189.467985,116.340952 201.658048,116.419597 L214.12337,116.537566 L214.12337,117.913863 L214.12337,119.290161 L211.567389,119.801357 C208.61818,120.351876 207.320528,121.177654 206.376782,123.065148 C205.708294,124.284154 205.668972,126.250293 205.668972,146.737463 C205.668972,160.303823 205.826263,169.033481 206.022877,169.033481 C206.376782,169.033481 236.262096,126.761489 240.626925,120.076616 C243.615457,115.515173 243.890716,115.357882 249.31726,115.318559 C252.581051,115.279237 254.075317,115.397205 254.704482,115.790433 L255.569583,116.340952 L255.687551,145.164552 C255.805519,173.044404 255.844842,173.988151 256.591975,175.482417 C257.693013,177.684493 258.912019,178.431626 262.293779,178.982145 L265.242987,179.493341 L265.242987,180.830315 L265.242987,182.206613 L252.659697,182.206613 L240.076406,182.206613 L240.076406,180.830315 C240.076406,179.493341 240.076406,179.493341 242.514419,178.982145 C246.014147,178.274335 247.115184,177.605847 247.980286,175.639708 C248.688096,174.066797 248.727419,172.454563 248.845387,153.61895 C248.963355,137.024736 248.88471,133.249748 248.452159,133.249748 C248.1769,133.289071 240.862862,143.473672 232.21185,155.938994 C223.560838,168.404316 215.814249,179.454018 214.988471,180.47641 L213.533528,182.403227 L201.736693,182.403227 L189.939858,182.403227 L189.939858,181.026929 Z" id="Path" fill="#418ABA"></path>
                <path d="M271.613278,182.127967 C271.455987,182.009999 271.338019,181.380834 271.338019,180.75167 C271.338019,179.532664 271.731246,179.296727 275.073683,178.510271 C276.174721,178.235012 277.472373,177.605847 278.022892,177.055328 L279.005961,176.111582 L279.005961,149.608026 C279.005961,123.261762 279.005961,123.065148 278.180183,121.96411 C277.275759,120.745104 275.624202,120.037293 272.832284,119.683388 C270.7875,119.408129 269.922398,118.503705 270.354949,117.127407 C270.590886,116.340952 271.141405,116.340952 299.453808,116.340952 C320.452174,116.340952 328.395376,116.45892 328.59199,116.773502 C328.86725,117.206053 329.889642,130.497154 329.928965,133.957558 L329.928965,135.609115 L328.395376,135.609115 L326.822465,135.609115 L326.1933,133.367717 C324.541744,127.351331 321.435244,123.458376 317.306352,122.082078 C313.767301,120.941717 307.279042,120.469844 302.481663,120.98104 C296.93715,121.610205 294.381169,122.789888 293.044195,125.424515 C292.179093,127.19404 292.139771,127.665913 292.021802,137.024736 C291.98248,142.411957 292.100448,147.248659 292.257739,147.759855 L292.611644,148.703602 L297.369701,148.428343 C300.04365,148.271051 302.953536,147.956469 303.897283,147.720532 C306.453264,147.091368 308.10482,145.243197 309.127213,141.900761 C310.031637,138.912229 310.582156,138.243742 311.91913,138.440356 L312.823554,138.558324 L312.823554,150.945001 L312.823554,163.331677 L311.801162,163.449646 C310.50351,163.606937 310.07096,163.056418 309.559763,160.225177 C308.694662,155.860348 306.728523,154.130146 301.616561,153.34369 C297.998865,152.753849 292.69029,152.793171 292.297062,153.422336 C292.139771,153.658273 292.061125,159.124139 292.100448,165.49443 C292.218416,175.639708 292.297062,177.173297 292.886904,177.605847 C293.319454,177.92043 295.482207,178.077721 300.397555,178.077721 C308.340757,178.077721 313.963915,177.566524 316.087345,176.701423 C318.83994,175.52174 320.924048,172.769145 322.103731,168.640253 C322.811541,166.20224 323.165446,165.848335 324.77768,165.966304 L326.1933,166.084272 L326.036009,173.555601 C325.957364,177.684493 325.721427,181.341512 325.524813,181.734739 C325.210231,182.363904 323.519351,182.403227 298.510061,182.403227 C283.842664,182.403227 271.731246,182.285258 271.613278,182.127967 Z" id="Path" fill="#418ABA"></path>
                <path d="M327.372984,101.398294 C310.542833,98.9996047 298.470739,86.0230864 298.470739,70.3332961 C298.470739,48.9417023 320.96337,34.1956588 343.062774,41.1164685 C353.483312,44.3409367 361.269223,51.8122654 364.375722,61.48567 C365.712697,65.5752394 366.066602,71.984853 365.201501,76.1137451 C362.64552,88.1071939 353.168729,97.6626301 340.860698,100.611839 C337.085711,101.516263 330.794066,101.909491 327.372984,101.398294 Z M335.5128,96.4829466 C338.265395,96.1290415 342.630224,93.7696746 345.068236,91.331662 C347.427603,89.0116179 349.983584,84.2535612 350.966654,80.3606057 C353.208052,71.7489163 352.107014,59.9914042 348.528641,53.8177274 C345.028913,47.8799872 339.012528,44.3802595 332.209686,44.3802595 C326.429237,44.3802595 322.418313,46.0318164 318.761295,49.8854491 C313.806624,55.0760564 310.77877,65.4179483 311.801162,73.8330238 C312.666263,80.7931563 315.851409,88.1465167 319.587073,91.8428582 C322.968832,95.1852948 328.59199,97.308725 332.68156,96.8368516 C333.232079,96.7582061 334.490408,96.6009149 335.5128,96.4829466 Z" id="Shape" fill="#418ABA"></path>
                <path d="M1.42643822,100.49387 C0.993887614,100.179288 0.757950918,99.6287692 0.875919266,99.0389275 C0.954564831,98.2917946 1.42643822,98.0165351 3.35325458,97.4660161 C4.6509064,97.1121111 6.18449493,96.5222694 6.73501389,96.1683643 C8.85844415,94.7527441 8.85844415,94.7920669 8.85844415,70.1366822 C8.85844415,48.9810251 8.81912137,47.2114999 8.15063406,46.2284303 C7.1675645,44.6948418 5.98788102,44.0656773 3.15664066,43.4758355 C0.443368656,42.9253166 -0.500378129,42.1388609 0.246754743,40.9198546 C0.63998257,40.3300129 1.7016977,40.2513673 11.7290073,40.133399 C22.464127,40.0547534 22.7787092,40.0547534 23.2112598,40.8412091 C23.9190699,42.1781837 23.0932915,43.0826077 20.8518929,43.3971899 C18.3745576,43.751095 16.5263868,44.9701013 15.8972223,46.7396265 C15.1894122,48.7450884 15.1107666,88.4217761 15.8578995,88.3824533 C16.3297729,88.3824533 29.2276456,70.2939733 40.198702,54.250278 C48.0239357,42.846671 48.9283597,41.6669875 51.4843406,40.3693357 C53.1752202,39.4649117 54.0796443,39.2682978 56.3210429,39.2682978 C58.641087,39.2682978 60.1353528,39.6222028 60.9611312,40.3300129 C61.0790996,40.4479812 61.2363907,52.5593983 61.354359,67.3054418 C61.550973,92.3540544 61.5902957,94.2022252 62.2587831,95.1852948 C63.1632071,96.4829466 64.9327323,97.3480478 67.5280359,97.7019528 C68.6683966,97.8199212 69.8087573,98.1738262 70.044694,98.4884085 C70.6345358,99.2355414 70.0840168,100.572516 69.0616245,100.847775 C68.5897511,100.965744 63.5171121,101.005067 57.8153086,100.926421 C48.4958091,100.808453 47.434094,100.729807 47.0408661,100.139965 C46.3330561,98.9602819 47.2374801,98.1345035 49.8327837,97.5839845 C52.8213152,96.9154972 54.0796443,95.7358137 54.6301632,93.1011873 C55.2986505,90.1126558 55.2200049,55.6658981 54.5908404,55.8625121 C54.3155809,55.9804804 47.3161256,65.7718533 39.0190185,77.6473337 C30.7612341,89.522814 23.5258421,99.6287692 22.9753231,100.139965 C21.9922536,101.005067 21.7956397,101.005067 12.0435896,101.005067 C4.49361527,101.005067 1.97695718,100.887098 1.42643822,100.49387 Z" id="Path" fill="#418ABA"></path>
                <path d="M76.2183709,100.572516 C75.3925925,100.100643 75.3139469,98.9209591 76.021757,98.3311174 C76.2970165,98.0951807 77.3587316,97.7019528 78.4204467,97.4660161 C80.8584593,96.9154972 82.0381427,96.1290415 82.5493389,94.6347758 C82.8245984,93.8089974 82.9818895,85.8657953 82.9818895,70.6478784 C82.9818895,45.9531708 82.9818895,45.9531708 80.8191365,44.5375506 C80.2686175,44.1836456 78.8136746,43.6724494 77.5946683,43.4365127 C75.1566558,42.9253166 74.2522318,42.0995381 74.9600419,40.9198546 C75.3532697,40.2906901 77.1227949,40.2513673 101.345629,40.133399 C124.074197,40.0547534 127.377311,40.133399 127.809862,40.6445952 C128.085121,40.9985002 128.439026,43.2398988 128.63564,46.0711392 C128.832254,48.7057656 129.068191,52.5200755 129.225482,54.5255374 L129.500741,58.1432335 L128.085121,58.1432335 C126.669501,58.1432335 126.630178,58.1039107 126.001014,55.9018348 C123.956229,48.7844112 120.731761,45.7958797 114.007565,44.7341646 C110.311224,44.1443228 102.328699,44.4982279 99.6154266,45.3240063 C97.2953824,46.0711392 95.3292433,47.9979555 94.9753383,49.9640947 C94.8573699,50.6719047 94.7787243,55.4299614 94.8573699,60.5026004 L94.9753383,69.7434544 L98.9076165,69.625486 C107.126078,69.3895493 108.974249,68.367157 110.507837,63.3338408 C111.294293,60.6992143 111.451584,60.5026004 112.473977,60.5026004 C113.063818,60.5026004 113.65366,60.7385371 113.732306,61.0137966 C113.810951,61.2497333 113.889597,66.2437267 113.850274,72.0634985 C113.810951,81.6189347 113.771628,82.6806499 113.142464,83.0738777 C112.080749,83.742365 111.215648,82.9165866 110.704451,80.7145107 C109.446122,75.2879667 107.519306,74.1082832 99.6940722,74.0689604 L94.9753383,74.0689604 L94.8573699,84.9220485 C94.7787243,94.6740986 94.8180471,95.8537821 95.4078889,96.3256555 C96.3123129,97.0727883 103.272445,97.2694022 109.800027,96.7188833 C117.585938,96.1290415 119.080204,95.1066492 121.675508,88.9329723 C122.933837,85.9837636 123.012482,85.8657953 124.349457,85.7478269 C125.253881,85.6691813 125.8044,85.8264725 125.883045,86.1410547 C125.961691,86.4163142 125.961691,89.6407824 125.843723,93.2584784 C125.686432,99.2355414 125.568463,99.9433515 124.899976,100.454548 C124.231489,100.926421 120.259888,101.005067 100.519851,101.005067 C85.1839654,100.965744 76.6509215,100.847775 76.2183709,100.572516 Z" id="Path" fill="#418ABA"></path>
                <path d="M134.57338,100.690484 C134.258798,100.454548 133.983539,98.0558579 133.747602,92.5506683 C133.550988,88.264485 133.472343,84.4894979 133.590311,84.2142384 C133.708279,83.9389789 134.298121,83.7030422 134.927285,83.7030422 C136.146292,83.7030422 136.224937,83.8603333 136.618165,87.3993838 C136.97207,90.3485925 138.505659,93.2978012 140.353829,94.6347758 C142.752519,96.404301 145.3085,96.8761744 151.718114,96.8368516 C156.948044,96.8368516 157.380594,96.7582061 158.16705,95.9717504 L159.032151,95.1066492 L158.914183,71.8275618 C158.835537,50.3966453 158.756892,48.3911833 158.088404,46.8969176 C157.262626,45.009424 155.76836,44.2622912 151.403531,43.5544811 C149.004842,43.1612532 148.611614,42.9646393 148.415,42.1388609 C147.864481,40.0547534 147.825158,40.0547534 164.773278,40.0547534 C181.603429,40.0547534 181.524783,40.0547534 181.210201,42.0995381 C181.092232,42.8859938 180.738327,43.0432849 178.064378,43.4365127 C174.486005,43.9870317 172.755802,44.8914557 171.654765,46.7396265 C170.907632,48.0766011 170.868309,48.7844112 170.750341,71.5129796 C170.671695,90.2306241 170.750341,95.0673264 171.143568,95.6178454 C172.165961,96.9941428 179.794581,97.5053389 184.631283,96.4829466 C189.703922,95.4212314 191.788029,93.1011873 193.007036,87.1634471 L193.675523,83.8996561 L195.05182,83.8996561 L196.428118,83.8996561 L196.349472,88.4217761 C196.270826,90.8991114 196.152858,93.7696746 196.034884,94.7920669 C195.641662,98.1345035 197.843738,98.763668 201.69737,96.404301 C203.230959,95.4605542 203.781478,94.7134214 205.393712,91.5675987 C206.416104,89.522814 211.134838,77.1361375 215.892895,64.0416509 C220.965534,50.1607086 224.819167,40.0154306 225.251717,39.7401712 C226.038173,39.1110066 230.599616,39.2682978 231.22878,39.8974623 C231.425394,40.0940762 234.885799,48.9417023 238.8574,59.5588536 C247.351121,82.1694537 246.564666,80.1639918 246.997216,80.1639918 C247.508412,80.1639918 247.272476,80.7538335 254.035994,60.030727 C257.299785,50.082063 260.209671,41.4310508 260.524253,40.8018863 C261.192741,39.5435572 262.765652,39.0716838 265.242987,39.4255889 C268.192196,39.8974623 266.776576,36.5943485 281.443974,76.8215552 C284.35386,84.8434029 287.224423,92.2360861 287.774942,93.2978012 C288.993948,95.499877 291.392638,97.2694022 293.791328,97.6626301 C294.695752,97.8199212 295.482207,98.213149 295.718144,98.6456996 C296.22934,99.5894464 296.22934,99.668092 295.482207,100.375902 C294.971011,100.926421 293.476745,101.005067 285.06167,101.005067 C279.005961,101.005067 274.916392,100.847775 274.444518,100.611839 C273.500772,100.100643 273.461449,98.3704402 274.405196,98.1345035 C274.759101,98.0165351 275.978107,97.7019528 277.118468,97.4660161 C280.382259,96.7188833 281.011423,95.4212314 280.146322,91.2923393 C279.477835,87.9499027 268.074228,55.3513159 267.759645,55.7052209 C267.523709,55.9411576 259.737798,81.2257069 257.417754,89.3655229 C256.827912,91.2530165 256.395361,93.337124 256.395361,93.9269657 C256.395361,95.6571681 257.693013,96.9154972 260.013057,97.4660161 C261.153418,97.7412756 262.333101,98.1345035 262.608361,98.3704402 C263.316171,98.9209591 263.198203,100.139965 262.333101,100.611839 C261.821905,100.847775 256.94588,101.005067 249.120646,101.005067 C236.45871,101.005067 235.161059,100.847775 235.161059,99.5108008 C235.161059,98.3311174 235.790223,97.8199212 237.559748,97.4266934 C241.492027,96.5615921 244.126653,93.2978012 243.694102,89.7980735 C243.576134,88.4217761 232.329818,56.8849044 231.739976,56.2164171 C231.661331,56.0984488 231.425394,56.2164171 231.22878,56.413031 C230.678261,56.96355 218.64549,91.9215038 218.37023,93.7303518 C218.094971,96.0110732 218.999395,96.95482 221.987926,97.5053389 C223.285578,97.7805984 224.58323,98.0165351 224.858489,98.0951807 C225.5663,98.2917946 225.448331,100.49387 224.701198,100.76913 C223.757452,101.123035 135.163222,101.044389 134.57338,100.690484 Z" id="Path" fill="#418ABA"></path>
                <path d="M373.577254,100.611839 C373.341317,100.454548 373.184026,99.8253831 373.262671,99.1962186 C373.38064,98.1738262 373.577254,98.0558579 375.936621,97.4660161 C379.475671,96.6402377 380.104836,95.6571681 380.458741,90.2699469 C380.891291,83.4277827 380.498063,48.3518606 379.908222,46.6216581 C379.31838,44.7734873 378.060051,43.9477089 375.032197,43.3971899 C372.436893,42.9253166 371.493146,42.1388609 372.240279,40.9198546 C372.633507,40.2906901 373.891836,40.2513673 387.615487,40.133399 C403.855796,40.0547534 403.855796,40.0547534 403.305277,42.1388609 C403.108663,43.0039621 402.833404,43.1219305 400.041486,43.3185444 C396.148531,43.5544811 393.828487,44.4982279 392.924063,46.110462 C392.334221,47.1721771 392.255575,48.823734 392.137607,57.6713601 C392.019639,67.9346063 392.019639,67.9739291 392.845417,67.9739291 C395.165461,67.9739291 395.794626,67.3054418 408.102657,52.2054933 C413.332587,45.7958797 417.854707,40.4479812 418.208612,40.2906901 C418.562517,40.1727218 428.825763,40.0547534 441.015826,40.0547534 C460.401958,40.0547534 463.193875,40.133399 463.626426,40.6445952 C464.491527,41.6669875 463.54778,43.0432849 461.778255,43.3578672 C457.17749,44.1836456 456.862907,44.8128101 456.509002,54.1716324 C456.391034,58.1432335 456.391034,61.9968662 456.587648,62.6653535 C457.020199,64.1596192 459.458211,66.7942456 460.401958,66.7942456 C461.031122,66.7942456 473.57509,51.8122654 476.327685,47.8013416 C478.175856,45.0880696 477.625337,44.1443228 473.928995,43.3971899 C471.726919,42.9646393 471.687596,42.9253166 471.687596,41.5883419 L471.687596,40.2513673 L485.843798,40.2513673 L500,40.2513673 L500,41.6276647 C500,42.9253166 499.921354,43.0039621 498.033861,43.4365127 C493.826323,44.3802595 494.101583,44.105 479.552153,61.8002522 C470.665204,72.6533403 468.699065,75.2486439 468.895679,75.956454 C469.249584,77.2934286 487.927906,96.050396 489.697431,96.8368516 C490.483887,97.1907567 491.899507,97.6233073 492.843254,97.7805984 C494.298197,98.0558579 494.49481,98.213149 494.612779,99.1962186 C494.691424,99.8253831 494.534133,100.454548 494.219551,100.651162 C493.590386,101.044389 476.052425,101.044389 474.636805,100.651162 C473.889672,100.454548 473.653736,100.139965 473.653736,99.2355414 C473.653736,98.1738262 473.811027,98.0558579 475.030033,97.9378895 C478.215178,97.7019528 479.473507,96.4436238 478.490438,94.5561302 C478.215178,94.0449341 473.221185,88.4610989 467.36209,82.2087765 L456.744939,70.8444923 L456.626971,81.8155486 C456.587648,88.6577128 456.705616,93.4157695 456.941553,94.3595163 C457.452749,96.2470099 458.475141,96.9154972 461.502996,97.5053389 C462.761325,97.7805984 464.058977,98.1345035 464.334236,98.3704402 C465.042046,98.9209591 464.924078,100.139965 464.058977,100.611839 C463.11523,101.083712 438.892396,101.162358 438.145263,100.651162 C437.830681,100.49387 437.673389,99.8647059 437.752035,99.2355414 C437.870003,98.2524718 438.10594,98.0558579 440.308016,97.4660161 C443.257225,96.6402377 443.847066,96.2470099 444.358262,94.3595163 C444.948104,92.3147316 445.262686,64.5921698 444.869459,54.8007969 C444.436908,45.5206202 444.240294,44.8128101 441.684313,43.9083861 C440.858535,43.6331266 438.538491,43.3971899 436.493706,43.3971899 C430.320029,43.3971899 430.280706,43.3971899 414.315657,61.8002522 C411.366448,65.2213343 408.967758,68.2098658 409.046404,68.4458025 C409.125049,68.6817392 410.619315,69.3109037 412.310195,69.9007455 C416.20315,71.2377201 418.129966,72.4174036 420.489333,75.0127072 C423.084637,77.9225932 424.028384,80.6358652 424.067707,85.2759535 C424.067707,88.3824533 423.910415,89.3655229 423.163283,91.0564026 C421.983599,93.7303518 419.113036,96.3649782 415.613308,98.0558579 C410.776606,100.375902 409.046404,100.572516 390.604019,100.729807 C381.481133,100.808453 373.81319,100.76913 373.577254,100.611839 Z M405.703967,95.499877 C410.108119,93.6123834 412.428163,89.3655229 411.995612,84.0569473 C411.327125,76.1137451 406.529746,72.7713086 395.71598,72.6926631 C391.744379,72.6926631 392.058962,71.6309479 392.058962,84.5288206 C392.058962,94.8707125 392.098284,95.8931048 392.766772,96.2863327 C393.199322,96.5615921 395.244107,96.6402377 398.547221,96.5615921 C402.754758,96.404301 404.013087,96.2470099 405.703967,95.499877 Z" id="Shape" fill="#418ABA"></path>
                <path d="M167.48655,24.5222543 C166.267543,23.8537669 165.559733,22.1235645 165.559733,19.9608115 C165.559733,18.5845141 165.441765,18.4272229 164.576664,18.4272229 C163.947499,18.4272229 163.593594,18.1912862 163.593594,17.8373812 C163.593594,17.4834762 163.947499,17.2475395 164.576664,17.2475395 L165.559733,17.2475395 L165.559733,12.0176094 C165.559733,6.63038813 165.363119,5.84393247 163.908176,5.84393247 C163.514948,5.84393247 163.200366,5.68664134 163.200366,5.45070465 C163.200366,5.21476795 164.694632,5.05747682 166.936031,5.05747682 C169.177429,5.05747682 170.671695,5.21476795 170.671695,5.45070465 C170.671695,5.68664134 170.278467,5.84393247 169.767271,5.84393247 C168.115714,5.84393247 167.9191,6.473097 167.9191,12.0176094 L167.9191,17.2475395 L169.688625,17.2475395 C170.986277,17.2475395 171.458151,17.4048306 171.458151,17.8373812 C171.458151,18.2699318 170.986277,18.4272229 169.688625,18.4272229 L167.9191,18.4272229 L167.9191,20.3540393 C167.9191,23.0279885 168.469619,24.3256403 169.60998,24.3256403 C170.828986,24.3256403 171.458151,23.6178303 171.458151,22.2808556 C171.458151,21.4550772 171.654765,21.1798177 172.244606,21.1798177 C172.913094,21.1798177 173.031062,21.4550772 173.031062,22.7134062 C173.031062,24.0897036 172.913094,24.2863176 171.812056,24.6795454 C170.160499,25.2693871 168.744879,25.1907416 167.48655,24.5222543 Z" id="Path" fill="#000000"></path>
                <path d="M44.8387903,24.3649631 C44.8387903,24.1683492 45.3893093,23.9324125 46.0184738,23.8144442 L47.1981573,23.5785075 L47.1981573,14.2983308 L47.1981573,5.05747682 L48.1812268,5.05747682 C48.7317458,5.05747682 49.2822648,5.29341352 49.4002331,5.60799578 C49.5575242,6.04054639 49.8721065,6.0012236 51.05179,5.41138186 C55.3379733,3.20930603 59.3882199,6.35512865 59.3882199,11.899641 C59.3488971,15.2027548 58.287182,17.4834762 56.3603656,18.2699318 C54.3549037,19.135033 52.4674102,18.7418052 50.8551761,17.1688939 L49.5575242,15.9105648 L49.5575242,20.3147165 L49.5575242,24.7188682 L47.1981573,24.7188682 C45.9005055,24.7188682 44.8387903,24.561577 44.8387903,24.3649631 Z M54.8660999,17.0116028 C57.382758,16.0285332 57.382758,7.06293874 54.8660999,6.07986917 C53.6470936,5.64731856 52.1135051,5.84393247 50.8158533,6.63038813 L49.5182015,7.41684378 L49.6361698,11.4277676 L49.7541382,15.4386915 L51.0911128,16.3431155 C52.4280874,17.2475395 53.6470936,17.4441534 54.8660999,17.0116028 Z" id="Shape" fill="#000000"></path>
                <path d="M189.153403,24.3649631 C189.153403,24.1683492 189.625276,23.9324125 190.254441,23.8537669 C191.316156,23.7357986 191.316156,23.6964758 191.434124,20.7079443 C191.51277,19.0170647 191.473447,17.6407673 191.394801,17.6407673 C191.276833,17.6407673 190.5297,17.9160268 189.703922,18.2699318 C186.951327,19.4102925 184.238055,18.3879002 182.861758,15.6746281 C181.996656,13.9444257 181.76072,9.81553352 182.507853,7.92803996 C183.766182,4.54628064 187.462523,3.68117942 190.333086,6.11919195 L191.51277,7.10226152 L191.51277,6.07986917 C191.51277,5.0967996 191.591415,5.05747682 194.068751,5.05747682 C196.585409,5.05747682 197.647124,5.68664134 195.563016,5.92257804 L194.461978,6.04054639 L194.34401,15.3993687 L194.265365,24.7188682 L191.709384,24.7188682 C190.293764,24.7188682 189.153403,24.561577 189.153403,24.3649631 Z M190.333086,17.0509255 L191.51277,16.421761 L191.51277,12.1355777 L191.51277,7.81007161 L190.254441,7.02361595 C187.344555,5.25409073 185.103156,6.59106534 184.631283,10.2874069 C183.88415,16.067856 186.440131,19.0563875 190.333086,17.0509255 Z" id="Shape" fill="#000000"></path>
                <path d="M302.009789,24.3649631 C302.009789,24.1683492 302.481663,23.9324125 303.110827,23.8537669 C304.172542,23.7357986 304.172542,23.6964758 304.290511,20.7079443 C304.369156,19.0170647 304.329833,17.6407673 304.251188,17.6407673 C304.133219,17.6407673 303.386087,17.9160268 302.560308,18.2699318 C299.807713,19.4102925 297.094441,18.3879002 295.718144,15.6746281 C294.853043,13.9444257 294.617106,9.81553352 295.364239,7.92803996 C296.622568,4.54628064 300.318909,3.68117942 303.189473,6.11919195 L304.369156,7.10226152 L304.369156,6.07986917 C304.369156,5.0967996 304.447802,5.05747682 306.925137,5.05747682 C309.441795,5.05747682 310.50351,5.68664134 308.419403,5.92257804 L307.318365,6.04054639 L307.200396,15.3993687 L307.121751,24.7188682 L304.56577,24.7188682 C303.15015,24.7188682 302.009789,24.561577 302.009789,24.3649631 Z M303.189473,17.0509255 L304.369156,16.421761 L304.369156,12.1355777 L304.369156,7.81007161 L303.110827,7.02361595 C300.200941,5.25409073 297.959543,6.59106534 297.487669,10.2874069 C296.740536,16.067856 299.296517,19.0563875 303.189473,17.0509255 Z" id="Shape" fill="#000000"></path>
                <path d="M441.605668,24.3649631 C441.605668,24.1683492 442.156187,23.9324125 442.785351,23.8144442 L443.965035,23.5785075 L443.965035,14.8881725 L443.965035,6.2371603 L442.785351,6.0012236 C440.543953,5.52935021 441.64499,5.05747682 444.948104,5.05747682 C446.914243,5.05747682 448.290541,5.21476795 448.290541,5.45070465 C448.290541,5.68664134 448.015281,5.84393247 447.700699,5.84393247 C447.386117,5.84393247 446.953566,6.19783752 446.717629,6.59106534 C446.245756,7.53481213 446.206433,11.7423499 446.678307,11.7423499 C446.874921,11.7423499 448.290541,10.2480841 449.863452,8.39991335 L452.694692,5.05747682 L454.621509,5.05747682 C456.626971,5.05747682 457.216812,5.60799578 455.604578,6.0012236 C455.093382,6.11919195 453.402503,7.73142604 451.790268,9.61891961 L448.919705,13.0400017 L451.357718,15.3207231 C452.694692,16.6183749 454.149635,17.6407673 454.582186,17.6407673 C455.014737,17.6407673 455.368642,17.8373812 455.368642,18.0339951 C455.368642,18.2699318 454.267604,18.4272229 452.812661,18.4272229 C451.357718,18.4272229 450.25668,18.2699318 450.25668,18.0339951 C450.25668,17.8373812 450.728553,17.6407673 451.357718,17.6407673 C452.340787,17.6014445 452.262142,17.4834762 449.745484,15.0847864 C448.290541,13.6691662 446.914243,12.5288055 446.717629,12.5288055 C446.481693,12.5288055 446.324402,14.8488497 446.324402,18.6238368 L446.324402,24.7188682 L443.965035,24.7188682 C442.667383,24.7188682 441.605668,24.561577 441.605668,24.3649631 Z" id="Path" fill="#000000"></path>
                <path d="M0.7972737,23.1852796 C0.7972737,22.9886657 1.19050153,22.752729 1.7016977,22.6740835 C2.48815336,22.5561151 2.76341284,21.8089822 4.80819754,13.7871346 C6.0272038,8.95043231 7.12824171,4.90018569 7.24621006,4.74289456 C7.75740624,4.27102116 8.18995685,5.41138186 10.0774504,11.8603182 C11.0998428,15.4780142 12.0829123,18.4272229 12.2008807,18.4272229 C12.3581718,18.4272229 12.9480136,16.7756661 13.5378553,14.8095269 C15.9758678,6.59106534 16.6443551,4.62492621 17.037583,4.78221734 C17.2341969,4.82154012 18.5318487,8.75381839 19.9081461,13.4332295 C21.2844435,18.1126407 22.5034497,22.1628873 22.6214181,22.3595012 C22.7393864,22.5954379 23.2112598,22.752729 23.6438104,22.752729 C24.0370383,22.752729 24.3909433,22.9493429 24.3909433,23.1459569 C24.3909433,23.3818936 23.2899054,23.5391847 21.8349624,23.5391847 C20.3800195,23.5391847 19.2789816,23.3818936 19.2789816,23.1459569 C19.2789816,22.9493429 19.7115322,22.752729 20.2227284,22.752729 C20.7732473,22.752729 21.2844435,22.6347607 21.363089,22.4774696 C21.4810574,22.2808556 20.6946017,19.2530014 19.6722094,15.6746281 C18.649817,12.0962549 17.7060703,9.46162848 17.5881019,9.77621074 C17.4308108,10.090793 16.5263868,13.1972928 15.5433172,16.6576977 C13.6951464,23.0279885 13.1839502,24.1290264 12.6727541,23.2639252 C12.5154629,22.9886657 11.4930706,19.8821659 10.4706782,16.2644699 C9.40896311,12.6860967 8.46521633,9.85485631 8.34724798,9.97282466 C8.03266572,10.2874069 5.20142536,22.1628873 5.39803928,22.4774696 C5.47668484,22.6347607 5.98788102,22.752729 6.53839997,22.752729 C7.04959615,22.752729 7.48214676,22.9493429 7.48214676,23.1459569 C7.48214676,23.3818936 6.10584936,23.5391847 4.13971023,23.5391847 C2.29153944,23.5391847 0.7972737,23.3818936 0.7972737,23.1852796 Z" id="Path" fill="#000000"></path>
                <path d="M74.7241052,22.1628873 C74.7241052,20.9045582 74.8027507,20.7865899 75.9037886,20.7865899 C77.0048266,20.7865899 77.0834721,20.9045582 77.0834721,22.1628873 C77.0834721,23.4212163 77.0048266,23.5391847 75.9037886,23.5391847 C74.8027507,23.5391847 74.7241052,23.4212163 74.7241052,22.1628873 Z" id="Path" fill="#000000"></path>
                <path d="M175.390429,22.1628873 C175.390429,20.9045582 175.469074,20.7865899 176.570112,20.7865899 C177.67115,20.7865899 177.749796,20.9045582 177.749796,22.1628873 C177.749796,23.4212163 177.67115,23.5391847 176.570112,23.5391847 C175.469074,23.5391847 175.390429,23.4212163 175.390429,22.1628873 Z" id="Path" fill="#000000"></path>
                <path d="M338.973205,22.1628873 C338.973205,20.9045582 339.05185,20.7865899 340.152888,20.7865899 C341.253926,20.7865899 341.332572,20.9045582 341.332572,22.1628873 C341.332572,23.4212163 341.253926,23.5391847 340.152888,23.5391847 C339.05185,23.5391847 338.973205,23.4212163 338.973205,22.1628873 Z" id="Path" fill="#000000"></path>
                <path d="M359.421052,22.1628873 C359.421052,20.9045582 359.499697,20.7865899 360.600735,20.7865899 C361.701773,20.7865899 361.780419,20.9045582 361.780419,22.1628873 C361.780419,23.4212163 361.701773,23.5391847 360.600735,23.5391847 C359.499697,23.5391847 359.421052,23.4212163 359.421052,22.1628873 Z" id="Path" fill="#000000"></path>
                <path d="M459.30092,22.1628873 C459.30092,20.9045582 459.379565,20.7865899 460.480603,20.7865899 C461.581641,20.7865899 461.660287,20.9045582 461.660287,22.1628873 C461.660287,23.4212163 461.581641,23.5391847 460.480603,23.5391847 C459.379565,23.5391847 459.30092,23.4212163 459.30092,22.1628873 Z" id="Path" fill="#000000"></path>
                <path d="M263.984658,20.9045582 C263.709399,20.8259127 263.473462,20.1967482 263.473462,19.5675836 C263.473462,18.6238368 263.316171,18.4272229 262.490393,18.4272229 C261.861228,18.4272229 261.507323,18.1912862 261.507323,17.8373812 C261.507323,17.4834762 261.861228,17.2475395 262.490393,17.2475395 L263.473462,17.2475395 L263.473462,12.1749005 C263.473462,7.69210326 263.552108,7.02361595 264.259918,6.11919195 C265.55757,4.46763508 269.371879,4.1923756 269.371879,5.76528691 C269.371879,6.2371603 269.253911,6.27648308 268.900006,5.92257804 C268.152873,5.17544517 267.130481,5.37205908 266.461994,6.31580587 C265.950797,7.02361595 265.832829,8.32126778 265.832829,12.2142233 L265.832829,17.2475395 L267.798968,17.2475395 C269.293234,17.2475395 269.765107,17.4048306 269.765107,17.8373812 C269.765107,18.2699318 269.293234,18.4272229 267.798968,18.4272229 L265.832829,18.4272229 L265.832829,19.8035203 C265.832829,21.1798177 265.360956,21.4944 263.984658,20.9045582 Z" id="Path" fill="#000000"></path>
                <path d="M28.9130633,18.3092546 C27.4187976,17.6014445 26.5536964,16.6183749 25.7672407,14.7702041 C23.5651649,9.46162848 27.6940571,3.99576169 33.3565378,4.86086291 C35.6765819,5.21476795 36.1877781,5.41138186 36.1877781,6.07986917 C36.1877781,6.473097 35.9518414,6.51241978 35.1653858,6.2371603 C33.8284112,5.72596412 31.2331075,5.72596412 30.2107152,6.27648308 C29.2669684,6.78767926 27.9693165,9.54027405 27.9299938,11.0738626 L27.9299938,12.1355777 L32.0588859,12.1355777 L36.1877781,12.1355777 L36.1877781,13.3152612 C36.1877781,14.8488497 35.3226769,16.8543116 34.3002846,17.7980584 C33.2385694,18.7418052 30.4466519,18.9777419 28.9130633,18.3092546 Z M32.8060188,17.1688939 C33.0812783,16.6576977 33.4351833,15.517337 33.5924745,14.612913 L33.8284112,12.9220334 L30.8792025,12.9220334 C28.7557722,12.9220334 27.9299938,13.0793245 27.9299938,13.4332295 C27.9299938,14.4556219 28.7164494,16.5790521 29.3456139,17.2868622 C30.2893607,18.3485774 32.0982087,18.230609 32.8060188,17.1688939 Z" id="Shape" fill="#000000"></path>
                <path d="M68.8256878,18.3879002 C68.2751688,18.1519635 67.4493904,17.6014445 66.977517,17.1688939 L66.073093,16.3431155 L66.073093,17.3655078 C66.073093,18.3879002 65.9944474,18.4272229 63.713726,18.4272229 C61.2363907,18.4272229 60.5285806,17.9160268 62.5340425,17.5227989 L63.713726,17.2868622 L63.713726,11.7423499 L63.713726,6.2371603 L62.5340425,6.0012236 C60.1746756,5.52935021 61.4330046,5.05747682 65.0900234,5.05747682 C67.331422,5.05747682 68.8256878,5.21476795 68.8256878,5.45070465 C68.8256878,5.68664134 68.3931372,5.84393247 67.8426182,5.84393247 C66.426998,5.84393247 66.073093,6.90564761 66.073093,11.1525081 C66.073093,14.6522358 66.1517385,15.0061408 67.0561625,15.8712421 C68.235846,17.0509255 69.6121434,17.1688939 69.8874029,16.067856 C70.2806307,14.4949447 71.1850547,15.2027548 71.1850547,17.0509255 C71.1850547,18.9777419 70.8311497,19.1743558 68.8256878,18.3879002 Z" id="Path" fill="#000000"></path>
                <path d="M88.2904652,18.5451913 C87.8579146,18.4272229 86.9141678,17.7980584 86.2456805,17.1295711 L84.9480287,15.9105648 L84.9480287,17.1688939 L84.9480287,18.4272229 L82.5886617,18.4272229 C80.1113264,18.4272229 79.4035163,17.9160268 81.4089782,17.5227989 L82.5886617,17.2868622 L82.5886617,11.7423499 L82.5886617,6.2371603 L81.4089782,6.0012236 C79.088934,5.52935021 80.2686175,5.05747682 83.7683452,5.05747682 C85.8524527,5.05747682 87.3073956,5.21476795 87.3073956,5.45070465 C87.3073956,5.68664134 86.9534906,5.84393247 86.52094,5.84393247 C85.3019337,5.84393247 84.9480287,7.10226152 84.9480287,11.3097993 L84.9480287,15.2420775 L86.6389083,16.2644699 C87.5826551,16.8149888 88.683693,17.2475395 89.1162436,17.2475395 C90.8071233,17.2082167 91.04306,16.6970205 91.1610283,12.1355777 C91.3576422,6.70903369 91.1610283,5.84393247 89.8633765,5.84393247 C89.3128575,5.84393247 88.8803069,5.68664134 88.8803069,5.45070465 C88.8803069,5.21476795 90.3352499,5.05747682 92.4193574,5.05747682 C94.5034649,5.05747682 95.9584078,5.21476795 95.9584078,5.45070465 C95.9584078,5.68664134 95.6045028,5.84393247 95.1719522,5.84393247 C93.9136231,5.84393247 93.5990409,7.10226152 93.5990409,11.9389638 C93.5990409,16.4610838 93.5990409,16.5397294 92.4586802,17.6800901 C91.3183195,18.781128 90.2566043,19.0170647 88.2904652,18.5451913 Z" id="Path" fill="#000000"></path>
                <path d="M100.677142,18.3485774 C99.182876,17.7980584 98.3570976,16.8543116 97.924547,15.2027548 C97.374028,13.2759384 98.0031925,10.8379259 99.2615216,9.89417909 L100.205268,9.186369 L98.9469393,8.16397665 C97.727933,7.1415843 97.727933,7.10226152 98.4750659,6.27648308 C99.182876,5.49002743 99.182876,5.45070465 97.9638697,4.4283123 C96.5482496,3.24862881 96.3909584,1.95097699 97.5706419,0.889261853 C98.2391292,0.299420113 99.1435532,0.102806199 102.132085,0.024160634 C107.362015,-0.172453279 109.328154,0.810616288 109.328154,3.72050221 C109.328154,5.72596412 108.305762,6.31580587 104.176869,6.55174256 C101.581566,6.66971091 100.559173,6.90564761 100.401882,7.29887543 C100.047977,8.20329943 100.873756,8.67517283 103.036509,8.75381839 C104.845357,8.79314117 105.238585,8.98975509 106.418268,10.2874069 C107.558629,11.5064132 107.755243,12.0176094 107.755243,13.6298434 C107.755243,14.6915586 107.519306,15.8712421 107.165401,16.3037927 C106.3003,17.4834762 106.457591,17.6800901 108.109148,17.4048306 C109.367477,17.2082167 109.642736,17.2868622 109.800027,17.876704 C109.957318,18.5845141 109.682059,18.6238368 105.789103,18.6631596 C103.508382,18.6631596 101.188338,18.5451913 100.677142,18.3485774 Z M104.452129,17.2082167 C105.513844,16.0285332 105.513844,11.3884448 104.452129,10.2087614 C103.233123,8.87178674 101.620889,9.14704622 100.716465,10.8379259 C99.7727177,12.6467739 100.323237,16.8543116 101.620889,17.7194128 C102.446667,18.2699318 103.704996,18.0339951 104.452129,17.2082167 Z M106.221654,4.66424899 C107.362015,4.03508447 107.204724,2.1475909 105.946395,1.16452133 C104.412806,-0.0544849313 101.345629,0.024160634 100.0873,1.32181246 C98.9862621,2.3835276 98.9469393,2.61946429 99.4974583,4.03508447 C99.8513633,5.01815404 100.008654,5.05747682 102.643281,5.05747682 C104.176869,5.05747682 105.789103,4.86086291 106.221654,4.66424899 Z" id="Shape" fill="#000000"></path>
                <path d="M123.563001,18.5451913 C122.068736,18.230609 120.063274,15.9892104 119.552077,14.1017168 C117.939843,8.0460083 122.383318,3.44524273 128.321058,5.0967996 C129.107514,5.29341352 129.776001,5.72596412 129.776001,6.04054639 C129.776001,6.473097 129.540064,6.51241978 128.753609,6.2371603 C126.23695,5.25409073 123.602324,6.15851473 122.540609,8.36059057 C121.793476,9.89417909 121.675508,14.1017168 122.343995,15.3993687 C123.130451,16.9329572 124.38878,18.0339951 125.332526,18.0339951 C126.826792,18.0339951 127.731216,17.3655078 128.006476,16.067856 C128.20309,15.2420775 128.517672,14.8881725 129.028868,14.8881725 C129.61871,14.8881725 129.776001,15.163432 129.776001,16.421761 C129.776001,17.4441534 129.579387,18.0339951 129.146836,18.1912862 C128.242412,18.5451913 124.624716,18.781128 123.563001,18.5451913 Z" id="Path" fill="#000000"></path>
                <path d="M136.185615,18.4272229 C132.685887,17.326185 131.03433,11.4277676 133.236406,7.69210326 C134.455412,5.60799578 135.831709,4.86086291 138.623627,4.86086291 C141.612159,4.86086291 142.90981,5.60799578 144.246785,8.24262222 C145.033241,9.69756518 145.151209,10.4053753 144.993918,12.4894827 C144.797304,15.0847864 144.168139,16.3824382 142.319969,17.7194128 C141.179608,18.5845141 137.95514,18.9384191 136.185615,18.4272229 Z M140.353829,17.4048306 C141.651481,16.4610838 142.359291,14.4949447 142.359291,11.6637043 C142.359291,8.79314117 141.49419,6.74835647 139.921279,5.88325526 C136.382228,3.91711612 133.393697,10.6019892 135.635096,15.517337 C136.775456,17.9946723 138.505659,18.7024824 140.353829,17.4048306 Z" id="Shape" fill="#000000"></path>
                <path d="M154.745968,18.5451913 C154.313417,18.4272229 153.369671,17.7980584 152.701183,17.1295711 L151.403531,15.9105648 L151.403531,17.1688939 L151.403531,18.4272229 L149.044164,18.4272229 C146.566829,18.4272229 145.859019,17.9160268 147.864481,17.5227989 L149.044164,17.2868622 L149.044164,11.7423499 L149.044164,6.2371603 L147.864481,6.0012236 C145.544437,5.52935021 146.72412,5.05747682 150.223848,5.05747682 C152.307955,5.05747682 153.762898,5.21476795 153.762898,5.45070465 C153.762898,5.68664134 153.408993,5.84393247 152.976443,5.84393247 C151.757436,5.84393247 151.403531,7.10226152 151.403531,11.3097993 L151.403531,15.2420775 L153.094411,16.2644699 C154.038158,16.8149888 155.139196,17.2475395 155.571746,17.2475395 C157.262626,17.2082167 157.498563,16.6970205 157.616531,12.1355777 C157.813145,6.70903369 157.616531,5.84393247 156.318879,5.84393247 C155.76836,5.84393247 155.33581,5.68664134 155.33581,5.45070465 C155.33581,5.21476795 156.790753,5.05747682 158.87486,5.05747682 C160.958968,5.05747682 162.413911,5.21476795 162.413911,5.45070465 C162.413911,5.68664134 162.060006,5.84393247 161.627455,5.84393247 C160.369126,5.84393247 160.054544,7.10226152 160.054544,11.9389638 C160.054544,16.4610838 160.054544,16.5397294 158.914183,17.6800901 C157.773822,18.781128 156.712107,19.0170647 154.745968,18.5451913 Z" id="Path" fill="#000000"></path>
                <path d="M201.540079,18.3092546 C200.045814,17.6014445 199.180712,16.6183749 198.394257,14.7702041 C196.192181,9.46162848 200.321073,3.99576169 205.983554,4.86086291 C208.303598,5.21476795 208.814794,5.41138186 208.814794,6.07986917 C208.814794,6.473097 208.578857,6.51241978 207.792402,6.2371603 C206.455427,5.72596412 203.860124,5.72596412 202.837731,6.27648308 C201.893984,6.78767926 200.596333,9.54027405 200.55701,11.0738626 L200.55701,12.1355777 L204.685902,12.1355777 L208.814794,12.1355777 L208.814794,13.3152612 C208.814794,14.8488497 207.949693,16.8543116 206.927301,17.7980584 C205.865585,18.7418052 203.073668,18.9777419 201.540079,18.3092546 Z M205.433035,17.1688939 C205.708294,16.6576977 206.062199,15.517337 206.21949,14.612913 L206.455427,12.9220334 L203.506218,12.9220334 C201.382788,12.9220334 200.55701,13.0793245 200.55701,13.4332295 C200.55701,14.4556219 201.343465,16.5790521 201.97263,17.2868622 C202.916377,18.3485774 204.725225,18.230609 205.433035,17.1688939 Z" id="Shape" fill="#000000"></path>
                <path d="M218.842104,18.5451913 C218.409553,18.4272229 217.465806,17.7980584 216.797319,17.1295711 L215.499667,15.9105648 L215.499667,17.1688939 L215.499667,18.4272229 L213.1403,18.4272229 C210.662965,18.4272229 209.955155,17.9160268 211.960617,17.5227989 L213.1403,17.2868622 L213.1403,11.7423499 L213.1403,6.2371603 L211.960617,6.0012236 C209.640573,5.52935021 210.820256,5.05747682 214.319984,5.05747682 C216.404091,5.05747682 217.859034,5.21476795 217.859034,5.45070465 C217.859034,5.68664134 217.505129,5.84393247 217.072579,5.84393247 C215.853572,5.84393247 215.499667,7.10226152 215.499667,11.3097993 L215.499667,15.2420775 L217.190547,16.2644699 C218.134294,16.8149888 219.235332,17.2475395 219.667882,17.2475395 C221.358762,17.2082167 221.594699,16.6970205 221.712667,12.1355777 C221.909281,6.70903369 221.712667,5.84393247 220.415015,5.84393247 C219.864496,5.84393247 219.431945,5.68664134 219.431945,5.45070465 C219.431945,5.21476795 220.886888,5.05747682 222.970996,5.05747682 C225.055103,5.05747682 226.510046,5.21476795 226.510046,5.45070465 C226.510046,5.68664134 226.156141,5.84393247 225.723591,5.84393247 C224.465262,5.84393247 224.150679,7.10226152 224.150679,11.9389638 C224.150679,16.4610838 224.150679,16.5397294 223.010319,17.6800901 C221.869958,18.781128 220.808243,19.0170647 218.842104,18.5451913 Z" id="Path" fill="#000000"></path>
                <path d="M231.700654,18.5451913 C230.206388,18.230609 228.200926,15.9892104 227.68973,14.1017168 C226.077496,8.0460083 230.52097,3.44524273 236.45871,5.0967996 C237.245166,5.29341352 237.913653,5.72596412 237.913653,6.04054639 C237.913653,6.473097 237.677717,6.51241978 236.891261,6.2371603 C234.374603,5.25409073 231.739976,6.15851473 230.678261,8.36059057 C229.931128,9.89417909 229.81316,14.1017168 230.481647,15.3993687 C231.268103,16.9329572 232.526432,18.0339951 233.470179,18.0339951 C234.964445,18.0339951 235.868869,17.3655078 236.144128,16.067856 C236.340742,15.2420775 236.655324,14.8881725 237.16652,14.8881725 C237.756362,14.8881725 237.913653,15.163432 237.913653,16.421761 C237.913653,17.4441534 237.717039,18.0339951 237.284489,18.1912862 C236.380065,18.5451913 232.762369,18.781128 231.700654,18.5451913 Z" id="Path" fill="#000000"></path>
                <path d="M244.008685,18.3092546 C242.514419,17.6014445 241.649318,16.6183749 240.862862,14.7702041 C238.660786,9.46162848 242.789678,3.99576169 248.452159,4.86086291 C250.772203,5.21476795 251.283399,5.41138186 251.283399,6.07986917 C251.283399,6.473097 251.047463,6.51241978 250.261007,6.2371603 C248.924032,5.72596412 246.328729,5.72596412 245.306336,6.27648308 C244.36259,6.78767926 243.064938,9.54027405 243.025615,11.0738626 L243.025615,12.1355777 L247.154507,12.1355777 L251.283399,12.1355777 L251.283399,13.3152612 C251.283399,14.8488497 250.418298,16.8543116 249.395906,17.7980584 C248.334191,18.7418052 245.542273,18.9777419 244.008685,18.3092546 Z M247.90164,17.1688939 C248.1769,16.6576977 248.530805,15.517337 248.688096,14.612913 L248.924032,12.9220334 L245.974824,12.9220334 C243.851394,12.9220334 243.025615,13.0793245 243.025615,13.4332295 C243.025615,14.4556219 243.812071,16.5790521 244.441235,17.2868622 C245.384982,18.3485774 247.19383,18.230609 247.90164,17.1688939 Z" id="Shape" fill="#000000"></path>
                <path d="M275.388265,18.4272229 C271.888538,17.326185 270.236981,11.4277676 272.439057,7.69210326 C273.658063,5.60799578 275.03436,4.86086291 277.826278,4.86086291 C280.814809,4.86086291 282.112461,5.60799578 283.449436,8.24262222 C284.235891,9.69756518 284.35386,10.4053753 284.196569,12.4894827 C283.999955,15.0847864 283.37079,16.3824382 281.522619,17.7194128 C280.382259,18.5845141 277.15779,18.9384191 275.388265,18.4272229 Z M279.55648,17.4048306 C280.854132,16.4610838 281.561942,14.4949447 281.561942,11.6637043 C281.561942,8.79314117 280.696841,6.74835647 279.12393,5.88325526 C275.584879,3.91711612 272.596348,10.6019892 274.837746,15.517337 C275.978107,17.9946723 277.708309,18.7024824 279.55648,17.4048306 Z" id="Shape" fill="#000000"></path>
                <path d="M314.396466,18.3092546 C312.9022,17.6014445 312.037099,16.6183749 311.250643,14.7702041 C309.048567,9.46162848 313.177459,3.99576169 318.83994,4.86086291 C321.159984,5.21476795 321.67118,5.41138186 321.67118,6.07986917 C321.67118,6.473097 321.435244,6.51241978 320.648788,6.2371603 C319.311814,5.72596412 316.71651,5.72596412 315.694118,6.27648308 C314.750371,6.78767926 313.452719,9.54027405 313.413396,11.0738626 L313.413396,12.1355777 L317.542288,12.1355777 L321.67118,12.1355777 L321.67118,13.3152612 C321.67118,14.8488497 320.806079,16.8543116 319.783687,17.7980584 C318.721972,18.7418052 315.930054,18.9777419 314.396466,18.3092546 Z M318.289421,17.1688939 C318.564681,16.6576977 318.918586,15.517337 319.075877,14.612913 L319.311814,12.9220334 L316.362605,12.9220334 C314.239175,12.9220334 313.413396,13.0793245 313.413396,13.4332295 C313.413396,14.4556219 314.199852,16.5790521 314.829016,17.2868622 C315.772763,18.3485774 317.581611,18.230609 318.289421,17.1688939 Z" id="Shape" fill="#000000"></path>
                <path d="M328.827927,18.5451913 C327.333661,18.230609 325.328199,15.9892104 324.817003,14.1017168 C323.204769,8.0460083 327.648243,3.44524273 333.585984,5.0967996 C334.372439,5.29341352 335.040927,5.72596412 335.040927,6.04054639 C335.040927,6.473097 334.80499,6.51241978 334.018534,6.2371603 C331.501876,5.25409073 328.86725,6.15851473 327.805535,8.36059057 C327.058402,9.89417909 326.940433,14.1017168 327.608921,15.3993687 C328.395376,16.9329572 329.653705,18.0339951 330.597452,18.0339951 C332.091718,18.0339951 332.996142,17.3655078 333.271401,16.067856 C333.468015,15.2420775 333.782598,14.8881725 334.293794,14.8881725 C334.883635,14.8881725 335.040927,15.163432 335.040927,16.421761 C335.040927,17.4441534 334.844313,18.0339951 334.411762,18.1912862 C333.507338,18.5451913 329.889642,18.781128 328.827927,18.5451913 Z" id="Path" fill="#000000"></path>
                <path d="M347.742185,18.230609 C346.24792,17.6014445 345.658078,16.5790521 345.658078,14.7702041 C345.658078,13.1579701 346.68047,12.1355777 349.393742,10.9558942 C351.949723,9.85485631 352.736179,9.10772344 352.736179,7.77074882 C352.736179,5.84393247 350.298166,4.82154012 348.292704,5.88325526 C347.191666,6.473097 346.837761,6.98429317 346.837761,8.12465387 C346.837761,8.71449561 346.601825,8.98975509 346.011983,8.98975509 C345.304173,8.98975509 345.225527,8.79314117 345.343496,7.33819822 L345.461464,5.64731856 L347.624217,5.0967996 C350.298166,4.4283123 352.303628,4.74289456 353.915862,6.07986917 C354.859609,6.90564761 355.095546,7.41684378 355.095546,8.63585004 C355.095546,10.5626664 354.30909,11.3884448 351.005976,12.8827106 C347.938799,14.259008 347.191666,15.3207231 348.292704,16.8149888 C349.747647,18.7418052 352.736179,18.230609 352.736179,16.067856 C352.736179,15.163432 352.89347,14.8881725 353.522634,14.8881725 C354.191122,14.8881725 354.30909,15.163432 354.30909,16.4610838 C354.30909,17.9160268 354.230445,18.0339951 352.854147,18.3879002 C350.848685,18.9384191 349.275774,18.8990963 347.742185,18.230609 Z" id="Path" fill="#000000"></path>
                <path d="M369.762944,18.4272229 C366.263216,17.326185 364.611659,11.4277676 366.813735,7.69210326 C368.032741,5.60799578 369.409039,4.86086291 372.200956,4.86086291 C375.189488,4.86086291 376.48714,5.60799578 377.824114,8.24262222 C378.61057,9.69756518 378.728538,10.4053753 378.571247,12.4894827 C378.374633,15.0847864 377.745469,16.3824382 375.897298,17.7194128 C374.756937,18.5845141 371.532469,18.9384191 369.762944,18.4272229 Z M373.931159,17.4048306 C375.228811,16.4610838 375.936621,14.4949447 375.936621,11.6637043 C375.936621,8.79314117 375.071519,6.74835647 373.498608,5.88325526 C369.959558,3.91711612 366.971026,10.6019892 369.212425,15.517337 C370.352785,17.9946723 372.082988,18.7024824 373.931159,17.4048306 Z" id="Shape" fill="#000000"></path>
                <path d="M388.323297,18.5451913 C387.890747,18.4272229 386.947,17.7980584 386.278512,17.1295711 L384.980861,15.9105648 L384.980861,17.1688939 L384.980861,18.4272229 L382.621494,18.4272229 C380.144158,18.4272229 379.436348,17.9160268 381.44181,17.5227989 L382.621494,17.2868622 L382.621494,11.7423499 L382.621494,6.2371603 L381.44181,6.0012236 C379.121766,5.52935021 380.301449,5.05747682 383.801177,5.05747682 C385.885285,5.05747682 387.340228,5.21476795 387.340228,5.45070465 C387.340228,5.68664134 386.986323,5.84393247 386.553772,5.84393247 C385.334766,5.84393247 384.980861,7.10226152 384.980861,11.3097993 L384.980861,15.2420775 L386.67174,16.2644699 C387.615487,16.8149888 388.716525,17.2475395 389.149076,17.2475395 C390.839955,17.2082167 391.075892,16.6970205 391.19386,12.1355777 C391.390474,6.70903369 391.19386,5.84393247 389.896208,5.84393247 C389.345689,5.84393247 388.913139,5.68664134 388.913139,5.45070465 C388.913139,5.21476795 390.368082,5.05747682 392.452189,5.05747682 C394.536297,5.05747682 395.99124,5.21476795 395.99124,5.45070465 C395.99124,5.68664134 395.637335,5.84393247 395.204784,5.84393247 C393.946455,5.84393247 393.631873,7.10226152 393.631873,11.9389638 C393.631873,16.4610838 393.631873,16.5397294 392.491512,17.6800901 C391.351151,18.781128 390.289436,19.0170647 388.323297,18.5451913 Z" id="Path" fill="#000000"></path>
                <path d="M411.523739,18.3485774 C411.091188,18.1126407 410.26541,17.4834762 409.675568,16.9329572 L408.57453,15.9105648 L408.57453,17.1688939 L408.57453,18.4272229 L406.215163,18.4272229 C403.737828,18.4272229 403.030018,17.9160268 405.03548,17.5227989 L406.215163,17.2868622 L406.215163,11.7423499 L406.215163,6.2371603 L405.03548,6.0012236 C402.715436,5.52935021 403.895119,5.05747682 407.394847,5.05747682 C409.478954,5.05747682 410.933897,5.21476795 410.933897,5.45070465 C410.933897,5.68664134 410.579992,5.84393247 410.147442,5.84393247 C408.928435,5.84393247 408.57453,7.10226152 408.57453,11.3097993 L408.57453,15.2420775 L410.029473,16.2644699 C411.68103,17.3655078 413.332587,17.5227989 414.040397,16.6970205 C414.354979,16.3431155 414.472948,14.4949447 414.394302,11.1131854 L414.276334,6.04054639 L413.214619,5.92257804 C412.585454,5.84393247 412.113581,5.60799578 412.113581,5.41138186 C412.113581,5.21476795 413.725815,5.05747682 415.652631,5.05747682 C417.736739,5.05747682 419.191682,5.21476795 419.191682,5.45070465 C419.191682,5.68664134 418.837777,5.84393247 418.405226,5.84393247 C417.225542,5.84393247 416.832315,7.33819822 416.832315,11.545736 L416.832315,15.2420775 L418.287258,16.2644699 C419.938814,17.3655078 421.590371,17.5227989 422.298181,16.6970205 C422.612764,16.3431155 422.730732,14.4949447 422.652086,11.1131854 L422.534118,6.04054639 L421.472403,5.92257804 C420.843238,5.84393247 420.371365,5.60799578 420.371365,5.41138186 C420.371365,5.21476795 421.983599,5.05747682 423.910415,5.05747682 C425.876555,5.05747682 427.449466,5.21476795 427.449466,5.41138186 C427.449466,5.60799578 427.056238,5.84393247 426.584365,5.92257804 C425.719263,6.04054639 425.679941,6.19783752 425.483327,11.3884448 C425.326036,15.9498876 425.168745,16.8936344 424.53958,17.6014445 C423.045314,19.2530014 420.056783,19.0170647 417.972675,17.0116028 L416.950283,16.067856 L416.517732,17.0509255 C415.809922,18.6238368 413.214619,19.2923242 411.523739,18.3485774 Z" id="Path" fill="#000000"></path>
                <path d="M431.578358,18.3092546 C430.202061,17.876704 430.005447,17.6407673 429.887478,16.5397294 C429.76951,15.517337 429.887478,15.2814003 430.516643,15.2814003 C431.027839,15.2814003 431.381744,15.6353054 431.539035,16.2644699 C432.050232,18.3092546 435.392668,18.5845141 436.100478,16.6183749 C436.336415,16.067856 436.493706,15.0454636 436.493706,14.3769763 C436.493706,13.0793245 436.493706,13.0793245 433.701788,12.6467739 C430.555966,12.1749005 429.179668,11.1918309 428.786441,9.186369 C428.07863,5.41138186 432.640073,3.32727438 435.943187,5.92257804 C436.69032,6.55174256 437.083548,6.63038813 437.201516,6.31580587 C437.516098,5.3327363 438.577813,4.62492621 439.560883,4.74289456 C440.661921,4.86086291 441.251763,5.84393247 440.268693,5.84393247 C439.246301,5.84393247 438.853073,7.57413491 438.853073,12.1355777 C438.853073,16.0285332 438.774427,16.5004066 437.948649,17.4834762 C436.847611,18.7418052 434.095016,19.0957102 431.578358,18.3092546 Z M436.41506,9.50095126 C436.297092,6.98429317 436.218446,6.82700204 435.235377,6.473097 C431.89294,5.29341352 429.848156,9.57959683 432.836687,11.4277676 C433.426529,11.8209954 434.527567,12.1355777 435.235377,12.1355777 L436.533029,12.1355777 L436.41506,9.50095126 Z" id="Shape" fill="#000000"></path>
                <path d="M472.86728,18.5451913 C472.434729,18.4272229 471.490983,17.7980584 470.822495,17.1295711 L469.524843,15.9105648 L469.524843,17.1688939 L469.524843,18.4272229 L467.165476,18.4272229 C464.688141,18.4272229 463.980331,17.9160268 465.985793,17.5227989 L467.165476,17.2868622 L467.165476,11.7423499 L467.165476,6.2371603 L465.985793,6.0012236 C463.665749,5.52935021 464.845432,5.05747682 468.34516,5.05747682 C470.429267,5.05747682 471.88421,5.21476795 471.88421,5.45070465 C471.88421,5.68664134 471.530305,5.84393247 471.097755,5.84393247 C469.878748,5.84393247 469.524843,7.10226152 469.524843,11.3097993 L469.524843,15.2420775 L471.215723,16.2644699 C472.15947,16.8149888 473.260508,17.2475395 473.693058,17.2475395 C475.383938,17.2082167 475.619875,16.6970205 475.737843,12.1355777 C475.934457,6.70903369 475.737843,5.84393247 474.440191,5.84393247 C473.889672,5.84393247 473.457122,5.68664134 473.457122,5.45070465 C473.457122,5.21476795 474.912065,5.05747682 476.996172,5.05747682 C479.08028,5.05747682 480.535223,5.21476795 480.535223,5.45070465 C480.535223,5.68664134 480.181318,5.84393247 479.748767,5.84393247 C478.490438,5.84393247 478.175856,7.10226152 478.175856,11.9389638 C478.175856,16.4610838 478.175856,16.5397294 477.035495,17.6800901 C475.895134,18.781128 474.833419,19.0170647 472.86728,18.5451913 Z" id="Path" fill="#000000"></path>
                <path d="M485.253956,18.3485774 C483.759691,17.7980584 482.933912,16.8543116 482.501362,15.2027548 C481.950843,13.2759384 482.580007,10.8379259 483.838336,9.89417909 L484.782083,9.186369 L483.523754,8.16397665 C482.304748,7.1415843 482.304748,7.10226152 483.051881,6.27648308 C483.759691,5.49002743 483.759691,5.45070465 482.540684,4.4283123 C481.125064,3.24862881 480.967773,1.95097699 482.147457,0.889261853 C482.815944,0.299420113 483.720368,0.102806199 486.708899,0.024160634 C491.93883,-0.172453279 493.904969,0.810616288 493.904969,3.72050221 C493.904969,5.72596412 492.882576,6.31580587 488.753684,6.55174256 C486.15838,6.66971091 485.135988,6.90564761 484.978697,7.29887543 C484.624792,8.20329943 485.45057,8.67517283 487.613323,8.75381839 C489.422171,8.79314117 489.815399,8.98975509 490.995083,10.2874069 C492.135443,11.5064132 492.332057,12.0176094 492.332057,13.6298434 C492.332057,14.6915586 492.096121,15.8712421 491.742216,16.3037927 C490.877114,17.4834762 491.034406,17.6800901 492.685962,17.4048306 C493.944291,17.2082167 494.219551,17.2868622 494.376842,17.876704 C494.534133,18.5845141 494.258874,18.6238368 490.365918,18.6631596 C488.085197,18.6631596 485.765153,18.5451913 485.253956,18.3485774 Z M489.028944,17.2082167 C490.090659,16.0285332 490.090659,11.3884448 489.028944,10.2087614 C487.809937,8.87178674 486.197703,9.14704622 485.293279,10.8379259 C484.349532,12.6467739 484.900051,16.8543116 486.197703,17.7194128 C487.023482,18.2699318 488.281811,18.0339951 489.028944,17.2082167 Z M490.798469,4.66424899 C491.93883,4.03508447 491.781538,2.1475909 490.523209,1.16452133 C488.989621,-0.0544849313 485.922444,0.024160634 484.664115,1.32181246 C483.563077,2.3835276 483.523754,2.61946429 484.074273,4.03508447 C484.428178,5.01815404 484.585469,5.05747682 487.220096,5.05747682 C488.753684,5.05747682 490.365918,4.86086291 490.798469,4.66424899 Z" id="Shape" fill="#000000"></path>
                <path d="M72.3647382,18.0733179 C72.3647382,17.876704 72.9152572,17.6407673 73.5444217,17.5227989 L74.7241052,17.2868622 L74.7241052,11.7423499 L74.7241052,6.2371603 L73.5444217,6.0012236 C71.2243775,5.52935021 72.404061,5.05747682 75.9037886,5.05747682 C77.9878961,5.05747682 79.4428391,5.21476795 79.4428391,5.45070465 C79.4428391,5.68664134 79.088934,5.84393247 78.6563834,5.84393247 C77.3587316,5.84393247 77.0834721,7.1415843 77.0834721,12.8827106 L77.0834721,18.4272229 L74.7241052,18.4272229 C73.4264533,18.4272229 72.3647382,18.2699318 72.3647382,18.0733179 Z" id="Path" fill="#000000"></path>
                <path d="M173.031062,18.0733179 C173.031062,17.876704 173.581581,17.6407673 174.210745,17.5227989 L175.390429,17.2868622 L175.390429,11.7423499 L175.390429,6.2371603 L174.210745,6.0012236 C171.890701,5.52935021 173.070385,5.05747682 176.570112,5.05747682 C178.65422,5.05747682 180.109163,5.21476795 180.109163,5.45070465 C180.109163,5.68664134 179.755258,5.84393247 179.322707,5.84393247 C178.025055,5.84393247 177.749796,7.1415843 177.749796,12.8827106 L177.749796,18.4272229 L175.390429,18.4272229 C174.092777,18.4272229 173.031062,18.2699318 173.031062,18.0733179 Z" id="Path" fill="#000000"></path>
                <path d="M336.613838,18.0733179 C336.613838,17.876704 337.164357,17.6407673 337.793521,17.5227989 L338.973205,17.2868622 L338.973205,11.7423499 L338.973205,6.2371603 L337.793521,6.0012236 C335.473477,5.52935021 336.653161,5.05747682 340.152888,5.05747682 C342.236996,5.05747682 343.691939,5.21476795 343.691939,5.45070465 C343.691939,5.68664134 343.338034,5.84393247 342.905483,5.84393247 C341.607831,5.84393247 341.332572,7.1415843 341.332572,12.8827106 L341.332572,18.4272229 L338.973205,18.4272229 C337.675553,18.4272229 336.613838,18.2699318 336.613838,18.0733179 Z" id="Path" fill="#000000"></path>
                <path d="M357.061685,18.0733179 C357.061685,17.876704 357.612204,17.6407673 358.241368,17.5227989 L359.421052,17.2868622 L359.421052,11.7423499 L359.421052,6.2371603 L358.241368,6.0012236 C355.921324,5.52935021 357.101008,5.05747682 360.600735,5.05747682 C362.684843,5.05747682 364.139786,5.21476795 364.139786,5.45070465 C364.139786,5.68664134 363.785881,5.84393247 363.35333,5.84393247 C362.055678,5.84393247 361.780419,7.1415843 361.780419,12.8827106 L361.780419,18.4272229 L359.421052,18.4272229 C358.1234,18.4272229 357.061685,18.2699318 357.061685,18.0733179 Z" id="Path" fill="#000000"></path>
                <path d="M456.941553,18.0733179 C456.941553,17.876704 457.492072,17.6407673 458.121236,17.5227989 L459.30092,17.2868622 L459.30092,11.7423499 L459.30092,6.2371603 L458.121236,6.0012236 C455.801192,5.52935021 456.980876,5.05747682 460.480603,5.05747682 C462.564711,5.05747682 464.019654,5.21476795 464.019654,5.45070465 C464.019654,5.68664134 463.665749,5.84393247 463.233198,5.84393247 C461.935546,5.84393247 461.660287,7.1415843 461.660287,12.8827106 L461.660287,18.4272229 L459.30092,18.4272229 C458.003268,18.4272229 456.941553,18.2699318 456.941553,18.0733179 Z" id="Path" fill="#000000"></path>
                <path d="M497.050791,6.43377421 C497.050791,5.13612238 497.129437,5.05747682 498.427089,5.05747682 C499.724741,5.05747682 499.803386,5.13612238 499.803386,6.43377421 C499.803386,7.73142604 499.724741,7.81007161 498.427089,7.81007161 C497.129437,7.81007161 497.050791,7.73142604 497.050791,6.43377421 Z" id="Path" fill="#000000"></path>
            </g>
        </g>
    </g>
</svg>