<?xml version="1.0" encoding="UTF-8"?>
<svg width="130px" height="53px" viewBox="0 0 130 53" version="1.1" xmlns="http://www.w3.org/2000/svg" xmlns:xlink="http://www.w3.org/1999/xlink">
    <title>Edusity-Enterprise</title>
    <g id="Page-1" stroke="none" stroke-width="1" fill="none" fill-rule="evenodd">
        <g id="Edusity-Enterprise" transform="translate(-2.000000, -9.000000)" fill-rule="nonzero">
            <path d="M10.966,53.504 C12.406,53.504 13.672,53.228 14.764,52.676 C15.856,52.124 16.81,51.32 17.626,50.264 L17.626,50.264 L17.05,49.76 C16.306,50.744 15.43,51.494 14.422,52.01 C13.414,52.526 12.262,52.784 10.966,52.784 C9.694,52.784 8.59,52.544 7.654,52.064 C6.718,51.584 5.944,50.954 5.332,50.174 C4.72,49.394 4.264,48.512 3.964,47.528 C3.664,46.544 3.514,45.548 3.514,44.54 L3.514,44.54 L18.274,44.54 L18.274,43.856 C18.274,42.872 18.118,41.906 17.806,40.958 C17.494,40.01 17.02,39.164 16.384,38.42 C15.748,37.676 14.95,37.076 13.99,36.62 C13.03,36.164 11.902,35.936 10.606,35.936 C9.502,35.936 8.47,36.146 7.51,36.566 C6.55,36.986 5.716,37.58 5.008,38.348 C4.3,39.116 3.742,40.028 3.334,41.084 C2.926,42.14 2.722,43.292 2.722,44.54 C2.722,45.836 2.92,47.036 3.316,48.14 C3.712,49.244 4.276,50.192 5.008,50.984 C5.74,51.776 6.61,52.394 7.618,52.838 C8.626,53.282 9.742,53.504 10.966,53.504 Z M17.518,43.856 L3.55,43.856 C3.55,43.232 3.682,42.506 3.946,41.678 C4.21,40.85 4.624,40.058 5.188,39.302 C5.752,38.546 6.478,37.91 7.366,37.394 C8.254,36.878 9.322,36.62 10.57,36.62 C11.602,36.62 12.538,36.794 13.378,37.142 C14.218,37.49 14.938,37.982 15.538,38.618 C16.138,39.254 16.612,40.016 16.96,40.904 C17.308,41.792 17.494,42.776 17.518,43.856 L17.518,43.856 Z M22.078,53 L22.078,44.72 C22.078,43.448 22.252,42.314 22.6,41.318 C22.948,40.322 23.416,39.476 24.004,38.78 C24.592,38.084 25.288,37.55 26.092,37.178 C26.896,36.806 27.754,36.62 28.666,36.62 C29.698,36.62 30.55,36.83 31.222,37.25 C31.894,37.67 32.428,38.192 32.824,38.816 C33.22,39.44 33.49,40.136 33.634,40.904 C33.778,41.672 33.85,42.392 33.85,43.064 L33.85,43.064 L33.85,53 L34.642,53 L34.642,42.992 C34.642,42.128 34.546,41.276 34.354,40.436 C34.162,39.596 33.838,38.84 33.382,38.168 C32.926,37.496 32.314,36.956 31.546,36.548 C30.778,36.14 29.818,35.936 28.666,35.936 C27.946,35.936 27.25,36.044 26.578,36.26 C25.906,36.476 25.282,36.794 24.706,37.214 C24.13,37.634 23.614,38.144 23.158,38.744 C22.702,39.344 22.354,40.028 22.114,40.796 L22.114,40.796 L22.042,40.796 C22.042,40.484 22.036,40.13 22.024,39.734 C22.012,39.338 22,38.93 21.988,38.51 C21.976,38.09 21.964,37.7 21.952,37.34 C21.94,36.98 21.922,36.68 21.898,36.44 L21.898,36.44 L21.106,36.44 C21.13,36.68 21.154,36.98 21.178,37.34 C21.202,37.7 21.22,38.078 21.232,38.474 C21.244,38.87 21.256,39.26 21.268,39.644 C21.28,40.028 21.286,40.352 21.286,40.616 L21.286,53 L22.078,53 Z M43.054,53.432 C43.414,53.432 43.786,53.396 44.17,53.324 C44.554,53.252 44.89,53.156 45.178,53.036 L45.178,53.036 L45.07,52.424 C44.518,52.64 43.906,52.748 43.234,52.748 C42.322,52.748 41.59,52.502 41.038,52.01 C40.486,51.518 40.21,50.708 40.21,49.58 L40.21,49.58 L40.21,37.124 L45.07,37.124 L45.07,36.44 L40.21,36.44 L40.21,31.58 L39.382,31.58 L39.382,36.44 L35.818,36.44 L35.818,37.124 L39.418,37.124 L39.418,49.58 C39.418,50.684 39.7,51.602 40.264,52.334 C40.828,53.066 41.758,53.432 43.054,53.432 Z M53.518,53.504 C54.958,53.504 56.224,53.228 57.316,52.676 C58.408,52.124 59.362,51.32 60.178,50.264 L60.178,50.264 L59.602,49.76 C58.858,50.744 57.982,51.494 56.974,52.01 C55.966,52.526 54.814,52.784 53.518,52.784 C52.246,52.784 51.142,52.544 50.206,52.064 C49.27,51.584 48.496,50.954 47.884,50.174 C47.272,49.394 46.816,48.512 46.516,47.528 C46.216,46.544 46.066,45.548 46.066,44.54 L46.066,44.54 L60.826,44.54 L60.826,43.856 C60.826,42.872 60.67,41.906 60.358,40.958 C60.046,40.01 59.572,39.164 58.936,38.42 C58.3,37.676 57.502,37.076 56.542,36.62 C55.582,36.164 54.454,35.936 53.158,35.936 C52.054,35.936 51.022,36.146 50.062,36.566 C49.102,36.986 48.268,37.58 47.56,38.348 C46.852,39.116 46.294,40.028 45.886,41.084 C45.478,42.14 45.274,43.292 45.274,44.54 C45.274,45.836 45.472,47.036 45.868,48.14 C46.264,49.244 46.828,50.192 47.56,50.984 C48.292,51.776 49.162,52.394 50.17,52.838 C51.178,53.282 52.294,53.504 53.518,53.504 Z M60.07,43.856 L46.102,43.856 C46.102,43.232 46.234,42.506 46.498,41.678 C46.762,40.85 47.176,40.058 47.74,39.302 C48.304,38.546 49.03,37.91 49.918,37.394 C50.806,36.878 51.874,36.62 53.122,36.62 C54.154,36.62 55.09,36.794 55.93,37.142 C56.77,37.49 57.49,37.982 58.09,38.618 C58.69,39.254 59.164,40.016 59.512,40.904 C59.86,41.792 60.046,42.776 60.07,43.856 L60.07,43.856 Z M64.63,53 L64.63,44.432 C64.63,43.52 64.744,42.602 64.972,41.678 C65.2,40.754 65.554,39.914 66.034,39.158 C66.514,38.402 67.126,37.79 67.87,37.322 C68.614,36.854 69.514,36.62 70.57,36.62 L70.57,36.62 L70.768,36.62 C70.852,36.62 70.942,36.632 71.038,36.656 L71.038,36.656 L71.038,35.972 C70.918,35.948 70.81,35.936 70.714,35.936 L70.714,35.936 L70.39,35.936 C69.166,35.936 68.026,36.314 66.97,37.07 C65.914,37.826 65.146,39.068 64.666,40.796 L64.666,40.796 L64.594,40.796 C64.594,40.484 64.588,40.13 64.576,39.734 C64.564,39.338 64.552,38.93 64.54,38.51 C64.528,38.09 64.516,37.7 64.504,37.34 C64.492,36.98 64.474,36.68 64.45,36.44 L64.45,36.44 L63.658,36.44 C63.682,36.68 63.706,36.98 63.73,37.34 C63.754,37.7 63.772,38.078 63.784,38.474 C63.796,38.87 63.808,39.26 63.82,39.644 C63.832,40.028 63.838,40.352 63.838,40.616 L63.838,40.616 L63.838,53 L64.63,53 Z M72.934,61.64 L72.934,48.536 L73.042,48.536 C73.354,49.352 73.774,50.066 74.302,50.678 C74.83,51.29 75.418,51.806 76.066,52.226 C76.714,52.646 77.416,52.964 78.172,53.18 C78.928,53.396 79.702,53.504 80.494,53.504 C81.694,53.504 82.804,53.282 83.824,52.838 C84.844,52.394 85.72,51.782 86.452,51.002 C87.184,50.222 87.754,49.298 88.162,48.23 C88.57,47.162 88.774,46.004 88.774,44.756 C88.774,43.484 88.576,42.308 88.18,41.228 C87.784,40.148 87.22,39.218 86.488,38.438 C85.756,37.658 84.88,37.046 83.86,36.602 C82.84,36.158 81.718,35.936 80.494,35.936 C78.91,35.936 77.452,36.356 76.12,37.196 C74.788,38.036 73.762,39.284 73.042,40.94 L73.042,40.94 L72.934,40.94 L72.934,36.44 L72.142,36.44 L72.142,61.64 L72.934,61.64 Z M80.494,52.82 C79.39,52.82 78.376,52.604 77.452,52.172 C76.528,51.74 75.73,51.158 75.058,50.426 C74.386,49.694 73.858,48.836 73.474,47.852 C73.09,46.868 72.898,45.824 72.898,44.72 C72.898,43.616 73.09,42.572 73.474,41.588 C73.858,40.604 74.386,39.746 75.058,39.014 C75.73,38.282 76.528,37.7 77.452,37.268 C78.376,36.836 79.39,36.62 80.494,36.62 C81.646,36.62 82.684,36.842 83.608,37.286 C84.532,37.73 85.318,38.324 85.966,39.068 C86.614,39.812 87.112,40.676 87.46,41.66 C87.808,42.644 87.982,43.676 87.982,44.756 C87.982,45.836 87.808,46.868 87.46,47.852 C87.112,48.836 86.614,49.694 85.966,50.426 C85.318,51.158 84.532,51.74 83.608,52.172 C82.684,52.604 81.646,52.82 80.494,52.82 Z M92.578,53 L92.578,44.432 C92.578,43.52 92.692,42.602 92.92,41.678 C93.148,40.754 93.502,39.914 93.982,39.158 C94.462,38.402 95.074,37.79 95.818,37.322 C96.562,36.854 97.462,36.62 98.518,36.62 L98.518,36.62 L98.716,36.62 C98.8,36.62 98.89,36.632 98.986,36.656 L98.986,36.656 L98.986,35.972 C98.866,35.948 98.758,35.936 98.662,35.936 L98.662,35.936 L98.338,35.936 C97.114,35.936 95.974,36.314 94.918,37.07 C93.862,37.826 93.094,39.068 92.614,40.796 L92.614,40.796 L92.542,40.796 C92.542,40.484 92.536,40.13 92.524,39.734 C92.512,39.338 92.5,38.93 92.488,38.51 C92.476,38.09 92.464,37.7 92.452,37.34 C92.44,36.98 92.422,36.68 92.398,36.44 L92.398,36.44 L91.606,36.44 C91.63,36.68 91.654,36.98 91.678,37.34 C91.702,37.7 91.72,38.078 91.732,38.474 C91.744,38.87 91.756,39.26 91.768,39.644 C91.78,40.028 91.786,40.352 91.786,40.616 L91.786,40.616 L91.786,53 L92.578,53 Z M100.882,53 L100.882,36.44 L100.09,36.44 L100.09,53 L100.882,53 Z M109.15,53.432 C109.894,53.432 110.59,53.324 111.238,53.108 C111.886,52.892 112.456,52.58 112.948,52.172 C113.44,51.764 113.83,51.266 114.118,50.678 C114.406,50.09 114.55,49.424 114.55,48.68 C114.55,47.936 114.412,47.312 114.136,46.808 C113.86,46.304 113.488,45.884 113.02,45.548 C112.552,45.212 112.012,44.93 111.4,44.702 C110.788,44.474 110.158,44.276 109.51,44.108 C108.814,43.94 108.178,43.766 107.602,43.586 C107.026,43.406 106.534,43.184 106.126,42.92 C105.718,42.656 105.4,42.308 105.172,41.876 C104.944,41.444 104.83,40.868 104.83,40.148 C104.83,39.5 104.968,38.948 105.244,38.492 C105.52,38.036 105.868,37.67 106.288,37.394 C106.708,37.118 107.17,36.92 107.674,36.8 C108.178,36.68 108.658,36.62 109.114,36.62 C110.098,36.62 110.938,36.794 111.634,37.142 C112.33,37.49 112.954,38.024 113.506,38.744 L113.506,38.744 L114.19,38.348 C113.062,36.74 111.37,35.936 109.114,35.936 C108.49,35.936 107.872,36.026 107.26,36.206 C106.648,36.386 106.102,36.65 105.622,36.998 C105.142,37.346 104.758,37.784 104.47,38.312 C104.182,38.84 104.038,39.464 104.038,40.184 C104.038,40.904 104.152,41.504 104.38,41.984 C104.608,42.464 104.92,42.866 105.316,43.19 C105.712,43.514 106.174,43.778 106.702,43.982 C107.23,44.186 107.794,44.372 108.394,44.54 C108.946,44.684 109.54,44.846 110.176,45.026 C110.812,45.206 111.394,45.44 111.922,45.728 C112.45,46.016 112.888,46.4 113.236,46.88 C113.584,47.36 113.758,47.984 113.758,48.752 C113.758,49.4 113.62,49.976 113.344,50.48 C113.068,50.984 112.708,51.404 112.264,51.74 C111.82,52.076 111.328,52.328 110.788,52.496 C110.248,52.664 109.714,52.748 109.186,52.748 C106.93,52.748 105.202,51.908 104.002,50.228 L104.002,50.228 L103.354,50.66 C104.002,51.572 104.824,52.262 105.82,52.73 C106.816,53.198 107.926,53.432 109.15,53.432 Z M123.97,53.504 C125.41,53.504 126.676,53.228 127.768,52.676 C128.86,52.124 129.814,51.32 130.63,50.264 L130.63,50.264 L130.054,49.76 C129.31,50.744 128.434,51.494 127.426,52.01 C126.418,52.526 125.266,52.784 123.97,52.784 C122.698,52.784 121.594,52.544 120.658,52.064 C119.722,51.584 118.948,50.954 118.336,50.174 C117.724,49.394 117.268,48.512 116.968,47.528 C116.668,46.544 116.518,45.548 116.518,44.54 L116.518,44.54 L131.278,44.54 L131.278,43.856 C131.278,42.872 131.122,41.906 130.81,40.958 C130.498,40.01 130.024,39.164 129.388,38.42 C128.752,37.676 127.954,37.076 126.994,36.62 C126.034,36.164 124.906,35.936 123.61,35.936 C122.506,35.936 121.474,36.146 120.514,36.566 C119.554,36.986 118.72,37.58 118.012,38.348 C117.304,39.116 116.746,40.028 116.338,41.084 C115.93,42.14 115.726,43.292 115.726,44.54 C115.726,45.836 115.924,47.036 116.32,48.14 C116.716,49.244 117.28,50.192 118.012,50.984 C118.744,51.776 119.614,52.394 120.622,52.838 C121.63,53.282 122.746,53.504 123.97,53.504 Z M130.522,43.856 L116.554,43.856 C116.554,43.232 116.686,42.506 116.95,41.678 C117.214,40.85 117.628,40.058 118.192,39.302 C118.756,38.546 119.482,37.91 120.37,37.394 C121.258,36.878 122.326,36.62 123.574,36.62 C124.606,36.62 125.542,36.794 126.382,37.142 C127.222,37.49 127.942,37.982 128.542,38.618 C129.142,39.254 129.616,40.016 129.964,40.904 C130.312,41.792 130.498,42.776 130.522,43.856 L130.522,43.856 Z" id="enterprise" fill="#333333"></path>
            <g id="edusity-copy" transform="translate(2.895000, 9.320000)" fill="#7108B9">
                <path d="M97.2904839,25.7633333 L97.4477419,22.7474731 C97.4523725,22.6470149 97.4112178,22.5498722 97.3358302,22.4833138 C97.2604427,22.4167554 97.1589488,22.3879561 97.0598387,22.405 L94.057957,22.9326882 L94.4633333,21.8144086 C94.4970551,21.7231791 94.4689523,21.6206037 94.3934409,21.5593011 L91.105,18.8963978 L91.8458602,18.5504301 C91.9493895,18.5015071 92.0003178,18.3831737 91.9646774,18.2743548 L91.3146774,16.2754301 L93.2087634,16.6773118 C93.3145624,16.6993707 93.4212538,16.6438327 93.463871,16.5445161 L93.8308065,15.6813441 L95.3090323,17.2679032 C95.3784591,17.3411328 95.4878729,17.359782 95.5776383,17.3136862 C95.6674038,17.2675904 95.7159982,17.1678019 95.6969355,17.0687097 L94.9840323,13.3923656 L96.1267742,14.0528495 C96.1810049,14.0846336 96.2459819,14.0925245 96.3062439,14.0746445 C96.3665059,14.0567646 96.4166647,14.0147125 96.4447849,13.9584946 L97.605,11.68 L98.7652151,13.9584946 C98.7933353,14.0147125 98.8434941,14.0567646 98.9037561,14.0746445 C98.9640181,14.0925245 99.0289951,14.0846336 99.0832258,14.0528495 L100.225968,13.3923656 L99.5130645,17.0687097 C99.4940018,17.1678019 99.5425962,17.2675904 99.6323617,17.3136862 C99.7221271,17.359782 99.8315409,17.3411328 99.9009677,17.2679032 L101.379194,15.6813441 L101.746129,16.5445161 C101.788746,16.6438327 101.895438,16.6993707 102.001237,16.6773118 L103.895323,16.2754301 L103.245323,18.2743548 C103.209682,18.3831737 103.260611,18.5015071 103.36414,18.5504301 L104.105,18.8963978 L100.816559,21.5593011 C100.741048,21.6206037 100.712945,21.7231791 100.746667,21.8144086 L101.152043,22.9326882 L98.1501613,22.405 C98.0510512,22.3879561 97.9495573,22.4167554 97.8741698,22.4833138 C97.7987822,22.5498722 97.7576275,22.6470149 97.7622581,22.7474731 L97.9195161,25.7633333 L97.2904839,25.7633333 Z" id="Path"></path>
                <path d="M8.22,23.16 C9.74,23.16 11.075,22.885 12.225,22.335 C13.375,21.785 14.3,21 15,19.98 L15,19.98 L11.58,17.82 C11.24,18.28 10.8,18.655 10.26,18.945 C9.72,19.235 9.06,19.38 8.28,19.38 C7.84,19.38 7.415,19.31 7.005,19.17 C6.595,19.03 6.225,18.835 5.895,18.585 C5.565,18.335 5.295,18.04 5.085,17.7 C4.875,17.36 4.75,16.98 4.71,16.56 L4.71,16.56 L15.54,16.56 C15.56,16.38 15.57,16.19 15.57,15.99 L15.57,15.99 L15.57,15.39 C15.57,14.11 15.385,12.97 15.015,11.97 C14.645,10.97 14.13,10.12 13.47,9.42 C12.81,8.72 12.02,8.185 11.1,7.815 C10.18,7.445 9.17,7.26 8.07,7.26 C6.93,7.26 5.87,7.45 4.89,7.83 C3.91,8.21 3.06,8.745 2.34,9.435 C1.62,10.125 1.05,10.965 0.63,11.955 C0.21,12.945 0,14.05 0,15.27 C0,16.53 0.215,17.65 0.645,18.63 C1.075,19.61 1.665,20.435 2.415,21.105 C3.165,21.775 4.04,22.285 5.04,22.635 C6.04,22.985 7.1,23.16 8.22,23.16 Z M11.04,13.5 L4.71,13.5 C4.73,13.12 4.83,12.755 5.01,12.405 C5.19,12.055 5.43,11.75 5.73,11.49 C6.03,11.23 6.38,11.025 6.78,10.875 C7.18,10.725 7.62,10.65 8.1,10.65 C9.08,10.65 9.815,10.93 10.305,11.49 C10.795,12.05 11.04,12.72 11.04,13.5 L11.04,13.5 Z M22.89,23.1 C23.89,23.1 24.835,22.895 25.725,22.485 C26.615,22.075 27.3,21.49 27.78,20.73 L27.78,20.73 L27.84,20.73 L27.84,22.68 L32.37,22.68 L32.37,-7.28306304e-14 L27.45,-7.28306304e-14 L27.45,9.33 L27.39,9.33 C26.97,8.83 26.38,8.37 25.62,7.95 C24.86,7.53 23.93,7.32 22.83,7.32 C21.75,7.32 20.775,7.53 19.905,7.95 C19.035,8.37 18.295,8.94 17.685,9.66 C17.075,10.38 16.605,11.215 16.275,12.165 C15.945,13.115 15.78,14.11 15.78,15.15 C15.78,16.19 15.94,17.19 16.26,18.15 C16.58,19.11 17.045,19.955 17.655,20.685 C18.265,21.415 19.01,22 19.89,22.44 C20.77,22.88 21.77,23.1 22.89,23.1 Z M24.06,19.02 C23.48,19.02 22.97,18.91 22.53,18.69 C22.09,18.47 21.72,18.18 21.42,17.82 C21.12,17.46 20.895,17.045 20.745,16.575 C20.595,16.105 20.52,15.63 20.52,15.15 C20.52,14.67 20.595,14.2 20.745,13.74 C20.895,13.28 21.12,12.875 21.42,12.525 C21.72,12.175 22.09,11.89 22.53,11.67 C22.97,11.45 23.48,11.34 24.06,11.34 C24.62,11.34 25.12,11.45 25.56,11.67 C26,11.89 26.375,12.18 26.685,12.54 C26.995,12.9 27.235,13.31 27.405,13.77 C27.575,14.23 27.66,14.7 27.66,15.18 C27.66,15.66 27.575,16.13 27.405,16.59 C27.235,17.05 26.995,17.46 26.685,17.82 C26.375,18.18 26,18.47 25.56,18.69 C25.12,18.91 24.62,19.02 24.06,19.02 Z M39.45,23.1 C39.97,23.1 40.465,23.03 40.935,22.89 C41.405,22.75 41.835,22.57 42.225,22.35 C42.615,22.13 42.955,21.87 43.245,21.57 C43.535,21.27 43.77,20.95 43.95,20.61 L43.95,20.61 L44.01,20.61 L44.01,22.68 L48.75,22.68 L48.75,7.74 L43.83,7.74 L43.83,15.81 C43.83,16.67 43.605,17.42 43.155,18.06 C42.705,18.7 42.05,19.02 41.19,19.02 C40.73,19.02 40.36,18.935 40.08,18.765 C39.8,18.595 39.575,18.36 39.405,18.06 C39.235,17.76 39.12,17.42 39.06,17.04 C39,16.66 38.97,16.26 38.97,15.84 L38.97,15.84 L38.97,7.74 L34.02,7.74 L34.02,16.98 C34.02,17.74 34.115,18.485 34.305,19.215 C34.495,19.945 34.805,20.595 35.235,21.165 C35.665,21.735 36.225,22.2 36.915,22.56 C37.605,22.92 38.45,23.1 39.45,23.1 Z" id="edu"></path>
                <path d="M55.41,23.16 C56.17,23.16 56.93,23.07 57.69,22.89 C58.45,22.71 59.135,22.42 59.745,22.02 C60.355,21.62 60.85,21.095 61.23,20.445 C61.61,19.795 61.8,19 61.8,18.06 C61.8,17.34 61.66,16.72 61.38,16.2 C61.1,15.68 60.73,15.24 60.27,14.88 C59.81,14.52 59.295,14.23 58.725,14.01 C58.155,13.79 57.59,13.62 57.03,13.5 C56.07,13.28 55.375,13.08 54.945,12.9 C54.515,12.72 54.3,12.42 54.3,12 C54.3,11.56 54.495,11.25 54.885,11.07 C55.275,10.89 55.7,10.8 56.16,10.8 C56.76,10.8 57.33,10.93 57.87,11.19 C58.41,11.45 58.88,11.77 59.28,12.15 L59.28,12.15 L61.98,9.36 C61.24,8.66 60.335,8.135 59.265,7.785 C58.195,7.435 57.1,7.26 55.98,7.26 C55.26,7.26 54.535,7.355 53.805,7.545 C53.075,7.735 52.41,8.03 51.81,8.43 C51.21,8.83 50.72,9.345 50.34,9.975 C49.96,10.605 49.77,11.37 49.77,12.27 C49.77,12.97 49.9,13.57 50.16,14.07 C50.42,14.57 50.755,14.99 51.165,15.33 C51.575,15.67 52.04,15.94 52.56,16.14 C53.08,16.34 53.6,16.5 54.12,16.62 C55.14,16.86 55.89,17.09 56.37,17.31 C56.85,17.53 57.09,17.87 57.09,18.33 C57.09,18.81 56.895,19.145 56.505,19.335 C56.115,19.525 55.72,19.62 55.32,19.62 C54.6,19.62 53.92,19.46 53.28,19.14 C52.64,18.82 52.1,18.42 51.66,17.94 L51.66,17.94 L48.9,20.85 C49.68,21.61 50.655,22.185 51.825,22.575 C52.995,22.965 54.19,23.16 55.41,23.16 Z M65.07,5.67 C65.45,5.67 65.815,5.6 66.165,5.46 C66.515,5.32 66.815,5.13 67.065,4.89 C67.315,4.65 67.515,4.365 67.665,4.035 C67.815,3.705 67.89,3.35 67.89,2.97 C67.89,2.59 67.815,2.235 67.665,1.905 C67.515,1.575 67.315,1.29 67.065,1.05 C66.815,0.81 66.515,0.62 66.165,0.48 C65.815,0.34 65.45,0.27 65.07,0.27 C64.67,0.27 64.3,0.345 63.96,0.495 C63.62,0.645 63.32,0.84 63.06,1.08 C62.8,1.32 62.6,1.605 62.46,1.935 C62.32,2.265 62.25,2.61 62.25,2.97 C62.25,3.71 62.52,4.345 63.06,4.875 C63.6,5.405 64.27,5.67 65.07,5.67 Z M67.53,22.68 L67.53,7.74 L62.61,7.74 L62.61,22.68 L67.53,22.68 Z M75.18,23.04 C75.7,23.04 76.22,22.995 76.74,22.905 C77.26,22.815 77.69,22.71 78.03,22.59 L78.03,22.59 L77.97,18.99 C77.79,19.07 77.565,19.13 77.295,19.17 C77.025,19.21 76.77,19.23 76.53,19.23 C75.83,19.23 75.345,19.055 75.075,18.705 C74.805,18.355 74.67,17.83 74.67,17.13 L74.67,17.13 L74.67,11.43 L78.18,11.43 L78.18,7.74 L74.67,7.74 L74.67,3.81 L69.84,3.81 L69.84,7.74 L67.47,7.74 L67.47,11.43 L69.87,11.43 L69.87,17.73 C69.87,18.53 69.96,19.255 70.14,19.905 C70.32,20.555 70.615,21.115 71.025,21.585 C71.435,22.055 71.98,22.415 72.66,22.665 C73.34,22.915 74.18,23.04 75.18,23.04 Z M80.25,29.88 C81.19,29.88 82.005,29.77 82.695,29.55 C83.385,29.33 83.985,29.005 84.495,28.575 C85.005,28.145 85.445,27.625 85.815,27.015 C86.185,26.405 86.52,25.71 86.82,24.93 L86.82,24.93 L93.51,7.74 L88.29,7.74 L85.32,17.34 L85.23,17.34 L81.9,7.74 L76.44,7.74 L82.68,22.44 L82.2,23.67 C81.96,24.31 81.67,24.805 81.33,25.155 C80.99,25.505 80.44,25.68 79.68,25.68 C79.44,25.68 79.175,25.655 78.885,25.605 C78.595,25.555 78.33,25.49 78.09,25.41 L78.09,25.41 L77.55,29.55 C77.91,29.65 78.335,29.73 78.825,29.79 C79.315,29.85 79.79,29.88 80.25,29.88 Z" id="sity"></path>
            </g>
            <path d="M99.547548,20 L99.547548,17.1511186 L100.588927,17.1511186 L100.588927,16.752 L98.052,16.752 L98.052,17.1511186 L99.0933785,17.1511186 L99.0933785,20 L99.547548,20 Z M101.139435,20 L101.139435,17.2841582 L101.14861,17.2841582 L102.222102,20 L102.511119,20 L103.589198,17.2841582 L103.598373,17.2841582 L103.598373,20 L104.052542,20 L104.052542,16.752 L103.346056,16.752 L102.387254,19.2476384 L102.378079,19.2476384 L101.405514,16.752 L100.699028,16.752 L100.699028,20 L101.139435,20 Z" id="TM" fill="#333333"></path>
        </g>
    </g>
</svg>