<?xml version="1.0" encoding="UTF-8"?>
<svg width="128px" height="151px" viewBox="0 0 128 151" version="1.1" xmlns="http://www.w3.org/2000/svg" xmlns:xlink="http://www.w3.org/1999/xlink">
    <title>expert</title>
    <g id="Page-1" stroke="none" stroke-width="1" fill="none" fill-rule="evenodd">
        <g id="expert">
            <path d="M51.2,91.9 C22.9,104.3 14.4,110.9 11.1,113.9 C5.9,118.5 3.1,135.5 0,150 L64,150 L128,150 C125,135.5 122.1,118.5 116.9,113.9 C113.5,110.9 105.4,104.5 77.1,92.1 L51.2,91.9 Z" id="Path" fill="#FFDECC"></path>
            <path d="M51.2,91.9 C22.9,104.3 14.4,110.9 11.1,113.9 C5.9,118.5 3.1,135.5 0,150 L64,150 L128,150 C125,135.5 122.1,118.5 116.9,113.9 C113.5,110.9 105.4,104.5 77.1,92.1 L51.2,91.9 Z" id="Path" fill="#04352E"></path>
            <path d="M50.2,67.1 L50.2,88.1 L50.2,98.5 C57.8,107.4 70.1,107.8 77.7,98.5 L77.7,88.1 L77.7,67.1 C77.7,50.2 50.2,50.2 50.2,67.1 Z" id="Path" fill="#DBB18A"></path>
            <path d="M35.3,47.4 C37.7,46.6 40.8,49.3 42.2,53.5 C43.6,57.7 42.7,61.7 40.3,62.5 C37.9,63.3 34.8,60.6 33.4,56.4 C32,52.3 32.9,48.2 35.3,47.4 Z" id="Path" fill="#F6D1AF"></path>
            <path d="M92.5,47.4 C90.1,46.6 87,49.3 85.6,53.5 C84.2,57.7 85.1,61.7 87.5,62.5 C89.9,63.3 93,60.6 94.4,56.4 C95.7,52.3 94.9,48.2 92.5,47.4 Z" id="Path" fill="#F6D1AF"></path>
            <path d="M58.1,111.7 L61.4,116.9 C63.1,116.9 64.8,116.9 66.6,116.9 L69.9,111.7 L64.1,105.3 L58.1,111.7 Z" id="Path" fill="#82D8CB"></path>
            <polygon id="Path" fill="#82D8CB" points="61.4 116.9 56.6 150 71.3 150 66.5 116.9"></polygon>
            <polygon id="Path" fill="#04352E" points="50.2 88.1 49 92.8 52.4 117.1 64 105.3"></polygon>
            <path d="M50.2,82.3 L50.2,83.3 C50.2,83.3 57.2,91.6 63.9,91.9 C70.6,92.2 77.7,83.8 77.7,83.8 L77.7,82.3" id="Path" fill="#000000" fill-rule="nonzero" opacity="0.2"></path>
            <g id="Group" transform="translate(25.701628, 0.000000)">
                <path d="M38.2983715,10.8 C-4.00162846,10.8 12.1983715,68.7 14.9983715,73.1 C17.9983715,78 31.4983715,88.8 38.2983715,88.8 C45.0983715,88.8 58.5983715,78 61.5983715,73.1 C64.2983715,68.7 80.4983715,10.8 38.2983715,10.8 Z" id="Path" fill="#DBB18A"></path>
                <path d="M6.79837154,24.1 C3.79837154,30.9 8.39837154,53.1 9.09837154,57.1 C10.0983715,56.9 10.6983715,56.7 11.6983715,57.1 C11.4983715,51.1 10.6983715,44.7 13.6983715,39.9 C15.0983715,37.8 12.7983715,31.6 19.4983715,32.4 C19.7983715,32.5 20.1983715,32.5 20.4983715,32.6 C14.9983715,29.8 10.0983715,25.7 4.89837154,22.4 C5.49837154,23 6.09837154,23.6 6.79837154,24.1 Z" id="Path" fill="#471C0E" fill-rule="nonzero"></path>
                <path d="M62.6983715,14.4 C62.4983715,5 49.5983715,3.6 41.4983715,6 C25.6983715,10.7 12.2983715,8.6 0.598371539,0 C0.798371539,4.5 -2.60162846,14.5 4.89837154,22.4 C10.0983715,25.7 14.9983715,29.8 20.4983715,32.6 C25.9983715,33.5 31.8983715,33.1 36.9983715,31.3 C42.7983715,29.4 51.6983715,21.2 58.2983715,26.5 C57.3983715,31.5 58.9983715,31.6 61.5983715,36.5 C64.1983715,41 63.7983715,51.7 63.7983715,56.8 C64.5983715,56.6 66.4983715,56.8 67.2983715,56.8 C68.3983715,48.5 69.2983715,40.5 70.4983715,32.2 C73.7983715,10.9 62.6983715,14.4 62.6983715,14.4 Z" id="Path" fill="#471C0E" fill-rule="nonzero"></path>
            </g>
            <polygon id="Path" fill="#04352E" points="77.7 88.1 78.6 92.7 75.4 117.4 63.9 105.3"></polygon>
            <polyline id="Path" fill="#000000" fill-rule="nonzero" opacity="0.05" points="50.2 88.1 64 105.3 77.7 88.1 77.7 87.7 64 104.8 50.2 87.7 50.2 88.1"></polyline>
            <polygon id="Path" fill="#000000" fill-rule="nonzero" opacity="0.1" points="61.4 116.9 66.5 116.9 66.6 117 61.4 117"></polygon>
            <path d="M60.3,66.2 C59.9,65 62.6,62.7 63.8,62.7 C65.3,62.7 68,65.3 67.6,66.2 C67.1,67.4 60.8,67.4 60.3,66.2 Z" id="Path" fill="#B68260" fill-rule="nonzero"></path>
            <g id="Group" transform="translate(41.900000, 42.355743)" fill-rule="nonzero">
                <path d="M0.7,1.64425709 C0.7,1.64425709 7.5,-1.05574291 14.1,1.44425709 L13.1,4.24425709 C13.1,4.24425709 5.4,1.04425709 0,3.44425709 L0.7,1.64425709 Z" id="Path" fill="#471C0E"></path>
                <path d="M43.6,0.544257092 C43.6,0.544257092 36.5,-1.35574291 30.2,1.94425709 L31.5,4.64425709 C31.5,4.64425709 38.7,0.544257092 44.4,2.34425709 L43.6,0.544257092 Z" id="Path" fill="#471C0E"></path>
                <g transform="translate(32.300000, 5.642317)" id="Path">
                    <path d="M-1.13686838e-13,3.70193962 C-1.13686838e-13,3.90193962 0.6,5.70193962 1.6,6.50193962 C4,8.20193962 8.3,8.70193962 10.1,3.70193962 C10.1,3.70193962 8.8,-0.0980603812 4.7,0.00193961882 C0.7,0.00193961882 0.5,1.20193962 -1.13686838e-13,3.70193962 Z" fill="#EEEFED"></path>
                    <g transform="translate(2.000000, 1.201940)">
                        <path d="M0,2.7 C0,1.2 1.2,0 2.7,0 C4.2,0 5.4,1.2 5.4,2.7 C5.4,4.2 4.2,5.4 2.7,5.4 C1.2,5.3 0,4.1 0,2.7 Z" fill="#89492F"></path>
                        <path d="M1.1,2.7 C1.1,1.8 1.8,1.1 2.7,1.1 C3.6,1.1 4.3,1.8 4.3,2.7 C4.3,3.6 3.6,4.3 2.7,4.3 C1.8,4.2 1.1,3.5 1.1,2.7 Z" fill="#231F20"></path>
                        <path d="M3,2.5 C3,2.2 3.2,2 3.5,2 C3.8,2 4,2.2 4,2.5 C4,2.8 3.8,3 3.5,3 C3.2,2.9 3,2.7 3,2.5 Z" fill="#FFFFFF"></path>
                        <path d="M2.6,2 C2.6,1.9 2.7,1.7 2.9,1.7 C3,1.7 3.2,1.8 3.2,2 C3.2,2.1 3.1,2.3 2.9,2.3 C2.7,2.2 2.6,2.1 2.6,2 Z" fill="#FFFFFF"></path>
                    </g>
                </g>
                <g transform="translate(2.200000, 5.642317)" id="Path">
                    <path d="M10.1,3.70193962 C10.1,3.90193962 9.5,5.70193962 8.5,6.50193962 C6.1,8.20193962 1.8,8.70193962 0,3.70193962 C0,3.70193962 1.3,-0.0980603812 5.4,0.00193961882 C9.5,0.00193961882 9.7,1.20193962 10.1,3.70193962 Z" fill="#EEEFED"></path>
                    <g transform="translate(3.000000, 1.201940)">
                        <path d="M0,2.7 C0,1.2 1.2,0 2.7,0 C4.2,0 5.4,1.2 5.4,2.7 C5.4,4.2 4.2,5.4 2.7,5.4 C1.2,5.3 0,4.1 0,2.7 Z" fill="#89492F"></path>
                        <path d="M1.1,2.7 C1.1,1.8 1.8,1.1 2.7,1.1 C3.6,1.1 4.3,1.8 4.3,2.7 C4.3,3.6 3.6,4.3 2.7,4.3 C1.8,4.2 1.1,3.5 1.1,2.7 Z" fill="#231F20"></path>
                        <path d="M3,2.5 C3,2.2 3.2,2 3.5,2 C3.8,2 4,2.2 4,2.5 C4,2.8 3.8,3 3.5,3 C3.2,2.9 3,2.7 3,2.5 Z" fill="#FFFFFF"></path>
                        <path d="M2.5,2 C2.5,1.9 2.6,1.7 2.8,1.7 C2.9,1.7 3.1,1.8 3.1,2 C3.1,2.1 3,2.3 2.8,2.3 C2.6,2.2 2.5,2.1 2.5,2 Z" fill="#FFFFFF"></path>
                    </g>
                </g>
            </g>
            <path d="M56.5,73.3 L72,73.3 C72,73.3 65.3,84.8 56.5,73.3 Z" id="Path" fill="#471C0E" fill-rule="nonzero"></path>
            <polygon id="Path" fill="#02231E" points="49.6 92.6 49.6 98.8 55.6 150.3 45.3 150.3 34 127.3 44.8 120.2 31.7 114 43.8 95.2"></polygon>
            <polygon id="Path" fill="#02231E" points="78.1 92.6 78.1 98.8 72 150.3 82.3 150.3 93.6 127.3 82.8 120.2 96 114 85.2 95.8"></polygon>
            <path d="M79.7,44.5 C72.3,44.5 68.6,46.5 64.6,46.5 C60.6,46.5 56.9,44.5 49.5,44.5 C43.3,44.5 37.6,46.7 37.6,46.7 L37.6,49.8 C38,49.8 38.6,49.9 38.7,51 C39.4,59.7 41.5,64.3 48.8,64.3 C56.5,64.3 59.5,60.6 60.9,56.3 L60.9,56.3 C62,53.2 63.3,51 64.5,51 C65.8,51 67,53.2 68.1,56.3 L68.1,56.3 C69.5,60.7 72.5,64.3 80.2,64.3 C87.5,64.3 89.5,59.7 90.3,51 C90.4,49.9 91,49.8 91.4,49.8 L91.4,46.7 C91.6,46.7 85.9,44.5 79.7,44.5 Z M49.4,63.2 C42.7,63.2 40.6,58.5 40.3,52.2 C40.1,47.8 44.7,46.1 50,46.1 C55.4,46.1 60.3,47.2 60.3,51.7 C60.4,56.8 57.4,63.2 49.4,63.2 Z M89,52.1 C88.7,58.4 86.6,63.1 79.9,63.1 C71.9,63.1 68.9,56.7 68.9,51.6 C68.9,47.1 73.9,46 79.2,46 C84.6,46 89.2,47.8 89,52.1 Z" id="Shape" fill="#231F20" fill-rule="nonzero"></path>
        </g>
    </g>
</svg>