<?xml version="1.0" encoding="UTF-8"?><svg width="100" height="100" xmlns="http://www.w3.org/2000/svg"><path d="M49.809 100h.045-.045zm.353 0h-.016.045-.03zm-.506-.001h.048-.047zm.667 0h-.027.048-.02zm-.814-.001h.032-.032zm.976 0h-.026.032-.006zm.16-.002h-.01.043-.032zm-1.323 0h.043H49.322zm1.485-.002h-.026.053-.027zm-1.641 0h.053-.053zm1.802-.003h-.036.05-.014zm-1.95 0h.05H49.018zm-.183-.004h.044-.044zm2.294 0h-.008.044-.036zm-2.455-.004l.06.001h-.024l-.036-.001zm2.616 0l-.025.001.06-.001h-.035zm.16-.004l-.039.001.062-.001h-.023zm-2.923 0l.062.001h-.04l-.022-.001zm-.14-.005l.043.002-.04-.002h-.039.036zm3.224 0l-.041.002.043-.002h.036-.038zm.16-.005h-.022l.068-.001-.046.001zm-3.588-.001l.068.002h-.022l-.046-.002zm-.146-.006l.07.003-.039-.002h-.031zm3.895.001l-.04.002.071-.003-.031.001zm-4.039-.007l.07.003-.055-.002h-.015zm4.199.001l-.054.002.069-.003-.015.001zm-4.4-.01l.074.004h-.018l-.056-.004zm4.56.003h-.018l.074-.003-.056.003zm-4.704-.01l.077.004-.037-.001-.04-.002zm4.864.003l-.037.001.077-.003-.04.002zm-5.006-.01l.077.004-.054-.002-.023-.001zm5.165.002l-.054.002.077-.003-.023.001zm.16-.008l-.07.003.062-.003.074-.004-.066.004zm-5.454 0l.063.003-.071-.003-.066-.004.074.004zm5.613-.01l-.03.002.078-.004-.048.003zm-5.828-.002l.079.004-.031-.001-.048-.003zm-.141-.009l.079.005-.05-.003-.03-.002zm6.129.002l-.05.003.08-.005-.03.002zm-6.264-.01l.071.005-.066-.005-.067-.004.062.004zm6.423 0l-.066.005.071-.005.062-.004-.067.004zm.16-.01l-.025.002.076-.005-.052.003zm-6.789-.003l.076.005-.024-.002-.052-.003zm-.14-.01l.073.005-.04-.003-.034-.002zm7.087.002l-.04.003.074-.005-.034.002zm-7.228-.012l.068.005-.053-.004-.015-.001zm7.387.001l-.053.004.068-.005-.015.001zm-7.576-.015l.06.004h-.015l-.045-.004zm7.735.003l-.015.001.06-.004-.045.003zm.158-.012l-.028.002.06-.005-.032.003zm-8.038-.003l.06.005-.028-.002-.032-.003zm-.142-.011l.052.004-.037-.003-.015-.001zm8.339 0l-.037.004.052-.004h-.015zm.316-.026h-.014l.035-.002-.02.002zm-8.977-.002l.035.003-.014-.001-.021-.002zm-.147-.013l.026.002-.016-.002h-.01zm9.282 0l-.016.002.026-.002h-.01zm-12.449-.395C18.297 95.637 0 74.938 0 50 0 22.404 22.404 0 50 0s50 22.404 50 50c0 24.938-18.297 45.637-42.188 49.392V64.453h11.65L71.68 50H57.812v-9.38c0-3.953 1.938-7.807 8.149-7.807h6.305V20.508s-5.722-.977-11.193-.977c-11.42 0-18.886 6.922-18.886 19.453V50H29.492v14.453h12.695v34.939z" fill="#1877F2" fill-rule="evenodd"/></svg>