<?xml version="1.0" encoding="UTF-8"?>
<svg width="500px" height="116px" viewBox="0 0 500 116" version="1.1" xmlns="http://www.w3.org/2000/svg" xmlns:xlink="http://www.w3.org/1999/xlink">
    <title>logo-thespec</title>
    <g id="Page-1" stroke="none" stroke-width="1" fill="none" fill-rule="evenodd">
        <g id="logo-thespec" fill-rule="nonzero">
            <polygon id="Path" fill="#007BC3" points="240.445186 0 353.594304 0 353.594304 115.134191 240.445186 115.134191"></polygon>
            <path d="M18.5935101,115.173892 L18.5935101,113.18882 L19.5926632,113.036631 C21.1277857,112.805039 21.7431581,112.116881 21.7431581,109.662008 L21.7431581,87.3431793 L12.0692393,87.3431793 L12.0692393,109.681859 C12.0692393,112.136732 12.6846117,112.82489 14.2197343,113.056482 L15.2188873,113.208671 L15.2188873,115.193743 L-1.64555845e-14,115.193743 L-1.64555845e-14,113.208671 L0.999153036,113.056482 C2.53427558,112.82489 3.14964798,112.136732 3.14964798,109.681859 L3.14964798,63.8994759 C3.14964798,61.4446033 2.53427558,60.7564449 0.999153036,60.5248531 L-1.64555845e-14,60.3726642 L-1.64555845e-14,58.387592 L15.2188873,58.387592 L15.2188873,60.3726642 L14.2197343,60.5248531 C12.6846117,60.7564449 12.0692393,61.4446033 12.0692393,63.8994759 L12.0692393,84.2398497 L21.7431581,84.2398497 L21.7431581,63.8994759 C21.7431581,61.4446033 21.1277857,60.7564449 19.5926632,60.5248531 L18.5935101,60.3726642 L18.5935101,58.387592 L33.8123974,58.387592 L33.8123974,60.3726642 L32.8132444,60.5248531 C31.2781219,60.7564449 30.6627495,61.4446033 30.6627495,63.8994759 L30.6627495,109.648775 C30.6627495,112.103647 31.2781219,112.791806 32.8132444,113.023397 L33.8123974,113.175586 L33.8123974,115.160659 L18.5935101,115.173892 Z" id="Path" fill="#000014"></path>
            <path d="M52.0419777,115.173892 L52.0419777,113.281457 L52.7698375,113.063099 C54.3711291,112.553597 54.953417,111.461807 54.4439151,109.205442 L52.2603356,99.9417712 L42.2555714,99.9417712 L40.3631359,108.821661 C39.92642,110.859669 40.1447779,112.791806 42.5467154,113.116034 L43.6385051,113.261606 L43.6385051,115.154042 L33.5146366,115.154042 L33.5146366,113.281457 L34.5336404,112.990313 C36.2099236,112.483017 37.3127415,111.100083 37.8420941,108.841512 L48.0718331,61.3122651 L51.4199884,61.3122651 L62.9201736,110.277381 C63.2841035,111.951458 64.0119634,112.82489 65.394897,113.116034 L66.0565878,113.261606 L66.0565878,115.154042 L52.0419777,115.173892 Z M47.0925308,77.9074692 L42.8709438,97.3413266 L51.6449632,97.3413266 L47.0925308,77.9074692 Z" id="Shape" fill="#000014"></path>
            <path d="M88.7856651,115.173892 L88.7856651,113.281457 L89.7583505,113.149119 C91.5780001,112.857975 92.5242179,111.911757 92.5242179,109.582605 L92.5242179,65.3154942 C92.5242179,64.8787783 92.014716,64.9515642 91.94193,65.3154942 L82.8436822,115.173892 L80.8056747,115.173892 L72.3625007,65.3154942 C72.2897147,64.8787783 71.7802128,64.8787783 71.7802128,65.3154942 L71.7802128,108.550368 C71.7802128,110.879519 72.9447885,112.520512 75.055582,113.063099 L76.0017998,113.281457 L76.0017998,115.173892 L65.8580806,115.173892 L65.8580806,113.281457 L66.8042983,113.063099 C68.5511619,112.626383 69.5701657,110.879519 69.5701657,108.550368 L69.5701657,67.8630035 C69.5701657,64.5545498 69.1334498,63.5686306 67.1682283,63.3502726 L65.8448468,63.2047007 L65.8448468,61.3122651 L79.9653274,61.3122651 L85.0603462,90.4994442 L90.3538722,61.3122651 L104.249378,61.3122651 L104.249378,63.2047007 L103.30316,63.2774866 C101.847441,63.4230586 100.901223,64.2237044 100.901223,66.5859404 L100.901223,109.595839 C100.901223,111.924991 101.483511,112.871209 103.30316,113.162352 L104.249378,113.307924 L104.249378,115.20036 L88.7856651,115.173892 Z M105.771267,115.173892 L105.771267,113.281457 L106.717485,113.135885 C108.173204,112.917527 108.755492,112.262453 108.755492,109.933302 L108.755492,66.5528559 C108.755492,64.2237044 108.173204,63.5686306 106.717485,63.3502726 L105.771267,63.2047007 L105.771267,61.3122651 L120.196125,61.3122651 L120.196125,63.2047007 L119.249907,63.3502726 C117.794188,63.5686306 117.2119,64.2237044 117.2119,66.5528559 L117.2119,109.933302 C117.2119,112.262453 117.794188,112.917527 119.249907,113.135885 L120.196125,113.281457 L120.196125,115.173892 L105.771267,115.173892 Z M146.405696,115.173892 L121.87682,115.173892 L121.87682,113.281457 L122.842888,113.149119 C124.298608,112.930761 124.880896,112.275687 124.880896,109.946535 L124.880896,66.5528559 C124.880896,64.2237044 124.298608,63.5686306 122.842888,63.3502726 L121.89667,63.2047007 L121.89667,61.3122651 L137.036155,61.3122651 L137.036155,63.2047007 L136.089937,63.3502726 C134.415859,63.6414165 133.32407,64.2237044 133.32407,66.5528559 L133.32407,111.680165 C133.32407,112.699169 133.542428,113.281457 134.561431,113.281457 C138.710232,113.281457 143.659679,106.664549 144.969827,98.7242602 L146.789476,98.7970462 L146.405696,115.173892 Z" id="Shape" fill="#000014"></path>
            <path d="M169.862633,79.0720449 C167.824625,69.1003653 165.349902,63.5686306 162.365677,63.5686306 C161.565031,63.5686306 161.419459,63.6414165 161.419459,63.9325605 L161.419459,109.933302 C161.419459,112.262453 162.656821,113.063099 164.403684,113.241755 L165.349902,113.314541 L165.349902,115.206977 L149.045842,115.206977 L149.045842,113.281457 L149.99206,113.208671 C151.666137,113.063099 152.976285,112.262453 152.976285,109.900217 L152.976285,63.9325605 C152.976285,63.6414165 152.830713,63.5686306 152.030067,63.5686306 C149.045842,63.5686306 146.571119,69.1003653 144.533111,79.0720449 L142.859033,79.0720449 L143.295749,61.3122651 L171.086761,61.3122651 L171.523477,79.0720449 L169.862633,79.0720449 Z M191.863851,114.373247 C188.932247,116.41162 185.042132,116.41162 182.110529,114.373247 C177.478694,111.316235 172.185168,103.673707 172.185168,88.2430787 C172.185168,72.8124504 177.425758,65.1699222 182.110529,62.1129109 C185.042132,60.0745372 188.932247,60.0745372 191.863851,62.1129109 C196.495686,65.1699222 201.789212,72.8124504 201.789212,88.2430787 C201.789212,103.673707 196.522153,111.316235 191.863851,114.373247 L191.863851,114.373247 Z M190.772061,65.4610661 C189.825843,63.2047007 188.442909,62.1526124 186.98719,62.1526124 C185.53147,62.1526124 184.221322,63.1716161 183.202319,65.4610661 C181.601027,69.3187232 180.800381,76.6701075 180.800381,88.2430787 C180.800381,99.81605 181.601027,107.167434 183.202319,111.025091 C184.221322,113.281457 185.53147,114.333545 186.98719,114.333545 C188.442909,114.333545 189.825843,113.314541 190.772061,111.025091 C192.373352,107.167434 193.173998,99.81605 193.173998,88.2430787 C193.173998,76.6701075 192.373352,69.3187232 190.772061,65.4610661 Z" id="Shape" fill="#000014"></path>
            <path d="M231.121963,63.2774866 C229.447885,63.4230586 228.210524,64.9515642 228.210524,68.2997194 L228.210524,115.537822 L225.881372,115.537822 L207.095972,71.2839447 L207.095972,108.186438 C207.095972,111.316235 208.048806,112.771955 210.404425,113.135885 L211.344026,113.281457 L211.344026,115.173892 L200.690805,115.173892 L200.690805,113.281457 L201.637023,113.135885 C203.622095,112.844741 204.945477,111.316235 204.945477,108.186438 L204.945477,69.6826531 C204.945477,66.1889259 203.926473,64.1509184 202.02742,63.4230586 L201.226775,63.1319147 L201.226775,61.3122651 L211.344026,61.3122651 L226.053412,95.8128209 L226.053412,68.2997194 C226.053412,64.9515642 224.45212,63.7142025 222.341327,63.3502726 L221.395109,63.2047007 L221.395109,61.3122651 L232.094648,61.3122651 L232.094648,63.2047007 L231.121963,63.2774866 Z" id="Path" fill="#000014"></path>
            <path d="M262.413319,112.335239 C260.26944,114.637923 257.966757,115.941454 254.896512,115.941454 C252.514425,115.941454 250.747711,114.942301 248.676618,113.559367 C247.836271,113.023397 247.525277,112.487428 246.526124,112.487428 C245.685776,112.487428 244.60722,113.559367 242.847123,115.630459 L240.312847,115.630459 L240.312847,97.2685406 L242.847123,97.2685406 C245.990154,107.246837 249.748558,113.539516 255.0487,113.539516 C256.56651,113.496659 258.01529,112.895946 259.118099,111.852205 C260.342226,110.62146 260.878196,109.245143 260.878196,106.710868 C260.878196,101.56953 257.503573,96.1966016 249.980149,89.440739 C244.382246,84.3721878 240.465036,79.8462231 240.465036,71.4030491 C240.465036,64.1906199 244.382246,57.5869462 251.210894,57.5869462 C252.991357,57.6527774 254.718568,58.2117158 256.200042,59.2014716 C256.735505,59.728325 257.436992,60.0533473 258.185115,60.1212217 C258.800487,60.1212217 259.508496,59.5058493 261.030385,57.739135 L263.253666,57.739135 L263.253666,75.3202583 L260.871579,75.3202583 C260.104018,69.8679265 256.729395,59.7374411 250.820497,59.7374411 C249.285374,59.7374411 248.213435,60.3528135 246.98269,61.7225134 C245.806388,63.2900097 245.210074,65.2169242 245.295379,67.1748452 C245.295379,72.0845905 250.588905,77.1531417 255.346461,81.2225398 C262.565507,87.36303 265.933613,93.0403367 265.933613,100.795352 C265.946747,105.499974 264.643216,109.953152 262.413319,112.335239 L262.413319,112.335239 Z M289.972738,87.7335768 C287.484781,89.1165105 284.487322,89.7715844 280.31867,89.7715844 L278.783548,89.7715844 L278.783548,109.933302 C278.783548,112.262453 279.809168,112.844741 281.489863,113.135885 L282.442698,113.281457 L282.442698,115.173892 L267.296596,115.173892 L267.296596,113.281457 L268.249431,113.135885 C269.711768,112.917527 270.294055,112.262453 270.294055,109.933302 L270.294055,66.5528559 C270.294055,64.2237044 269.711768,63.5686306 268.249431,63.3502726 L267.296596,63.2047007 L267.296596,61.3122651 L282.310359,61.3122651 C291.236568,61.3122651 296.867556,66.9167858 296.867556,75.3599598 C296.867556,81.2556244 294.359748,85.358107 289.972738,87.7335768 Z M285.804087,65.0243502 C284.778466,63.6414165 282.952199,63.2047007 281.04653,63.2047007 C280.100312,63.2047007 278.783548,63.4230586 278.783548,64.4420624 L278.783548,87.8791488 L280.325287,87.8791488 C283.633741,87.8791488 284.957122,86.7873591 286.101847,85.2323858 C287.934731,82.8304484 288.007517,78.6816473 288.007517,75.3070245 C288.0009,71.0655868 287.557567,67.2079297 285.804087,65.0243502 Z M325.035731,115.173892 L297.24472,115.173892 L297.24472,113.281457 L298.190937,113.149119 C299.653274,112.930761 300.242179,112.275687 300.242179,109.946535 L300.242179,66.5528559 C300.242179,64.2237044 299.653274,63.5686306 298.190937,63.3502726 L297.238103,63.2047007 L297.238103,61.3122651 L325.029114,61.3122651 L325.399661,76.2333916 L323.414589,76.3061775 C321.369965,68.8092213 319.027579,63.2047007 311.418136,63.2047007 C309.883013,63.2047007 308.71182,63.9325605 308.71182,66.2617119 L308.71182,86.4962151 L309.43968,86.4962151 C311.848235,86.4962151 314.779525,83.9487057 315.507384,80.3094066 L316.169075,77.0009528 L318.286486,77.0009528 L318.286486,99.0551056 L316.169075,99.0551056 L315.216241,94.8335186 C314.336192,90.8302896 312.000423,88.3555661 309.43968,88.3555661 L308.705204,88.3555661 L308.705204,110.370017 C308.705204,112.408025 310.028585,113.281457 311.927637,113.281457 C317.340268,113.281457 320.847229,108.914298 322.51469,103.528135 L323.838071,99.3065481 L325.889312,99.4521201 L325.035731,115.173892 Z M347.738341,114.518818 C346.260841,115.412036 344.561489,115.870701 342.835213,115.8422 C339.473824,115.8422 335.88746,113.949764 333.472288,110.892753 C330.402043,106.96231 327.47737,99.6440104 327.47737,88.2563125 C327.47737,72.8256842 332.770896,64.8920121 337.131438,62.1261447 C338.583471,61.1529148 340.286716,60.6219438 342.034567,60.5976391 C343.715941,60.5453785 345.373281,61.0070331 346.785506,61.9210206 C347.342834,62.2550954 347.970442,62.4544799 348.61839,62.5033085 C349.200678,62.5033085 350.00794,61.9938066 351.09973,60.6108729 L352.714255,60.6108729 L353.296543,76.987719 L351.179133,77.206077 L348.175057,68.9084749 C346.71272,64.8324599 345.528294,62.3577365 342.835213,62.3577365 C341.372876,62.3577365 339.983325,63.3039543 339.103277,65.4875337 C337.568154,69.3451908 336.767508,76.6965751 336.767508,88.2695463 C336.767508,99.8425176 337.865915,107.193902 339.692181,111.051559 C340.469879,112.657202 342.077434,113.695734 343.860833,113.74464 C347.301625,113.74464 352.343709,110.436187 351.979779,99.5513737 L353.772961,99.5513737 C353.812662,108.550368 351.397491,112.335239 347.738341,114.518818 L347.738341,114.518818 Z" id="Shape" fill="#FFFFFF"></path>
            <path d="M382.225663,79.0720449 C380.187655,69.1003653 377.712932,63.5686306 374.728707,63.5686306 C373.928061,63.5686306 373.782489,63.6414165 373.782489,63.9325605 L373.782489,109.933302 C373.782489,112.262453 375.019851,113.063099 376.766714,113.241755 L377.712932,113.314541 L377.712932,115.206977 L361.402255,115.206977 L361.402255,113.281457 L362.348473,113.208671 C364.02255,113.063099 365.332698,112.262453 365.332698,109.900217 L365.332698,63.9325605 C365.332698,63.6414165 365.187126,63.5686306 364.38648,63.5686306 C361.402255,63.5686306 358.927532,69.1003653 356.889524,79.0720449 L355.215447,79.0720449 L355.652162,61.3122651 L383.443174,61.3122651 L383.87989,79.0720449 L382.225663,79.0720449 Z M398.271664,115.173892 L398.271664,113.281457 L398.992907,113.063099 C400.594198,112.553597 401.183103,111.461807 400.673601,109.205442 L398.490022,99.9417712 L388.511725,99.9417712 L386.61929,108.821661 C386.189191,110.859669 386.407549,112.791806 388.809486,113.116034 L389.894659,113.261606 L389.894659,115.154042 L379.777407,115.154042 L379.777407,113.281457 L380.796411,112.990313 C382.477105,112.483017 383.568895,111.100083 384.07178,108.841512 L394.334604,61.3122651 L397.689376,61.3122651 L409.189561,110.277381 C409.546874,111.951458 410.281351,112.82489 411.664285,113.116034 L412.325975,113.261606 L412.325975,115.154042 L398.271664,115.173892 Z M393.3156,77.9074692 L389.094013,97.3413266 L397.907734,97.3413266 L393.3156,77.9074692 Z M435.511619,79.0720449 C433.473612,69.1003653 430.998888,63.5686306 428.014663,63.5686306 C427.214017,63.5686306 427.068445,63.6414165 427.068445,63.9325605 L427.068445,109.933302 C427.068445,112.262453 428.305807,113.063099 430.052671,113.241755 L430.998888,113.314541 L430.998888,115.206977 L414.694828,115.206977 L414.694828,113.281457 L415.641046,113.208671 C417.315124,113.063099 418.625271,112.262453 418.625271,109.900217 L418.625271,63.9325605 C418.625271,63.6414165 418.479699,63.5686306 417.679054,63.5686306 C414.694828,63.5686306 412.220105,69.1003653 410.182097,79.0720449 L408.50802,79.0720449 L408.944736,61.3122651 L436.735747,61.3122651 L437.172463,79.0720449 L435.511619,79.0720449 Z M457.526071,114.373247 C454.594467,116.41162 450.704352,116.41162 447.772749,114.373247 C443.140914,111.316235 437.847388,103.673707 437.847388,88.2430787 C437.847388,72.8124504 443.087978,65.1699222 447.772749,62.1129109 C450.704352,60.0745372 454.594467,60.0745372 457.526071,62.1129109 C462.157906,65.1699222 467.451432,72.8124504 467.451432,88.2430787 C467.451432,103.673707 462.184374,111.316235 457.526071,114.373247 L457.526071,114.373247 Z M456.434281,65.4610661 C455.488063,63.2047007 454.105129,62.1526124 452.64941,62.1526124 C451.19369,62.1526124 449.883542,63.1716161 448.864539,65.4610661 C447.263247,69.3187232 446.462601,76.6701075 446.462601,88.2430787 C446.462601,99.81605 447.263247,107.167434 448.864539,111.025091 C449.883542,113.281457 451.19369,114.333545 452.64941,114.333545 C454.105129,114.333545 455.488063,113.314541 456.434281,111.025091 C458.035572,107.167434 458.836218,99.81605 458.836218,88.2430787 C458.836218,76.6701075 458.035572,69.3187232 456.434281,65.4610661 Z M493.819808,115.610608 C488.870362,115.610608 486.977926,111.825737 486.54121,107.458578 C486.104494,103.309777 486.104494,98.7970462 485.958922,94.6482452 C485.81335,91.081732 484.867132,86.860145 480.354402,86.860145 L479.03102,86.860145 L479.03102,109.933302 C479.03102,112.262453 479.904452,112.844741 481.724101,113.135885 L482.670319,113.281457 L482.670319,115.173892 L467.616855,115.173892 L467.616855,113.281457 L468.563072,113.135885 C470.018792,112.917527 470.60108,112.262453 470.60108,109.933302 L470.60108,66.5528559 C470.60108,64.2237044 470.018792,63.5686306 468.563072,63.3502726 L467.616855,63.2047007 L467.616855,61.3122651 L482.246837,61.3122651 C491.345085,61.3122651 496.294532,66.6984278 496.294532,74.340956 C496.294532,80.2366206 493.019163,82.638558 489.234291,84.6037796 C487.653394,85.3143057 485.991095,85.8276626 484.284845,86.1322852 C487.196284,87.151289 489.088719,88.1702927 490.901752,90.0627283 C493.885977,93.1925255 494.541051,97.9236144 494.686623,102.873061 C494.904981,110.224446 495.123339,112.408025 496.433487,112.408025 C497.598063,112.408025 498.471494,109.278228 498.54428,106.585146 L500,106.730718 C499.933831,110.078874 498.842041,115.610608 493.819808,115.610608 L493.819808,115.610608 Z M485.958922,65.0243502 C484.939918,63.6414165 483.193055,63.2047007 481.327087,63.2047007 C480.380869,63.2047007 479.070722,63.3502726 479.070722,64.5280822 L479.070722,84.9809433 L480.394103,84.9809433 C482.723254,84.9809433 484.761262,84.4714414 485.925838,83.0885078 C487.91091,80.7593563 487.963845,77.702345 487.963845,74.3541898 C487.924144,70.046583 487.705786,67.2079297 485.958922,65.0243502 L485.958922,65.0243502 Z" id="Shape" fill="#000014"></path>
            <path d="M282.072151,30.5701128 C280.656133,23.7216135 278.942354,19.9235085 276.871261,19.9235085 C276.315441,19.9235085 276.209571,19.9764438 276.209571,20.174951 L276.209571,51.7508337 C276.209571,53.3455084 277.069769,53.8947118 278.280663,54.0005823 L278.942354,54.0469006 L278.942354,55.3702821 L267.640675,55.3702821 L267.640675,54.0469006 L268.302366,54.0005823 C268.89286,54.0315953 269.46644,53.7977479 269.866928,53.3627135 C270.267415,52.9276792 270.453113,52.3367521 270.373458,51.7508337 L270.373458,20.174951 C270.373458,19.9764438 270.267588,19.9235085 269.711768,19.9235085 C267.640675,19.9235085 265.926896,23.7216135 264.510878,30.5701128 L263.352919,30.5701128 L263.65068,18.3751522 L282.925732,18.3751522 L283.23011,30.5701128 L282.072151,30.5701128 Z M295.888254,55.3438145 L295.888254,54.1395373 L296.497009,54.0469006 C297.429993,53.9079456 297.820391,53.4910804 297.820391,52.0088931 L297.820391,38.5302525 L291.924726,38.5302525 L291.924726,52.0088931 C291.924726,53.4910804 292.30189,53.9079456 293.248108,54.0469006 L293.856863,54.1395373 L293.856863,55.3438145 L284.593193,55.3438145 L284.593193,54.1395373 L285.201948,54.0469006 C286.141549,53.9079456 286.52533,53.4910804 286.52533,52.0088931 L286.52533,24.4031549 C286.52533,22.9209677 286.154783,22.5041025 285.201948,22.3651474 L284.593193,22.2725107 L284.593193,21.0682336 L293.856863,21.0682336 L293.856863,22.2725107 L293.248108,22.3651474 C292.315124,22.5041025 291.924726,22.9209677 291.924726,24.4031549 L291.924726,36.6775184 L297.820391,36.6775184 L297.820391,24.4031549 C297.820391,22.9209677 297.443227,22.5041025 296.497009,22.3651474 L295.888254,22.2725107 L295.888254,21.0682336 L305.151924,21.0682336 L305.151924,22.2725107 L304.543169,22.3651474 C303.610185,22.5041025 303.219787,22.9209677 303.219787,24.4031549 L303.219787,52.0088931 C303.219787,53.4910804 303.596951,53.9079456 304.543169,54.0469006 L305.151924,54.1395373 L305.151924,55.3438145 L295.888254,55.3438145 Z M324.943095,55.3438145 L307.170081,55.3438145 L307.170081,54.1395373 L307.77222,54.0469006 C308.71182,53.9079456 309.095601,53.4910804 309.095601,52.0088931 L309.095601,24.4031549 C309.095601,22.9209677 308.725054,22.5041025 307.77222,22.3651474 L307.170081,22.2725107 L307.170081,21.0682336 L324.943095,21.0682336 L325.174686,30.5634958 L323.917474,30.6098142 C322.594092,25.8390239 321.105288,22.2725107 316.241861,22.2725107 C315.262559,22.2725107 314.514848,22.7356942 314.514848,24.2178815 L314.514848,37.0943836 L314.978032,37.0943836 C316.526388,37.0943836 318.392356,35.4732412 318.862157,33.1242391 L319.285639,31.0399132 L320.642105,31.0399132 L320.642105,45.1074586 L319.285639,45.1074586 L318.703351,42.4209941 C318.140914,39.8734847 316.645493,38.2986607 315.004499,38.2986607 L314.541316,38.2986607 L314.541316,52.2735694 C314.541316,53.5969509 315.381663,54.1263035 316.599174,54.1263035 C320.059817,54.1263035 322.302948,51.3472024 323.381504,47.9196443 L324.221852,45.2331798 L325.545233,45.3258165 L324.943095,55.3438145 Z" id="Shape" fill="#FFFFFF"></path>
        </g>
    </g>
</svg>