<?xml version="1.0" encoding="UTF-8"?><svg width="100" height="100" xmlns="http://www.w3.org/2000/svg"><path d="M50 0c27.596 0 50 22.404 50 50s-22.404 50-50 50S0 77.596 0 50 22.404 0 50 0zm0 18.75c-8.487 0-9.551.036-12.884.188-3.327.152-5.598.68-7.586 1.453-2.055.798-3.798 1.867-5.535 3.604s-2.806 3.48-3.605 5.535c-.772 1.988-1.3 4.26-1.452 7.586-.152 3.333-.188 4.397-.188 12.884s.036 9.551.188 12.884c.152 3.327.68 5.598 1.452 7.586.8 2.055 1.868 3.798 3.605 5.535 1.737 1.737 3.48 2.806 5.535 3.605 1.988.772 4.26 1.3 7.586 1.452 3.333.152 4.397.188 12.884.188s9.551-.036 12.884-.188c3.327-.152 5.598-.68 7.586-1.452 2.055-.8 3.798-1.868 5.535-3.605 1.737-1.737 2.806-3.48 3.605-5.535.772-1.988 1.3-4.26 1.452-7.586.152-3.333.188-4.397.188-12.884s-.036-9.551-.188-12.884c-.152-3.327-.68-5.598-1.452-7.586-.8-2.055-1.868-3.798-3.605-5.535-1.737-1.737-3.48-2.806-5.535-3.604-1.988-.773-4.26-1.301-7.586-1.453-3.333-.152-4.397-.188-12.884-.188zm0 5.63c8.344 0 9.332.033 12.628.183 3.047.139 4.701.648 5.802 1.076 1.46.567 2.5 1.244 3.593 2.338 1.094 1.093 1.771 2.134 2.338 3.593.428 1.1.937 2.755 1.076 5.802.15 3.296.182 4.284.182 12.628 0 8.344-.031 9.332-.182 12.628-.139 3.047-.648 4.701-1.076 5.802-.567 1.46-1.244 2.5-2.338 3.593-1.093 1.094-2.134 1.771-3.593 2.338-1.1.428-2.755.937-5.802 1.076-3.295.15-4.283.182-12.628.182-8.345 0-9.333-.031-12.628-.182-3.047-.139-4.701-.648-5.802-1.076-1.46-.567-2.5-1.244-3.594-2.338-1.093-1.093-1.77-2.134-2.337-3.593-.428-1.1-.937-2.755-1.076-5.802-.15-3.296-.182-4.284-.182-12.628 0-8.344.031-9.332.182-12.628.139-3.047.648-4.701 1.076-5.802.567-1.459 1.244-2.5 2.337-3.593 1.094-1.094 2.135-1.771 3.594-2.338 1.1-.428 2.755-.937 5.802-1.076 3.296-.15 4.284-.182 12.628-.182zm0 9.573c-8.863 0-16.047 7.184-16.047 16.047S41.137 66.047 50 66.047 66.047 58.863 66.047 50 58.863 33.953 50 33.953zm0 26.464c-5.753 0-10.417-4.664-10.417-10.417S44.247 39.583 50 39.583 60.417 44.247 60.417 50 55.753 60.417 50 60.417zm20.431-27.098a3.75 3.75 0 11-7.5 0 3.75 3.75 0 017.5 0z" fill="#E4405F" fill-rule="evenodd"/></svg>