<?xml version="1.0" encoding="UTF-8"?><svg width="100" height="100" xmlns="http://www.w3.org/2000/svg"><path d="M50 0c27.596 0 50 22.404 50 50s-22.404 50-50 50S0 77.596 0 50 22.404 0 50 0zM34.368 78.1V39.053H21.387V78.1h12.98zm46.8 0V55.708c0-11.994-6.403-17.573-14.943-17.573-6.885 0-9.97 3.786-11.697 6.446v-5.528H41.55c.172 3.663 0 39.047 0 39.047h12.978V56.293c0-1.167.084-2.334.428-3.168.937-2.331 3.074-4.746 6.66-4.746 4.693 0 6.574 3.582 6.574 8.829V78.1h12.979zM27.966 20.225c-4.442 0-7.343 2.92-7.343 6.747 0 3.746 2.813 6.747 7.171 6.747h.084c4.526 0 7.344-3 7.344-6.747-.084-3.827-2.818-6.747-7.256-6.747z" fill="#0077B5" fill-rule="evenodd"/></svg>