<?xml version="1.0" encoding="UTF-8"?>
<svg width="574px" height="487px" viewBox="0 0 574 487" version="1.1" xmlns="http://www.w3.org/2000/svg" xmlns:xlink="http://www.w3.org/1999/xlink">
    <title>swBanner Art</title>
    <defs>
        <polygon id="path-1" points="0 0 59.9035447 0 59.9035447 23.3017799 0 23.3017799"></polygon>
        <polygon id="path-3" points="5.58562527e-15 0 35.5542774 0 35.5542774 19.918769 5.58562527e-15 19.918769"></polygon>
        <polygon id="path-5" points="3.49101579e-16 0 8.67187057 0 8.67187057 18.7137457 3.49101579e-16 18.7137457"></polygon>
        <polygon id="path-7" points="-2.48112967e-15 0 8.76967319 0 8.76967319 14.5686105 -2.48112967e-15 14.5686105"></polygon>
        <polygon id="path-9" points="3.48799395e-15 0 23.5294118 0 23.5294118 50.9803922 3.48799395e-15 50.9803922"></polygon>
        <polygon id="path-11" points="3.45884074e-15 0 12.745098 0 12.745098 50.9803922 3.45884074e-15 50.9803922"></polygon>
        <polygon id="path-13" points="0 0 6.8627451 0 6.8627451 6.8627451 0 6.8627451"></polygon>
        <polygon id="path-15" points="0 0 6.8627451 0 6.8627451 6.8627451 0 6.8627451"></polygon>
        <polygon id="path-17" points="0 0 40 0 40 54.891994 0 54.891994"></polygon>
        <polygon id="path-19" points="0 0 20.7547489 0 20.7547489 54.8851318 0 54.8851318"></polygon>
        <polygon id="path-21" points="0 0 1.73916759 0 1.73916759 64.9785473 0 64.9785473"></polygon>
        <polygon id="path-23" points="0 0 4.50887209 0 4.50887209 14.7682053 0 14.7682053"></polygon>
        <polygon id="path-25" points="0 9.65552223e-15 3.04878049 9.65552223e-15 3.04878049 9.14634146 0 9.14634146"></polygon>
        <polygon id="path-27" points="-8.79948899e-16 0 23.7804878 0 23.7804878 19.5121951 -8.79948899e-16 19.5121951"></polygon>
        <polygon id="path-29" points="0 66.806627 7.99977959 66.806627 7.99977959 0 0 0"></polygon>
        <polygon id="path-31" points="0 0 40 0 40 48.4214002 0 48.4214002"></polygon>
    </defs>
    <g id="Page-1" stroke="none" stroke-width="1" fill="none" fill-rule="evenodd">
        <g id="swBanner-Art" transform="translate(-1.000000, -0.000000)">
            <g id="Play" transform="translate(238.000000, 194.000000)">
                <circle id="Oval" fill="#F601C2" cx="50" cy="50" r="50"></circle>
                <polygon id="Triangle" fill="#FFFFFF" transform="translate(55.000000, 50.000000) rotate(90.000000) translate(-55.000000, -50.000000) " points="55 35 70 65 40 65"></polygon>
            </g>
            <g id="screener" transform="translate(163.000000, 140.000000)">
                <path d="M5,0 L245,0 C247.761424,-1.39544373e-15 250,2.23857625 250,5 L250,157.587549 L250,157.587549 L0,157.587549 L0,5 C-3.38176876e-16,2.23857625 2.23857625,5.07265313e-16 5,0 Z" id="Rectangle" fill="#0F3954"></path>
                <path d="M5,157.587549 L245,157.587549 C247.761424,157.587549 250,159.826125 250,162.587549 L250,180.933852 L250,180.933852 L0,180.933852 L0,162.587549 C-3.38176876e-16,159.826125 2.23857625,157.587549 5,157.587549 Z" id="Rectangle-Copy-141" fill="#E4E4E4" transform="translate(125.000000, 169.260700) scale(1, -1) translate(-125.000000, -169.260700) "></path>
                <rect id="Rectangle" fill="#FFFFFF" x="11.6731518" y="10.7003891" width="227.626459" height="136.18677"></rect>
                <polygon id="Rectangle" fill="#B3B3B3" points="93.6713207 180.933852 157.186999 180.933852 161.478599 201.361868 88.5214008 201.361868"></polygon>
                <rect id="Rectangle" fill="#FFFFFF" x="79.766537" y="201.361868" width="90.4669261" height="6.80933852"></rect>
            </g>
            <g id="Graduation-Hat" transform="translate(244.000000, 41.000000)">
                <path d="M14.69615,6.06587576 L14.69615,25.1328979 C14.6474114,25.3699091 14.622256,25.6104578 14.622256,25.8537579 C14.622256,29.9191096 21.5443201,33.2144696 30.0826198,33.2144696 C38.3866598,33.2144696 45.1609357,30.0971628 45.5264754,26.1866742 L45.5429837,26.1866742 L45.5429837,6.06587576 L14.69615,6.06587576 Z" id="Fill-1" fill="#4F6877"></path>
                <g id="Group-5" transform="translate(0.000000, 0.567255)">
                    <mask id="mask-2" fill="white">
                        <use xlink:href="#path-1"></use>
                    </mask>
                    <g id="Clip-4"></g>
                    <polygon id="Fill-3" fill="#112D47" mask="url(#mask-2)" points="0.00770384734 11.2142076 -0.000157221374 10.1588591 31.0149033 0 59.9035447 10.1384203 59.9011864 11.2142076 29.9540521 23.3017799"></polygon>
                </g>
                <path d="M14.69615,25.1821475 C14.69615,25.1821475 14.622256,25.6597074 14.622256,25.9034006 C14.622256,29.9683592 21.5443201,33.2637192 30.0826198,33.2637192 C38.3866598,33.2637192 45.1609357,30.1468055 45.5264754,26.2359238 L45.5429837,26.2359238 L45.5429837,6.11512535 C45.5429837,6.11512535 40.3645047,24.9537835 14.69615,25.1821475" id="Fill-6" fill="#112D47"></path>
                <polygon id="Fill-8" fill="#2B445B" points="0.00770384734 10.6717938 29.9540521 0 59.9011864 10.6717938 29.9540521 22.7593661"></polygon>
                <g id="Group-12" transform="translate(24.445723, 2.840597)">
                    <mask id="mask-4" fill="white">
                        <use xlink:href="#path-3"></use>
                    </mask>
                    <g id="Clip-11"></g>
                    <polygon id="Fill-10" fill="#1D3850" mask="url(#mask-4)" points="35.5544346 7.83119665 13.5780309 0 5.58562527e-15 17.6555673 5.60769337 19.918769"></polygon>
                </g>
                <polygon id="Fill-13" fill="#29B890" points="7.00283654 25.0771629 6.85465539 13.5371141 28.9977137 9.81411193 30.4524045 10.4304197 8.03853234 14.2768406 8.03853234 23.9184414"></polygon>
                <polygon id="Fill-15" fill="#00A7D9" points="6.90418012 13.5371534 29.0472385 9.81415123 30.5015362 10.430459 8.08766402 14.2768799"></polygon>
                <path d="M32.925143,9.91253251 C32.925143,10.6212079 31.719255,11.195852 30.2311547,11.195852 C28.7418753,11.195852 27.5355943,10.6212079 27.5355943,9.91253251 C27.5355943,9.20385716 28.7418753,8.62960609 30.2311547,8.62960609 C31.719255,8.62960609 32.925143,9.20385716 32.925143,9.91253251" id="Fill-17" fill="#C73030"></path>
                <g id="Group-21" transform="translate(2.419783, 22.673916)">
                    <mask id="mask-6" fill="white">
                        <use xlink:href="#path-5"></use>
                    </mask>
                    <g id="Clip-20"></g>
                    <path d="M4.5051111,0.360036947 C4.5051111,0.360036947 2.59880194,1.92871321 3.81333705,3.6836968 C5.02826522,5.43789428 1.1987456,7.78285108 0.321450332,11.224427 C-0.555451883,14.6656098 0.574576744,18.3265095 1.1818443,18.6645354 C1.78911186,19.0017753 8.01389912,17.6013259 8.67187057,14.6656098 C5.78725141,12.489666 3.7732456,6.57028123 5.78725141,4.18955657 C6.90077179,2.87361367 6.73175881,1.16972702 5.98967393,0.360036947 C5.24758904,-0.450046184 4.5051111,0.360036947 4.5051111,0.360036947" id="Fill-19" fill="#ED4747" mask="url(#mask-6)"></path>
                </g>
                <path d="M11.0914963,37.3397226 C8.20687712,35.1637788 6.19287132,29.244001 8.20687712,26.8636694 C9.32039751,25.5473335 9.15138453,23.8438399 8.4096927,23.0341498 C7.66721476,22.2236736 6.92473682,23.0341498 6.92473682,23.0341498 C6.92473682,23.0341498 6.8826801,23.0691315 6.81546796,23.1335923 C7.65935369,24.1260522 7.82836667,26.1149026 6.52107094,27.6599957 C4.2794872,30.3091758 6.2015185,36.6129668 9.25554369,39.5887744 C10.1733235,38.9850443 10.891039,38.2339192 11.0914963,37.3397226" id="Fill-22" fill="#C73030"></path>
                <path d="M9.35423941,24.7209386 C9.35423941,25.9881429 8.52411055,27.0151915 7.49824109,27.0151915 C6.47394383,27.0151915 5.64302887,25.9881429 5.64302887,24.7209386 C5.64302887,23.4537343 6.47394383,22.4262927 7.49824109,22.4262927 C8.52411055,22.4262927 9.35423941,23.4537343 9.35423941,24.7209386" id="Fill-24" fill="#C73030"></path>
                <path d="M30.0828164,29.38212 C22.0523416,29.38212 15.4529744,26.4668427 14.6963466,22.7383378 L14.6963466,22.7744987 C14.6472149,23.0115099 14.6220595,23.2520586 14.6220595,23.4953587 C14.6220595,27.5607104 21.5441235,30.8560704 30.0828164,30.8560704 C38.3868563,30.8560704 45.1607392,27.7387636 45.5262789,23.828668 L45.5431802,23.828668 L45.5431802,22.3547176 L45.5262789,22.3547176 C45.1607392,26.2648132 38.3868563,29.38212 30.0828164,29.38212" id="Fill-26" fill="#C73030"></path>
            </g>
            <g id="Microscope" transform="translate(530.999856, -0.000000)">
                <path d="M11.5826344,56.8315273 C11.6297748,58.3822711 9.68200434,59.7001064 7.23210163,59.7751818 C4.78219892,59.8502572 2.75760714,58.6542885 2.71046676,57.1035448 C2.70418138,56.8908893 2.62596328,56.0650598 2.62596328,56.0650598 C3.03311644,54.7989042 4.94666644,54.2248392 7.06030115,54.1602395 C9.21688598,54.0938938 11.0099661,54.3467058 11.4488954,55.6254321 C11.5093049,55.7989785 11.576349,56.6461085 11.5826344,56.8315273" id="Fill-1" fill="#112D47"></path>
                <path d="M11.4953374,55.977658 C11.5424778,57.5277034 9.59505654,58.8462371 7.14515383,58.9213125 C4.69525112,58.9963879 2.67065934,57.8004192 2.62351896,56.2496754 C2.57568021,54.6989317 4.52310145,53.3810964 6.97300416,53.3063701 C9.42255769,53.2312947 11.4474987,54.4269143 11.4953374,55.977658" id="Fill-3" fill="#29B890"></path>
                <path d="M11.5031941,57.0589884 L11.5021466,57.0607343 C11.2454934,57.0055626 10.9703333,57.2402169 10.8816396,57.5918492 C10.7943426,57.946275 10.9291291,58.2849873 11.1843855,58.3530789 L11.1843855,58.3551741 L17.8765727,59.9785489 L18.1943338,58.6823632 L11.5031941,57.0589884 Z" id="Fill-7" fill="#2B445B"></path>
                <path d="M21.9965716,22.2227057 L18.3311456,36.4486231 C18.3311456,36.4486231 18.3032106,37.1236034 18.7382988,36.5722357 C20.1668267,34.7606485 22.697741,34.1230313 24.5557701,34.5986253 C27.4292379,35.333666 30.7891244,38.7675803 30.7891244,43.214489 C30.7891244,50.6832702 24.3822237,53.0182901 18.6558904,51.3872331 L15.1374726,64.0278372 C24.4366971,66.6306842 38.9164741,58.9754366 37.0228278,43.400257 C35.9647883,34.6862715 30.1071603,28.7815031 21.9965716,22.2227057" id="Fill-9" fill="#2B445B"></path>
                <path d="M37.0228976,43.3453297 C35.9648581,34.6313442 30.1068809,28.7269251 21.9966414,22.1681277 L18.7645577,34.712705 C20.7276924,33.9633477 22.8542471,33.8013245 24.9298203,34.3711992 C30.7836072,35.9774638 34.0163893,42.7904701 32.1503289,49.5884612 C30.285316,56.3861032 24.0271694,60.5948656 18.1740809,58.9882518 C17.6537908,58.845434 17.1548012,58.6607135 16.6771121,58.4393284 L15.1375424,63.9729099 C24.4367669,66.575757 38.9165439,58.9205094 37.0228976,43.3453297" id="Fill-11" fill="#112D47"></path>
                <g id="Group-15" transform="translate(15.210348, 0.000000)">
                    <mask id="mask-8" fill="white">
                        <use xlink:href="#path-7"></use>
                    </mask>
                    <g id="Clip-14"></g>
                    <path d="M8.18671167,1.06411538 L4.13124273,0.02667796 C3.72827982,-0.0763324875 3.3288088,0.12759328 3.23801993,0.481669869 C3.23173455,0.507509778 3.2271951,0.533000498 3.22405241,0.559189595 L-2.48112967e-15,13.1610338 L5.50180546,14.5686105 L8.7251595,1.96921057 C8.73528595,1.94441822 8.74471402,1.9189275 8.75134859,1.89204003 C8.84178827,1.53796344 8.58862701,1.16712583 8.18671167,1.06411538" id="Fill-13" fill="#2B445B" mask="url(#mask-8)"></path>
                </g>
                <path d="M10.9746283,46.6825889 C10.9177107,46.9085135 10.2619357,46.9360993 9.5108324,46.7433476 C8.76007829,46.550945 8.19858406,46.2111851 8.25654926,45.9852605 C8.31521283,45.7589867 8.97098782,45.7320992 9.72139274,45.9245018 C10.4717977,46.1172536 11.0332919,46.4563151 10.9746283,46.6825889" id="Fill-18" fill="#29B890"></path>
                <polygon id="Fill-22" fill="#112D47" points="11.3371203 46.7671622 7.96815492 45.9050171 9.3202107 40.6200574 12.6895253 41.4822024"></polygon>
                <path d="M15.157062,13.5669997 C15.157062,13.5669997 14.2868856,12.9384614 14.4077046,12.4681052 C14.5281745,11.9980982 15.0582418,11.7278267 15.5928486,11.8643592 L16.0146676,11.9726075 C16.0146676,11.9726075 14.9573265,12.2568465 15.157062,13.5669997" id="Fill-24" fill="#2B445B"></path>
                <path d="M33.8096351,67.7620881 C33.8096351,69.7234769 25.1721218,70.635905 23.2103839,70.635905 C21.2489951,70.635905 19.6594915,69.0464014 19.6594915,67.0850127 L19.6594915,56.9802116 C19.6594915,55.0188228 21.2489951,53.42897 23.2103839,53.42897 C24.3714338,53.42897 25.4025859,53.986274 26.0506787,54.8477207 C26.4972901,55.4416894 33.8096351,67.7620881 33.8096351,67.7620881" id="Fill-29" fill="#AEAEAE"></path>
                <path d="M15.4223401,38.6290924 L8.29366794,36.8049345 L7.3494637,40.4937561 L7.35435233,40.4948037 C7.29394281,40.8408489 7.63475026,41.2158768 8.13862848,41.3450763 L13.3827332,42.6863073 C13.9033725,42.8196971 14.398521,42.6398653 14.4896591,42.2843919 C14.4928017,42.2728687 14.4945477,42.2606472 14.4959444,42.249124 L15.4223401,38.6290924 Z" id="Fill-33" fill="#2B445B"></path>
                <path d="M19.0206172,36.8099977 C18.7877089,37.7206799 17.8606148,38.270651 16.9492343,38.0373934 C16.0385521,37.8041359 15.4896286,36.8766926 15.722537,35.9660104 L19.3977402,21.6011162 C19.6306486,20.6904341 20.5577426,20.1408122 21.4698216,20.3740698 C22.3798054,20.6073273 22.9297764,21.5344213 22.6965189,22.4451035 L19.0206172,36.8099977 Z" id="Fill-37" fill="#2B445B"></path>
                <path d="M35.8266495,67.8534706 L5.07331692,67.8534706 C2.76762883,67.8534706 0.89947326,69.3123779 0.89947326,71.1120926 C0.89947326,72.9114582 2.76762883,74.3703655 5.07331692,74.3703655 L8.50792967,74.3703655 C8.49500971,74.2952901 8.48488326,74.2195163 8.48488326,74.1416474 C8.48488326,73.2264257 9.43607126,72.4844013 10.6082952,72.4844013 L30.2906237,72.4844013 C31.4638952,72.4844013 32.4143848,73.2264257 32.4143848,74.1416474 C32.4143848,74.2195163 32.4056551,74.2952901 32.3916876,74.3703655 L35.8266495,74.3703655 C38.1312901,74.3703655 40.000144,72.9114582 40.000144,71.1120926 C40.000144,69.3123779 38.1312901,67.8534706 35.8266495,67.8534706" id="Fill-39" fill="#112D47"></path>
                <polygon id="Fill-43" fill="#ED4747" points="16.2554327 38.99347 7.38780454 36.7247959 13.595668 12.463915 22.4622487 14.7329383"></polygon>
                <path d="M29.0018058,36.6973148 C28.3753626,39.1458207 25.8821606,40.6228858 23.434353,39.9964426 C20.9851487,39.3696502 19.5080836,36.8771466 20.1341776,34.4282914 C20.7613192,31.9797855 23.2545212,30.5027204 25.702678,31.1291636 C28.1508348,31.7556068 29.6289474,34.2484596 29.0018058,36.6973148" id="Fill-47" fill="#112D47"></path>
                <path d="M20.1380885,34.441386 C20.7645317,31.9925308 23.2577338,30.515815 25.7065889,31.1426073 L23.4372164,40.009188 C20.9890596,39.3827448 19.5119945,36.8898919 20.1380885,34.441386" id="Fill-49" fill="#2B445B"></path>
                <path d="M26.2850188,24.7204123 C25.925006,26.1307824 24.4884467,26.9814043 23.0784257,26.6206931 C21.6677064,26.2596328 20.8170845,24.8241211 21.1788432,23.4134017 C21.538856,22.0030316 22.9750661,21.1524097 24.3854363,21.5131209 C25.7961556,21.8741812 26.6467775,23.3100421 26.2850188,24.7204123" id="Fill-51" fill="#29B890"></path>
                <path d="M25.7861339,24.5926793 C25.4959587,25.7275402 24.3404958,26.4115994 23.2066825,26.121075 C22.0718216,25.8308998 21.387064,24.6761352 21.6775884,23.5412744 C21.9677636,22.4067627 23.1232266,21.7223543 24.2580874,22.0125295 C25.3919007,22.3027047 26.0766583,23.4578185 25.7861339,24.5926793" id="Fill-53" fill="#0C9081"></path>
                <path d="M24.2362632,24.1957574 C24.1646796,24.4740602 23.8814882,24.6423688 23.6031854,24.5711344 C23.3248826,24.4999001 23.156574,24.2163595 23.2274592,23.9377075 C23.2990427,23.6594047 23.5829325,23.4914453 23.8608861,23.5626796 C24.1391889,23.6339139 24.3071483,23.9174546 24.2362632,24.1957574" id="Fill-55" fill="#112D47"></path>
                <path d="M25.878564,57.7106429 C25.5168052,59.1213623 24.0816427,59.9719842 22.6705742,59.6105746 C21.2605532,59.2498635 20.4099314,57.8143518 20.7706425,56.4039816 C21.1317029,54.9936114 22.5672146,54.1422912 23.9772355,54.5033515 C25.3879549,54.8647611 26.2385768,56.3002728 25.878564,57.7106429" id="Fill-57" fill="#ED4747"></path>
                <polygon id="Fill-61" fill="#2B445B" points="11.9952698 52.6839077 3.25823791 50.5384969 3.49428897 49.5785792 12.2306225 51.72399"></polygon>
                <polygon id="Fill-61-Copy" fill="#2B445B" points="19.2680042 54.4871971 10.5309723 52.3417863 10.7670234 51.3818686 19.5033569 53.5272794"></polygon>
                <path d="M24.6499112,56.8151853 C24.6450226,56.7889962 24.638388,56.7635055 24.6310551,56.7376656 L22.2307371,57.8421471 C22.5254517,58.2517446 23.0377104,58.4794151 23.5667302,58.3830393 C24.2989773,58.2486019 24.783301,57.5470833 24.6499112,56.8151853" id="Fill-63" fill="#AEAEAE"></path>
                <path d="M23.0823366,55.732144 C22.3504387,55.865883 21.8654166,56.5677508 21.9984572,57.2992995 C22.0033459,57.3254886 22.0103296,57.3513285 22.0173134,57.3764701 L24.4176314,56.2723377 C24.1236151,55.8630895 23.6117056,55.6354189 23.0823366,55.732144" id="Fill-65" fill="#AEAEAE"></path>
                <path d="M27.3192786,36.266801 C26.9306324,37.7864669 25.3833805,38.702387 23.8644129,38.3137408 C22.3450961,37.9250946 21.4288269,36.3781919 21.8167747,34.8592243 C22.2061193,33.3395583 23.7526728,32.4229399 25.2723388,32.8115861 C26.7916556,33.2005815 27.7079248,34.747135 27.3192786,36.266801" id="Fill-67" stroke="#FFFFFF" fill="#112D47"></path>
            </g>
            <g id="Nuclear" transform="translate(60.000000, 140.000000)">
                <g id="Group-3" transform="translate(13.725490, 1.960784)">
                    <mask id="mask-10" fill="white">
                        <use xlink:href="#path-9"></use>
                    </mask>
                    <g id="Clip-2"></g>
                    <path d="M11.7647059,49.9250729 C6.33495491,49.9250729 1.93362165,38.9848605 1.93362165,25.4905109 C1.93362165,11.9951926 6.33495491,1.05546458 11.7647059,1.05546458 C17.1944569,1.05546458 21.5957901,11.9951926 21.5957901,25.4905109 C21.5957901,38.9848605 17.1944569,49.9250729 11.7647059,49.9250729 M11.7647059,0 C5.26726588,0 3.48799395e-15,11.4119988 3.48799395e-15,25.4905109 C3.48799395e-15,39.5680543 5.26726588,50.9805375 11.7647059,50.9805375 C18.2621459,50.9805375 23.5294118,39.5680543 23.5294118,25.4905109 C23.5294118,11.4119988 18.2621459,0 11.7647059,0" id="Fill-1" fill="#7C7C7C" mask="url(#mask-10)"></path>
                </g>
                <path d="M4.69919216,40.34234 C1.86295481,35.7985947 8.87224238,26.3449148 20.3550476,19.2252679 C31.8373673,12.1061048 43.4449223,10.0173267 46.281645,14.5601045 C49.1178824,19.1033661 42.1081094,28.5580134 30.6257896,35.6766928 C19.1434699,42.7963398 7.5354295,44.8851178 4.69919216,40.34234 M47.1796493,14.0033228 C43.7851931,8.56659828 31.3233205,10.1803462 19.3453995,17.6076501 C7.36650761,25.0344703 0.406731635,35.4623972 3.80070246,40.898638 C7.19515869,46.3353625 19.6570312,44.7216146 31.6359231,37.2943107 C43.6143296,29.8674905 50.5736201,19.4400473 47.1796493,14.0033228" id="Fill-4" fill="#7C7C7C"></path>
                <path d="M20.3544845,35.6769872 C8.87194586,28.5577786 1.86203929,19.103071 4.6988161,14.5602642 C7.5351075,10.0169737 19.1428837,12.105765 30.6259077,19.2249736 C42.1084463,26.3451497 49.1183529,35.7988898 46.2815761,40.3426641 C43.4447992,44.8849871 31.8375085,42.7966795 20.3544845,35.6769872 M19.3448171,37.2946153 C31.3234519,44.7214828 43.785562,46.3352411 47.1795975,40.8989656 C50.573633,35.4626901 43.6146952,25.0346967 31.635575,17.6073455 C19.6569403,10.1804779 7.19531562,8.56671972 3.80079469,14.0029952 C0.406759187,19.4402381 7.36569698,29.8672641 19.3448171,37.2946153" id="Fill-6" fill="#7C7C7C"></path>
                <path d="M20.3346187,35.5382175 C8.99221398,28.3809871 2.02085094,18.9047255 4.60711123,14.2287994 C4.71329627,13.371702 4.97706185,12.5800056 5.41149928,11.8719045 C5.43380298,11.835516 5.45804614,11.8006027 5.48083471,11.7647059 C4.79087438,12.2343146 4.22406931,12.8140724 3.79981401,13.5059462 C0.409650541,19.0325771 7.36064932,29.6329492 19.3261033,37.1825857 C31.2120397,44.6825567 43.573142,46.3495448 47.0588235,40.9537159 C46.0779453,41.6214946 44.8459079,42.0660247 43.4194404,42.2966493 C38.5974759,43.7979221 29.4277431,41.2758036 20.3346187,35.5382175" id="Fill-8" fill="#7C7C7C"></path>
                <path d="M50,35.7843137 C50,37.6787013 48.4630151,39.2156863 46.5686275,39.2156863 C44.6737285,39.2156863 43.1372549,37.6787013 43.1372549,35.7843137 C43.1372549,33.8889035 44.6737285,32.3529412 46.5686275,32.3529412 C48.4630151,32.3529412 50,33.8889035 50,35.7843137" id="Fill-15" fill="#ED4747"></path>
                <path d="M30.3921569,26.960543 C30.3921569,29.3970167 28.4168911,31.372549 25.9806335,31.372549 C23.5434105,31.372549 21.5686275,29.3970167 21.5686275,26.960543 C21.5686275,24.5240692 23.5434105,22.5490196 25.9806335,22.5490196 C28.4168911,22.5490196 30.3921569,24.5240692 30.3921569,26.960543" id="Fill-19" fill="#0F3954"></path>
                <g id="Group-25" transform="translate(24.509804, 1.960784)">
                    <mask id="mask-12" fill="white">
                        <use xlink:href="#path-11"></use>
                    </mask>
                    <g id="Clip-24"></g>
                    <path d="M1.07872345,0 C0.715092392,0 0.355355648,0.0382660765 3.45884074e-15,0.109470042 C0.963354557,0.302253566 1.89263392,0.750790109 2.77274763,1.4240793 C7.35002045,3.43425927 10.8276379,13.4439868 10.8276379,25.4905351 C10.8276379,37.5365992 7.35002045,47.5458423 2.77274763,49.5560222 C1.89263392,50.2297958 0.963354557,50.6783323 3.45884074e-15,50.8711159 C0.355355648,50.9418355 0.715092392,50.9805859 1.07872345,50.9805859 C7.52185681,50.9805859 12.745098,39.5680919 12.745098,25.4905351 C12.745098,11.4120097 7.52185681,0 1.07872345,0" id="Fill-23" fill="#7C7C7C" mask="url(#mask-12)"></path>
                </g>
                <g id="Group-28" transform="translate(20.588235, 0.000000)">
                    <mask id="mask-14" fill="white">
                        <use xlink:href="#path-13"></use>
                    </mask>
                    <g id="Clip-27"></g>
                    <path d="M6.8627451,3.43109131 C6.8627451,5.32665689 5.32666833,6.8627451 3.43111688,6.8627451 C1.53658811,6.8627451 0,5.32665689 0,3.43109131 C0,1.53603708 1.53658811,-5.11347607e-05 3.43111688,-5.11347607e-05 C5.32666833,-5.11347607e-05 6.8627451,1.53603708 6.8627451,3.43109131" id="Fill-26" fill="#2390F3" mask="url(#mask-14)"></path>
                </g>
                <path d="M47.1816943,13.5542341 C46.7419939,12.8379318 46.1478173,12.2424043 45.423377,11.7647059 C45.4282195,11.7725612 45.4335463,11.7794345 45.4379046,11.7867988 C45.8529081,12.4628428 46.1119827,13.2159666 46.226266,14.0294777 C46.2461204,14.059426 46.2669432,14.0888832 46.285829,14.1193224 C49.1153106,18.7303645 42.1227186,28.3260649 30.6677488,35.5514384 C21.1827142,41.5337157 11.6129356,44.0164712 6.9946288,42.076711 C5.80966532,41.8356525 4.77481981,41.4360158 3.92156863,40.8733822 C7.32682535,46.3637234 19.7410974,44.7204996 31.6754762,37.1926984 C43.6248669,29.6550781 50.567581,19.0720687 47.1816943,13.5542341" id="Fill-31" fill="#7C7C7C"></path>
                <g id="Group-12" transform="translate(0.000000, 36.274510)">
                    <mask id="mask-16" fill="white">
                        <use xlink:href="#path-15"></use>
                    </mask>
                    <g id="Clip-11"></g>
                    <path d="M6.8627451,3.43111688 C6.8627451,5.32615699 5.32665689,6.8627451 3.43109131,6.8627451 C1.53654842,6.8627451 -5.11347607e-05,5.32615699 -5.11347607e-05,3.43111688 C-5.11347607e-05,1.53607677 1.53654842,0 3.43109131,0 C5.32665689,0 6.8627451,1.53607677 6.8627451,3.43111688" id="Fill-10" fill="#29B890" mask="url(#mask-16)"></path>
                </g>
            </g>
            <g id="Chem-Flask" transform="translate(453.000000, 169.000000)">
                <g id="Group-3" transform="translate(0.000000, 0.000099)">
                    <mask id="mask-18" fill="white">
                        <use xlink:href="#path-17"></use>
                    </mask>
                    <g id="Clip-2"></g>
                    <path d="M39.5184983,48.0492292 C39.4120835,47.8299354 39.2932372,47.6181004 39.1554948,47.4191944 L25.940179,24.5295873 L25.940179,2.77225261 L26.8899552,2.77225261 C27.6567379,2.77225261 28.2768274,2.15166584 28.2768274,1.38587767 C28.2768274,0.620586773 27.6567379,0 26.8899552,0 L13.1097464,0 C12.3444555,0 11.7233715,0.620586773 11.7233715,1.38587767 C11.7233715,2.15166584 12.3444555,2.77225261 13.1097464,2.77225261 L14.0595226,2.77225261 L14.0595226,24.5604177 L0.93968175,47.2849329 C0.715415216,47.5867727 0.52247638,47.9139731 0.373794132,48.2650423 C0.133117852,48.8344107 -0.000149179513,49.4609647 -0.000149179513,50.1173545 C-0.000149179513,52.7503729 2.13460965,54.8851318 4.76713078,54.8851318 C2.13460965,54.8851318 35.1341124,54.8866236 35.1341124,54.8866236 C35.1669319,54.8876181 35.1997514,54.8920935 35.2335654,54.8920935 C35.2663849,54.8920935 35.2987071,54.8876181 35.3315266,54.8866236 C37.9182994,54.8339135 40.0003481,52.7240179 40.0003481,50.1253108 C40.0003481,49.3799105 39.823819,48.677275 39.5184983,48.0492292" id="Fill-1" fill="#29B890" mask="url(#mask-18)"></path>
                </g>
                <g id="Group-6">
                    <mask id="mask-20" fill="white">
                        <use xlink:href="#path-19"></use>
                    </mask>
                    <g id="Clip-5"></g>
                    <path d="M6.19930383,49.8363998 C6.35743411,49.4624565 6.56280457,49.1153655 6.8014918,48.793635 L20.7547489,24.626554 L20.7547489,1.45400298 L19.7438091,1.45400298 C18.9367479,1.45400298 18.2828444,0.804574838 18.2714073,0 L13.1092989,0 C12.344008,0 11.7234212,0.620586773 11.7234212,1.38587767 C11.7234212,2.15166584 12.344008,2.77225261 13.1092989,2.77225261 L14.0595724,2.77225261 L14.0595724,24.5604177 L0.939731477,47.2849329 C0.715464943,47.58727 0.522526106,47.9139731 0.373843859,48.2650423 C0.133167578,48.8344107 -9.94530085e-05,49.4609647 -9.94530085e-05,50.1173545 C-9.94530085e-05,52.7503729 2.13465937,54.8851318 4.76718051,54.8851318 L6.85022377,54.8851318 C6.19532571,54.0313277 5.80198906,52.966186 5.80198906,51.8070612 C5.80198906,51.1079065 5.9437096,50.4420686 6.19930383,49.8363998" id="Fill-4" fill="#29B890" mask="url(#mask-20)"></path>
                </g>
                <path d="M35.5985082,46.6547986 L27.7566385,33.0710094 L12.2583789,33.0710094 L4.47866733,46.5454003 C4.29666832,46.7915465 4.13953257,47.057086 4.01869717,47.3435107 C3.82277474,47.807459 3.71387369,48.3176529 3.71387369,48.8522128 C3.71387369,50.9959224 5.45231228,52.7338637 7.59602188,52.7338637 C5.45231228,52.7338637 32.3250124,52.7358528 32.3250124,52.7358528 C32.3508702,52.7368473 32.3777225,52.7398309 32.4045748,52.7398309 C32.4319244,52.7398309 32.4582795,52.7368473 32.485629,52.7358528 C34.5910492,52.6925908 36.2862258,50.9740428 36.2862258,48.85818 C36.2862258,48.2515167 36.1430134,47.6796619 35.8953754,47.1679761 C35.8078568,46.989458 35.7108901,46.8164097 35.5985082,46.6547986 Z" id="Fill-7" fill="#112D47"></path>
                <path d="M35.8953754,47.1679761 C35.8078568,46.989458 35.7108901,46.8164097 35.5985082,46.6547986 L27.7566385,33.0710094 L15.9281949,33.0710094 L5.77454003,52.280358 C6.31805072,52.5702636 6.93814023,52.7338637 7.59602188,52.7338637 C5.45231228,52.7338637 32.3250124,52.7358528 32.3250124,52.7358528 C32.3508702,52.7368473 32.3777225,52.7398309 32.4045748,52.7398309 C32.4319244,52.7398309 32.4582795,52.7368473 32.485629,52.7358528 C34.5910492,52.6925908 36.2862258,50.9740428 36.2862258,48.85818 C36.2862258,48.2515167 36.1430134,47.6796619 35.8953754,47.1679761" id="Fill-9" fill="#112D47"></path>
                <path d="M21.3445549,51.4743411 C21.3445549,52.1342118 20.8094978,52.669269 20.1491298,52.669269 C19.4887618,52.669269 18.9532074,52.1342118 18.9532074,51.4743411 C18.9532074,50.8139731 19.4887618,50.278916 20.1491298,50.278916 C20.8094978,50.278916 21.3445549,50.8139731 21.3445549,51.4743411" id="Fill-11" fill="#C73030"></path>
                <path d="M17.7957235,48.299453 C17.7957235,48.8563899 17.3442069,49.3079065 16.78727,49.3079065 C16.2303332,49.3079065 15.7783192,48.8563899 15.7783192,48.299453 C15.7783192,47.7425162 16.2303332,47.2905022 16.78727,47.2905022 C17.3442069,47.2905022 17.7957235,47.7425162 17.7957235,48.299453" id="Fill-13" fill="#C73030"></path>
                <path d="M25.5654898,43.4433118 C25.5654898,44.9903033 24.3118846,46.244903 22.7638986,46.244903 C21.2164097,46.244903 19.9623073,44.9903033 19.9623073,43.4433118 C19.9623073,41.895823 21.2164097,40.6412233 22.7638986,40.6412233 C24.3118846,40.6412233 25.5654898,41.895823 25.5654898,43.4433118" id="Fill-15" fill="#C73030"></path>
                <path d="M20.335455,39.857086 C20.335455,40.9092989 19.4826455,41.7621084 18.4309299,41.7621084 C17.3792143,41.7621084 16.5259075,40.9092989 16.5259075,39.857086 C16.5259075,38.8053705 17.3792143,37.9520636 18.4309299,37.9520636 C19.4826455,37.9520636 20.335455,38.8053705 20.335455,39.857086" id="Fill-17" fill="#ED4747"></path>
                <path d="M22.1282944,35.4492292 C22.1282944,35.9241174 21.7439085,36.3085032 21.2695177,36.3085032 C20.7951268,36.3085032 20.4102437,35.9241174 20.4102437,35.4492292 C20.4102437,34.9748384 20.7951268,34.5899552 21.2695177,34.5899552 C21.7439085,34.5899552 22.1282944,34.9748384 22.1282944,35.4492292" id="Fill-19" fill="#C73030"></path>
                <path d="M17.7957235,21.9642964 C17.7957235,22.2532074 17.5615117,22.4874192 17.273098,22.4874192 C16.9836897,22.4874192 16.7494779,22.2532074 16.7494779,21.9642964 L16.7494779,4.55753357 C16.7494779,4.26862258 16.9836897,4.03441074 17.273098,4.03441074 C17.5615117,4.03441074 17.7957235,4.26862258 17.7957235,4.55753357 L17.7957235,21.9642964 Z" id="Fill-21" fill="#F5F2E6"></path>
            </g>
            <g id="Paint-Brushes" transform="translate(32.113616, 309.783996) rotate(-147.000000) translate(-32.113616, -309.783996) translate(24.613616, 263.906161)">
                <path d="M14.8915286,27.5421686 C14.8915286,42.9279627 13.5227433,71.4829734 11.8348205,71.4829734 C10.1466029,71.4829734 8.7781124,42.9279627 8.7781124,27.5421686 C8.7781124,27.5421686 11.5757974,17.8230569 11.8348205,15.7656062 C11.9641847,14.7365862 14.8915286,27.5421686 14.8915286,27.5421686" id="Fill-1" fill="#3ACFE2"></path>
                <path d="M12.6524965,69.1290459 C13.863923,62.0063533 14.751497,40.2540135 14.751497,27.5209222 C14.751497,27.5209222 13.6514593,19.2201018 12.8066138,17.1485066 C13.1746682,19.6594686 13.5088345,23.0792216 13.5088345,26.7432636 C13.5088345,38.8973102 13.1631757,58.1672717 12.6524965,69.1290459" id="Fill-3" fill="#3D93CC"></path>
                <path d="M10.8766414,18.5062413 C10.034448,20.486486 8.96476225,27.5207749 8.96476225,27.5207749 C8.96476225,40.2538662 9.85174686,62.0059113 11.063468,69.1286039 C10.5527888,58.1671244 10.2071301,38.8971628 10.2071301,26.743411 C10.2071301,23.2081438 10.5215528,20.5633973 10.8766414,18.5062413" id="Fill-5" fill="#3D93CC"></path>
                <polygon id="Fill-7" fill="#425F73" points="10.4943539 11.5051628 8.6696999 29.1738372 15 29.1738372 13.175346 11.5051628"></polygon>
                <polygon id="Fill-9" fill="#112D47" points="15 29.1736899 13.175346 11.5050154 12.61575 11.5050154 13.5372121 29.1736899"></polygon>
                <polygon id="Fill-11" fill="#112D47" points="10.4943539 11.5051628 8.6696999 29.1738372 10.1324878 29.1738372 11.0536552 11.5051628"></polygon>
                <path d="M13.1273132,11.5051628 C13.1273132,11.5051628 18.1350928,6.07805465 11.0893114,0 C6.94464745,8.63203989 10.5780429,11.5051628 10.5780429,11.5051628 L13.1273132,11.5051628 Z" id="Fill-13" fill="#685E58"></path>
                <path d="M10.9621278,0.269926212 C8.42317122,7.17838704 10.9285344,9.51077347 10.9285344,9.51077347 C10.9285344,9.51077347 15.0381315,6.70837361 13.7032344,2.99128928 C16.5896179,7.75124355 13.1274311,11.5051628 13.1274311,11.5051628 L10.5778661,11.5051628 C10.5778661,11.5051628 7.02197129,8.69127042 10.9621278,0.269926212" id="Fill-15" fill="#453832"></path>
                <path d="M4.79513897,35.3531731 C4.79513897,55.1025779 3.72162239,91.7556696 2.39762842,91.7556696 C1.07363446,91.7556696 0.000117871708,55.1025779 0.000117871708,35.3531731 C0.000117871708,26.7382246 2.1945944,22.8779262 2.39762842,20.2364212 C2.49899809,18.916258 4.79513897,26.4945249 4.79513897,35.3531731" id="Fill-17" fill="#E6CAA7"></path>
                <path d="M3.05570617,88.7338516 C4.05997313,79.5914272 4.79519791,51.6705663 4.79519791,35.3258858 C4.79519791,29.7437764 3.88375492,24.6711674 3.18359697,22.0119817 C3.48859002,25.2348888 3.76558853,29.6247259 3.76558853,34.3278071 C3.76558853,49.9287171 3.4788656,74.6640951 3.05570617,88.7338516" id="Fill-19" fill="#D9AE78"></path>
                <g id="Group-23" transform="translate(0.000000, 23.755068)">
                    <mask id="mask-22" fill="white">
                        <use xlink:href="#path-21"></use>
                    </mask>
                    <g id="Clip-22"></g>
                    <path d="M1.58446097,0 C0.886365779,2.54160871 -2.94679271e-05,6.09603008 -2.94679271e-05,11.5708763 C-2.94679271e-05,27.9149673 0.735195313,55.8358283 1.73916759,64.9785473 C1.31630284,50.9084962 1.02957991,26.1737075 1.02957991,10.5727976 C1.02957991,6.03503147 1.2897817,2.64032627 1.58446097,0" id="Fill-21" fill="#D9AE78" mask="url(#mask-22)"></path>
                </g>
                <polygon id="Fill-24" fill="#425F73" points="1.3949822 14.7682053 0.0338586482 33.2982272 4.75550461 33.2982272 3.39438106 14.7682053"></polygon>
                <polygon id="Fill-26" fill="#112D47" points="4.75544567 33.2981977 3.39432212 14.7681758 2.97735095 14.7681758 3.66454301 33.2981977"></polygon>
                <polygon id="Fill-28" fill="#112D47" points="1.3949822 14.7682053 0.0338586482 33.2982272 1.12505599 33.2982272 1.81224805 14.7682053"></polygon>
                <g id="Group-32" transform="translate(0.041348, 0.000000)">
                    <mask id="mask-24" fill="white">
                        <use xlink:href="#path-23"></use>
                    </mask>
                    <g id="Clip-31"></g>
                    <path d="M1.35363442,14.7682053 C1.35363442,14.7682053 -2.57444026,7.80198732 2.95226947,-0.000235743417 C6.20317119,11.0799995 3.35303328,14.7682053 3.35303328,14.7682053 L1.35363442,14.7682053 Z" id="Fill-30" fill="#685E58" mask="url(#mask-24)"></path>
                </g>
                <path d="M3.09339565,0.346778566 C5.08454348,9.21456187 3.1196221,12.2082086 3.1196221,12.2082086 C3.1196221,12.2082086 -0.103874443,8.6113534 0.943121007,3.83990665 C-1.32089983,9.94978665 1.39486433,14.7680874 1.39486433,14.7680874 L3.39426318,14.7680874 C3.39426318,14.7680874 6.18369716,11.1562036 3.09339565,0.346778566" id="Fill-33" fill="#453832"></path>
            </g>
            <g id="Compass" transform="translate(398.000000, 357.000000)">
                <g id="Group-3" transform="translate(7.926829, 0.000000)">
                    <mask id="mask-26" fill="white">
                        <use xlink:href="#path-25"></use>
                    </mask>
                    <g id="Clip-2"></g>
                    <path d="M3.04878049,8.5929319 C3.04878049,8.89868304 2.88039032,9.14634146 2.67311734,9.14634146 L0.375663151,9.14634146 C0.168390166,9.14634146 0,8.89868304 0,8.5929319 L0,0.553375588 C0,0.247964173 0.168390166,-3.39723487e-05 0.375663151,-3.39723487e-05 L2.67311734,-3.39723487e-05 C2.88039032,-3.39723487e-05 3.04878049,0.247964173 3.04878049,0.553375588 L3.04878049,8.5929319 Z" id="Fill-1" fill="#425F73" mask="url(#mask-26)"></path>
                </g>
                <path d="M8.21760686,0 C8.05716967,0 7.92682927,0.247657502 7.92682927,0.553407505 L7.92682927,8.59293396 C7.92682927,8.89868396 8.05716967,9.14634146 8.21760686,9.14634146 L8.53658537,9.14634146 L8.53658537,0 L8.21760686,0 Z" id="Fill-4" fill="#112D47"></path>
                <path d="M10.6847191,0 L10.3658537,0 L10.3658537,9.14634146 L10.6847191,9.14634146 C10.8452187,9.14634146 10.9756098,8.89868396 10.9756098,8.59293396 L10.9756098,0.553407505 C10.9756098,0.247657502 10.8452187,0 10.6847191,0" id="Fill-6" fill="#112D47"></path>
                <path d="M14.0243902,13.8653798 C14.0243902,10.9269622 11.6994463,8.53658537 8.84146341,8.53658537 C5.98379097,8.53658537 3.65853659,10.9269622 3.65853659,13.8653798 C3.65853659,16.1951114 5.1204355,18.1801233 7.15076443,18.902439 L7.15076443,17.2615087 C5.95181484,16.6279264 5.12912804,15.3438449 5.12912804,13.8653798 C5.12912804,11.7606735 6.79468075,10.0485649 8.84146341,10.0485649 C10.888867,10.0485649 12.5541092,11.7606735 12.5541092,13.8653798 C12.5541092,15.3438449 11.7314224,16.6279264 10.5321624,17.2615087 L10.5321624,18.902439 C12.5624913,18.1801233 14.0243902,16.1951114 14.0243902,13.8653798" id="Fill-8" fill="#F77701"></path>
                <path d="M1.21668584,74.1208941 L1.21815009,74.1091772 C1.23242653,73.9767403 1.1328575,73.8574406 0.995584027,73.8443035 L0.384625542,73.7818132 C0.247718129,73.7679659 0.125087157,73.8641868 0.110810715,73.9973337 L0.109712527,74.0086956 L0.10861434,74.0086956 C-0.0923540296,75.8727533 -0.00632931784,77.4073166 0.299699018,77.4385618 C0.605727355,77.4690968 1.0164496,75.9842417 1.2170519,74.1208941 L1.21668584,74.1208941 Z" id="Fill-10" fill="#F77701"></path>
                <path d="M2.83737003,65.7762266 C2.79287256,66.1976781 2.41104503,66.5028671 1.98439283,66.4592687 L0.695929385,66.3268586 C0.269277192,66.2819684 -0.0402419605,65.9054071 0.00425550747,65.4842786 L5.08972716,17.7601449 C5.13422463,17.3390164 5.51637935,17.0331814 5.94237717,17.0774258 L7.23116781,17.2101588 C7.65782,17.2540801 7.96733915,17.6309644 7.9225145,18.0520929 L2.83737003,65.7762266 Z" id="Fill-12" fill="#ECD0A4"></path>
                <path d="M2.70451206,65.7743153 C2.65885301,66.196939 2.26705804,66.5029768 1.82926829,66.4592571 L7.21300789,17.0731707 C7.65079764,17.1172143 7.96839665,17.4951467 7.92240186,17.9174465 L2.70451206,65.7743153 Z" id="Fill-14" fill="#C69C6D"></path>
                <path d="M0.00430993455,65.6191398 C-0.0410117674,66.041763 0.276240146,66.4193711 0.714014216,66.4634146 L6.09756098,17.0773828 C5.66012262,17.0333393 5.26834169,17.3397007 5.22268427,17.762 L0.00430993455,65.6191398 Z" id="Fill-16" fill="#DABE95"></path>
                <polygon id="Fill-18" fill="#425F73" points="1.28708078 74.3902439 3.04878049 65.577568 0.00976971213 65.2439024 0 74.2492305"></polygon>
                <polygon id="Fill-20" fill="#112D47" points="1.28708078 75 3.04878049 65.8536585 0 74.8536475"></polygon>
                <polygon id="Fill-22" fill="#425F73" points="3.22514329 66.4634146 0 66.1433007 0.433393294 62.195122 3.65853659 62.5158736"></polygon>
                <polygon id="Fill-24" fill="#112D47" points="3.22514329 66.4634146 0 66.1172903 3.65853659 62.195122"></polygon>
                <path d="M15.7656212,62.6623272 L15.7598286,62.6117058 C15.6899547,62.0318304 15.5234161,61.5723433 15.388013,61.5856476 L14.7841295,61.6430835 C14.6483643,61.6563879 14.5951444,62.1369673 14.6646562,62.7174917 L14.6715349,62.7681131 L14.6704488,62.7687621 C15.6486821,70.9003216 16.6870142,77.4681321 16.98968,77.4390244 C17.2927078,77.4097227 16.7449406,70.7945357 15.7663453,62.6623272 L15.7656212,62.6623272 Z" id="Fill-26" fill="#F77701"></path>
                <path d="M18.8977922,69.1237798 C18.9447648,69.5504537 18.6302819,69.932989 18.1962023,69.9781085 L16.8846355,70.1173906 C16.4505559,70.163491 16.0607837,69.8548472 16.0141443,69.4291541 L10.3704428,18.0710192 C10.3238034,17.6449992 10.6379531,17.262464 11.0716996,17.2163636 L12.3829333,17.0777354 C12.817346,17.031635 13.2071182,17.3399519 13.2544239,17.7659719 L18.8977922,69.1237798 Z" id="Fill-28" fill="#ECD0A4"></path>
                <path d="M18.8977086,68.6653893 C18.9456969,69.0883061 18.6231473,69.4674729 18.1765139,69.5121951 L12.195122,17.077639 C12.6417554,17.0322686 13.0428,17.3375465 13.091131,17.7598152 L18.8977086,68.6653893 Z" id="Fill-30" fill="#C69C6D"></path>
                <path d="M16.1775033,68.825875 C16.2258344,69.248141 16.6268795,69.5530929 17.0731707,69.5077228 L11.0924567,17.0731707 C10.6458227,17.1185408 10.3225871,17.4980293 10.3705754,17.9199713 L16.1775033,68.825875 Z" id="Fill-32" fill="#DABE95"></path>
                <path d="M19.4961337,64.0349755 C19.6586948,65.5416382 18.568858,66.8942142 17.0621196,67.0571058 C15.55572,67.2196588 14.2027374,66.1302153 14.0405149,64.6235527 C13.8776151,63.11689 14.9674519,61.764314 16.4738516,61.6014224 C17.9805899,61.4388695 19.3335726,62.5289902 19.4961337,64.0349755" id="Fill-34" fill="#425F73"></path>
                <path d="M18.2838009,64.1661765 C18.3738724,65.0031447 17.7686948,65.7545248 16.9317676,65.8446007 C16.0948403,65.9356382 15.3431764,65.3301105 15.2527844,64.4931423 C15.162713,63.6558535 15.7678906,62.9044734 16.6048178,62.8137565 C17.4417451,62.7236806 18.1934089,63.3292083 18.2838009,64.1661765" id="Fill-36" fill="#F77701"></path>
                <polygon id="Fill-38" fill="#F77701" points="14.0243902 21.0273563 10.8750184 21.3414634 10.3658537 17.3872779 13.5155871 17.0731707"></polygon>
                <polygon id="Fill-40" fill="#D46208" points="14.0243902 21.2493758 13.2532 21.3414634 12.804878 17.1655944 13.5757499 17.0731707"></polygon>
                <polygon id="Fill-42" fill="#D46208" points="11.5853659 21.2520082 10.8232519 21.3414634 10.3658537 17.162626 11.1276427 17.0731707"></polygon>
                <polygon id="Fill-44" fill="#F77701" points="8.06697015 21.3414634 4.87804878 21.0537745 5.34729825 17.0731707 8.53658537 17.3611797"></polygon>
                <polygon id="Fill-46" fill="#D46208" points="7.49074105 21.3414634 6.70731707 21.2586754 7.14307164 17.0731707 7.92682927 17.1562953"></polygon>
                <polygon id="Fill-48" fill="#D46208" points="5.66147276 21.3414634 4.87804878 21.2583454 5.31380334 17.0731707 6.09756098 17.1562887"></polygon>
                <path d="M8.84161864,7.92682927 C5.98355015,7.92682927 3.65853659,10.4602179 3.65853659,13.5744355 C3.65853659,15.0473123 4.17886276,16.3902891 5.0298258,17.3970142 C5.60541335,18.0772979 5.76467787,17.0184774 5.76467787,17.0184774 C5.03355129,16.1856289 4.58463025,15.0571225 4.58463025,13.8136004 C4.58463025,11.2517961 6.49021622,9.17474898 8.84161864,9.17474898 C11.1930211,9.17474898 13.098607,11.2517961 13.098607,13.8136004 C13.098607,15.0496803 12.6549638,16.1724359 11.9312882,17.0039313 C11.9312882,17.0039313 12.0126279,18.1239807 12.5751763,17.486997 C13.4723974,16.4711383 14.0243902,15.0916272 14.0243902,13.5744355 C14.0243902,10.4602179 11.6993767,7.92682927 8.84161864,7.92682927" id="Fill-50" fill="#D46208"></path>
                <g id="Group-54" transform="translate(1.219512, 17.073171)">
                    <mask id="mask-28" fill="white">
                        <use xlink:href="#path-27"></use>
                    </mask>
                    <g id="Clip-53"></g>
                    <path d="M20.3051237,12.1238904 C18.4527806,15.0145041 15.577009,17.0165302 12.2078516,17.7602429 C8.83836394,18.5042833 5.37904972,17.90184 2.46662087,16.0630439 C2.29324236,15.9535684 2.12349653,15.839504 1.95639267,15.7224897 C1.86953829,15.6582466 1.78268391,15.5910535 1.74008233,15.5563098 C1.61888249,15.458634 1.52872566,15.3209701 1.49239873,15.1583956 C1.40587459,14.7732645 1.65025574,14.3920667 2.03796313,14.3065184 C2.27177645,14.2550584 2.50360829,14.3225792 2.67038191,14.4681096 C2.67632632,14.4733539 2.68854538,14.4822037 2.70175517,14.4913813 L2.70043419,14.493348 C2.71562545,14.5038366 2.7314772,14.5143253 2.74666846,14.5251418 C2.74765919,14.5261251 2.74898017,14.5271084 2.74997091,14.5277639 C2.75327336,14.5316972 2.76053874,14.5359582 2.76945535,14.5408748 C5.3258803,16.3354217 8.6058716,17.0958508 11.8961005,16.3691822 C18.078283,15.0040154 21.9893721,8.90124465 20.6135723,2.76504125 C20.6082884,2.74242504 20.6026742,2.72046437 20.5977206,2.69752039 C20.5739429,2.55592326 20.5273784,2.39007107 20.5125174,2.31435594 C20.4831256,2.16161459 20.4870886,2.00428444 20.5650263,1.85547635 C20.7483122,1.50443347 21.1835748,1.36742513 21.537267,1.54901034 C21.7502749,1.65881367 21.885345,1.8594096 21.9186998,2.07836072 C21.920351,2.08786608 21.9355422,2.13113187 21.9497428,2.17374212 L21.9484218,2.17406989 C21.9715389,2.26748467 21.9939956,2.36155498 22.0151312,2.4556253 C22.7647869,5.79954641 22.1571365,9.23327681 20.3051237,12.1238904 M22.2182318,0.245464539 C21.1389918,-0.309779762 19.810417,0.108783976 19.2513125,1.17994004 C18.969944,1.71879579 18.9365893,2.31992805 19.110298,2.85517831 C19.1294522,2.93154898 19.1486064,3.00791966 19.1657791,3.08494587 C20.3658887,8.43712072 16.9666791,13.7417688 11.5737816,14.9319057 C8.67489276,15.5723705 5.79119522,14.892901 3.5564287,13.2966556 C3.05643808,12.9039857 2.3886831,12.7296115 1.71762568,12.877764 C0.535019072,13.1389976 -0.210343429,14.3022574 0.0528616722,15.4763336 C0.192885465,16.1013931 0.590830442,16.6035385 1.11162648,16.8965659 C4.30740536,19.1342595 8.40508277,20.0782403 12.5235656,19.1686754 C20.2734202,17.4570546 25.1584012,9.83440907 23.4345234,2.14260386 C23.4223043,2.08950494 23.4094248,2.03738933 23.3965452,1.98461818 C23.3298358,1.26909379 22.9091039,0.600768449 22.2182318,0.245464539" id="Fill-52" fill="#425F73" mask="url(#mask-28)"></path>
                </g>
                <path d="M7.30460293,33.0027142 C7.43091831,34.1747367 6.58330345,35.2271292 5.4116316,35.3534444 C4.23995975,35.4794078 3.1875662,34.6321457 3.06125083,33.460475 C2.93493545,32.2888044 3.78255032,31.2360601 4.95387031,31.1100967 C6.12589402,30.9834296 7.17828756,31.8310436 7.30460293,33.0027142" id="Fill-55" fill="#112D47"></path>
                <path d="M6.09041674,32.7963068 C6.16269786,33.4656943 5.67831155,34.0672524 5.00894036,34.1391927 C4.33922661,34.2114756 3.73768321,33.72742 3.66574465,33.0580325 C3.59312096,32.3879598 4.07750727,31.7867443 4.74722103,31.7144614 C5.41659221,31.6421785 6.01847818,32.1265766 6.09041674,32.7963068" id="Fill-57" fill="#F77701"></path>
                <path d="M15.8411839,34.2225152 C15.967499,35.3941847 15.1202377,36.4462242 13.9485682,36.5728912 C12.7765469,36.6992063 11.7245074,35.851945 11.5978404,34.6802756 C11.4715253,33.5086061 12.3187866,32.4558628 13.4908079,32.3295477 C14.6624774,32.2032326 15.7148688,33.0504939 15.8411839,34.2225152" id="Fill-59" fill="#D46208"></path>
                <path d="M14.6270027,34.015668 C14.6992774,34.6853052 14.2149346,35.2864374 13.5456235,35.3587102 C12.87597,35.4309831 12.2744806,34.9466521 12.202206,34.2773574 C12.1302739,33.6073776 12.6142741,33.0062455 13.2842702,32.9339726 C13.9535813,32.8616997 14.5550706,33.3460307 14.6270027,34.015668" id="Fill-61" fill="#ECD0A4"></path>
            </g>
            <g id="Pencil" transform="translate(69.000000, 460.403350) rotate(45.000000) translate(-69.000000, -460.403350) translate(65.000000, 427.000000)">
                <polygon id="Fill-1" fill="#F0E3C0" points="4.01168173 0 0.0240981559 11.4018074 0.0277716553 14.1352582 7.99522445 14.1161561 8 11.4018074"></polygon>
                <g id="Group-18" transform="translate(0.000000, 0.000073)">
                    <path d="M6.00565719,12.2867534 C4.98883256,12.2867534 4.15017265,11.8889134 4.00837558,11.3713173 C3.8665785,11.8889134 3.02755125,12.2867534 2.01072662,12.2867534 C1.00969804,12.2867534 0.181691279,11.9014033 0.0204246565,11.3959298 L0.0204246565,54.5951804 L7.99522445,54.5951804 L7.99522445,11.3985012 C7.83175373,11.9028727 7.00448167,12.2867534 6.00565719,12.2867534" id="Fill-2" fill="#FBA92D"></path>
                    <path d="M7.99522445,11.3741092 C7.83212108,11.8784806 7.00448167,12.261994 6.00565719,12.261994 C6.00418779,12.261994 6.00198369,12.261994 6.00051429,12.261994 L6.00051429,54.5711557 L7.99522445,54.5711557 L7.99522445,11.3741092 Z" id="Fill-4" fill="#F09515"></path>
                    <path d="M2.01072662,12.2621777 C1.00969804,12.2621777 0.181691279,11.8771949 0.0204246565,11.3713541 L0.0204246565,54.570972 L2.01513482,54.570972 L2.01513482,12.2621777 C2.01366542,12.2621777 2.01219602,12.2621777 2.01072662,12.2621777" id="Fill-6" fill="#EE8D01"></path>
                    <path d="M7.99452649,64.6642422 C7.99452649,65.8474763 7.0353758,66.806627 5.85214165,66.806627 L2.16321358,66.806627 C0.979979428,66.806627 0.0208287415,65.8474763 0.0208287415,64.6642422 L0.0208287415,60.9749467 C0.0208287415,59.7917126 0.979979428,58.8325619 2.16321358,58.8325619 L5.85214165,58.8325619 C7.0353758,58.8325619 7.99452649,59.7917126 7.99452649,60.9749467 L7.99452649,64.6642422 Z" id="Fill-8" fill="#B7B7B7"></path>
                    <mask id="mask-30" fill="white">
                        <use xlink:href="#path-29"></use>
                    </mask>
                    <g id="Clip-11"></g>
                    <polygon id="Fill-10" fill="#534741" mask="url(#mask-30)" points="0 61.4962163 7.99867754 61.4962163 7.99867754 53.5882742 0 53.5882742"></polygon>
                    <polygon id="Fill-12" fill="#453832" mask="url(#mask-30)" points="5.90735435 61.4962163 7.99022849 61.4962163 7.99022849 53.5882742 5.90735435 53.5882742"></polygon>
                    <polygon id="Fill-13" fill="#453832" mask="url(#mask-30)" points="0.00734699875 61.4962163 2.09022114 61.4962163 2.09022114 53.5882742 0.00734699875 53.5882742"></polygon>
                    <polygon id="Fill-14" fill="#726A64" mask="url(#mask-30)" points="0.0029387995 57.2691206 7.98214679 57.2691206 7.98214679 56.5076041 0.0029387995 56.5076041"></polygon>
                    <polygon id="Fill-15" fill="#726A64" mask="url(#mask-30)" points="0.0029387995 56.2611123 7.98214679 56.2611123 7.98214679 55.5003306 0.0029387995 55.5003306"></polygon>
                    <polygon id="Fill-16" fill="#726A64" mask="url(#mask-30)" points="0.0029387995 55.2534715 7.98214679 55.2534715 7.98214679 54.4923224 0.0029387995 54.4923224"></polygon>
                    <path d="M4.01179193,0.00418778929 L2.75692455,3.59135993 C2.75692455,3.59135993 3.13382558,3.89993388 4.00334288,3.89993388 C4.87212549,3.89993388 5.26665932,3.59135993 5.26665932,3.59135993 L4.01179193,0.00418778929 Z" id="Fill-17" fill="#534741" mask="url(#mask-30)"></path>
                </g>
            </g>
            <g id="Brain" transform="translate(1.000000, 0.000000)">
                <path d="M49.375,22.4631095 C49.375,19.5628885 47.6618946,17.0711592 45.2087707,15.9711678 C45.5140641,15.2127901 45.6849963,14.3843885 45.6849963,13.5142756 C45.6849963,9.92593372 42.822942,7.01709082 39.2920624,7.01709082 C39.134658,7.01709082 38.9801197,7.02955762 38.8253521,7.04109232 C38.8320014,6.92155083 38.8432363,6.80329098 38.8432363,6.6818853 C38.8432363,3.33658779 36.1749282,0.625 32.8834224,0.625 C29.5920313,0.625 26.875,3.33658779 26.875,6.6818853 C26.875,7.17846018 27.0027119,7.65872335 27.0027119,8.12069412 L27.0027119,36.2442858 C27.0027119,36.7062566 27.3474424,40.0275526 27.3474424,40.0275526 C28.2445214,42.2255547 30.3860465,43.75 32.8672578,43.75 C36.1586489,43.75 38.8349821,41.0334022 38.8349821,37.6882212 C38.8349821,37.5486396 38.8276449,37.4101066 38.8183589,37.2729718 C41.6781203,36.8276623 43.8728396,34.3233496 43.8728396,31.292402 C43.8728396,30.6506529 43.7740176,30.0324394 43.5918504,29.4517427 C46.8755605,28.8741918 49.375,25.9659315 49.375,22.4631095" id="Fill-1" fill="#FF1BBB"></path>
                <path d="M32.8858643,0 C29.2401432,0 26.25,3.00414454 26.25,6.69293101 L26.2504747,6.75866566 L26.2519386,6.82281304 L26.2544516,6.88647568 L26.2580738,6.95075611 L26.2628648,7.01675683 L26.2688848,7.08558038 C26.2699939,7.09734746 26.2711566,7.10927809 26.2723743,7.12139525 L26.2848509,7.23610605 L26.2949169,7.32001321 L26.312788,7.4597802 L26.3427943,7.68991687 L26.3593668,7.83057721 L26.3664573,7.9010049 L26.3716408,7.96385817 L26.3751075,8.02151137 L26.376559,8.05823041 L26.3775876,8.11249311 L26.3779108,36.2624502 L26.3799653,36.3309414 L26.3840428,36.4154873 L26.3938807,36.5720783 L26.4028725,36.6961002 L26.4199283,36.9111972 L26.4411673,37.1607182 L26.5010089,37.8170121 L26.5529805,38.3605258 L26.5994416,38.834193 L26.7256998,40.0820206 C26.7320599,40.1432816 26.7470865,40.2032897 26.7703152,40.2601899 C27.7805712,42.7348855 30.1760033,44.375 32.8697072,44.375 L32.9786546,44.3741017 C36.4952529,44.3160765 39.3487012,41.4541096 39.4614325,37.8958817 L39.4638953,37.7849924 L39.4797833,37.7811791 C42.3880941,37.0600553 44.5004029,34.4013696 44.5004029,31.2859159 L44.4997487,31.1909758 C44.4940819,30.7799358 44.4516303,30.3737596 44.3736858,29.9759977 L44.3639614,29.9284682 L44.4428585,29.9067746 C47.6804784,28.9894443 50,25.9728296 50,22.4629132 L49.9994598,22.3702762 C49.9663557,19.532573 48.4141441,16.9895492 46.0205543,15.6694138 L45.9895247,15.6525052 L46.002219,15.6119846 C46.2062201,14.9387808 46.3117154,14.2363293 46.3117154,13.5204541 L46.3107749,13.4024958 C46.2500357,9.59590583 43.2547787,6.51430539 39.5232544,6.39134983 L39.4663017,6.38986587 L39.4652409,6.36219659 C39.295572,2.81932404 36.4148219,0 32.8858643,0 Z M32.8858643,1.2807209 C35.7984115,1.2807209 38.1649085,3.65552784 38.2119472,6.60342717 L38.2125996,6.70728633 L38.2115761,6.75192632 L38.2100622,6.78629478 L38.2045646,6.87796046 L38.1957895,7.01574014 C38.1747845,7.39327664 38.4780654,7.70497733 38.846466,7.69188453 L38.8808309,7.68980261 L39.05317,7.67741273 L39.1429074,7.6721285 L39.1999818,7.66973787 L39.2353813,7.66880145 L39.2915187,7.66825819 C42.4726397,7.66825819 45.0512335,10.2882878 45.0512335,13.5204541 C45.0512335,14.2863831 44.9041759,15.0327359 44.6221602,15.7331169 C44.4928841,16.0541717 44.6387116,16.4214405 44.9510641,16.5614662 C47.234965,17.5853247 48.7395181,19.883727 48.7395181,22.4629132 C48.7395181,25.6111904 46.5016363,28.2845834 43.4818308,28.8155867 C43.1050728,28.881836 42.872698,29.27094 42.9888416,29.6410811 C43.1545573,30.1692047 43.239921,30.7217074 43.239921,31.2859159 C43.239921,33.9647129 41.3066452,36.2269724 38.7225861,36.6292515 C38.3986296,36.6796842 38.1667807,36.9739769 38.1892821,37.3061904 L38.1953189,37.4016432 L38.1998026,37.4879179 C38.2004221,37.5016484 38.2009781,37.5150836 38.2014712,37.5282672 L38.2036805,37.6046972 C38.2041687,37.6293996 38.2044104,37.653444 38.2044104,37.677179 C38.2044104,40.6655463 35.81225,43.0942791 32.8697072,43.0942791 L32.8043207,43.0942791 C30.6925884,43.0682128 28.8193982,41.8006761 27.9848983,39.8885882 L27.9693317,39.8524252 L27.9255423,39.4233771 L27.8773672,38.9449856 L27.8302309,38.4690032 L27.7615451,37.7564132 L27.7012744,37.0979979 L27.672313,36.7581337 L27.6500604,36.4677285 L27.6411676,36.3243376 L27.638385,36.2543596 L27.6381343,36.2342722 L27.6380525,8.10333318 L27.6373759,8.05000214 L27.6349681,7.97187881 L27.6323488,7.91971722 L27.6267513,7.83907892 L27.6218217,7.78239461 L27.6158652,7.7223074 L27.6048762,7.62380389 L27.5860811,7.47205541 L27.5524429,7.2149962 L27.5392436,7.1076116 L27.5288125,7.01384693 L27.5209399,6.93075126 L27.5170093,6.87982412 L27.5140603,6.83145288 L27.5120309,6.78476318 L27.5108588,6.73888067 L27.5104819,6.69293101 C27.5104819,3.71471461 29.9331316,1.2807209 32.8858643,1.2807209 Z" id="Stroke-3" fill="#19223A" fill-rule="nonzero"></path>
                <path d="M32.8124415,0 C36.4368921,0 39.375,2.96836359 39.375,6.63028379 C39.375,7.82208745 39.0627794,8.96904191 38.4792329,9.97634865 C38.3449573,10.2081326 38.0501301,10.2860534 37.8207178,10.1503897 C37.5913055,10.014726 37.514182,9.7168508 37.6484576,9.48506687 C38.1462682,8.62575569 38.412383,7.64817275 38.412383,6.63028379 C38.412383,3.50550701 35.905262,0.972568477 32.8124415,0.972568477 C29.7196462,0.972568477 27.212617,3.50548157 27.212617,6.63028379 C27.212617,8.71477615 28.3377244,10.5989814 30.1122373,11.5878129 C30.345001,11.7175184 30.429622,12.0133084 30.3012437,12.2484784 C30.1728654,12.4836484 29.8801019,12.5691442 29.6473383,12.4394387 C27.5687821,11.2811818 26.25,9.07263161 26.25,6.63028379 C26.25,2.96834394 29.1880103,0 32.8124415,0 Z" id="Stroke-5" fill="#19223A" fill-rule="nonzero"></path>
                <path d="M32.8125,31.25 C33.0783217,31.25 33.2938128,31.465493 33.2938128,31.7313171 C33.2938128,31.9971411 33.0783217,32.2126341 32.8125,32.2126341 C29.7197104,32.2126341 27.2126256,34.7196414 27.2126256,37.8123245 C27.2126256,40.9052335 29.7197023,43.4123659 32.8125,43.4123659 C35.9052977,43.4123659 38.4123744,40.9052335 38.4123744,37.8123245 C38.4123744,37.5465005 38.6278655,37.3310075 38.8936872,37.3310075 C39.1595089,37.3310075 39.375,37.5465005 39.375,37.8123245 C39.375,41.4368788 36.436944,44.375 32.8125,44.375 C29.188056,44.375 26.25,41.4368788 26.25,37.8123245 C26.25,34.1879846 29.1880756,31.25 32.8125,31.25 Z" id="Stroke-7" fill="#19223A" fill-rule="nonzero"></path>
                <path d="M39.0357238,6.875 C43.0201393,6.875 46.25,9.95290164 46.25,13.7498286 C46.25,17.5470412 43.0201994,20.625 39.0357238,20.625 C37.6807306,20.625 36.3798898,20.2681117 35.2512929,19.6042639 C35.0026083,19.4579861 34.9254442,19.1472883 35.078942,18.9103009 C35.2324398,18.6733135 35.558473,18.5997789 35.8071576,18.7460568 C36.7698577,19.312323 37.8784793,19.6164755 39.0357238,19.6164755 C42.4357088,19.6164755 45.1916968,16.9900541 45.1916968,13.7498286 C45.1916968,10.5098971 42.4356575,7.8835245 39.0357238,7.8835245 C38.7434815,7.8835245 38.5065722,7.6577586 38.5065722,7.37926225 C38.5065722,7.1007659 38.7434815,6.875 39.0357238,6.875 Z" id="Stroke-9" fill="#19223A" fill-rule="nonzero"></path>
                <path d="M44.7554696,15.9431581 C44.8884872,15.6674085 45.2274705,15.5481503 45.5126101,15.6767874 C48.2272627,16.9014688 50,19.5392979 50,22.487761 C50,26.6367627 46.5223542,30 42.2324228,30 C40.600334,30 39.0424238,29.5115076 37.7398644,28.616853 C37.4833406,28.4406612 37.4230824,28.0967241 37.6052739,27.8486479 C37.7874655,27.6005717 38.1431146,27.5422978 38.3996384,27.7184896 C39.5109565,28.4817913 40.8386901,28.8981104 42.2324228,28.8981104 C45.8930658,28.8981104 48.8605883,26.0282143 48.8605883,22.487761 C48.8605883,19.9714574 47.3479625,17.7206737 45.0309109,16.675365 C44.7457713,16.5467279 44.6224521,16.2189077 44.7554696,15.9431581 Z" id="Stroke-11" fill="#19223A" fill-rule="nonzero"></path>
                <path d="M34.8042519,29.6261308 C34.9283542,29.3897305 35.2088419,29.3052706 35.4307387,29.4374844 C37.3786617,30.5981241 38.0745735,33.2209522 36.9850912,35.2957508 C35.8954421,37.3710586 33.4333174,38.1121464 31.4856505,36.9511644 C31.2637762,36.8189077 31.184549,36.5200716 31.3086916,36.2836952 C31.4328342,36.0473189 31.7133363,35.9629133 31.9352106,36.09517 C33.4390871,36.9916136 35.3401661,36.4193979 36.1815725,34.8168845 C37.0227745,33.2149084 36.4854482,31.1897745 34.9813246,30.2935658 C34.7594278,30.161352 34.6801497,29.8625312 34.8042519,29.6261308 Z" id="Stroke-13" fill="#19223A" fill-rule="nonzero"></path>
                <path d="M29.783136,21.2510981 C32.1290493,21.4043541 33.9005778,23.345115 33.7398761,25.5857136 C33.5797155,27.8265687 31.5480613,29.5185132 29.2019654,29.3653723 C28.934724,29.3479282 28.732886,29.1268435 28.7511477,28.8715658 C28.7694093,28.6162881 29.0008553,28.4234859 29.2680967,28.4409301 C31.0797623,28.5591861 32.6484425,27.2528025 32.7721132,25.5224889 C32.8962005,23.7923895 31.5283539,22.2938739 29.7169501,22.1755368 C29.4497097,22.1580783 29.2478848,21.9369827 29.2661615,21.681706 C29.2838844,21.4341649 29.5020636,21.2453812 29.7589449,21.250086 L29.783136,21.2510981 Z" id="Stroke-15" fill="#19223A" fill-rule="nonzero"></path>
                <path d="M34.4643863,11.8817718 C36.7065627,11.7497347 38.6248965,13.5644306 38.7492762,15.9350121 C38.7634452,16.2050621 38.5678859,16.4361258 38.3124824,16.4511073 C38.0570789,16.4660889 37.8385472,16.259315 37.8243782,15.989265 C37.728341,14.1588697 36.2471976,12.757745 34.5158244,12.8597019 C32.784822,12.9613489 31.4597806,14.52753 31.5563015,16.3580043 C31.570541,16.6280501 31.3750421,16.8591709 31.1196425,16.874227 C30.8642429,16.8892831 30.6456572,16.6825731 30.6314177,16.4125273 C30.5064138,14.0418847 32.222567,12.0134148 34.4643863,11.8817718 Z" id="Stroke-17" fill="#19223A" fill-rule="nonzero"></path>
                <path d="M35.4529636,19.5489065 C37.6428846,18.8975393 39.9497172,20.1325487 40.6050834,22.3073912 C40.6797436,22.5551519 40.5380073,22.8161036 40.2885066,22.8902431 C40.0390059,22.9643826 39.7762217,22.8236347 39.7015616,22.575874 C39.1955495,20.8966654 37.4144569,19.9431216 35.7235497,20.4460628 C34.0322722,20.949025 33.0721261,22.7175632 33.578578,24.3973022 C33.653276,24.6450517 33.5115796,24.9060248 33.2620903,24.9802019 C33.012601,25.054379 32.7497952,24.9136708 32.6750972,24.6659213 C32.0192569,22.4907085 33.2627595,20.2002425 35.4529636,19.5489065 Z" id="Stroke-19" fill="#19223A" fill-rule="nonzero"></path>
                <path d="M31.877189,6.04659495 C31.9023833,5.79067534 32.1384176,5.60286387 32.4043863,5.62710628 C34.7394397,5.83994081 36.4524935,7.83354759 36.2306724,10.0800287 C36.1121333,11.2864842 35.4518673,12.3581745 34.4408836,13.0405568 C34.2221695,13.1881819 33.9204937,13.137252 33.7670719,12.9268016 C33.61365,12.7163512 33.6665798,12.4260736 33.8852938,12.2784485 C34.66673,11.7510036 35.1759121,10.9245405 35.267519,9.99219364 C35.4388103,8.25745034 34.1161864,6.71821566 32.3131496,6.55387316 C32.0471809,6.52963075 31.8519947,6.30251456 31.877189,6.04659495 Z" id="Stroke-21" fill="#19223A" fill-rule="nonzero"></path>
                <path d="M0.625,22.4631095 C0.625,19.5628885 2.34349565,17.0711592 4.80450287,15.9711678 C4.49834336,15.2127901 4.32674682,14.3843885 4.32674682,13.5142756 C4.32674682,9.92593372 7.19799858,7.01709082 10.740225,7.01709082 C10.8982503,7.01709082 11.0531702,7.02955762 11.2084351,7.04109232 C11.2017645,6.92155083 11.1906084,6.80329098 11.1906084,6.6818853 C11.1906084,3.33658779 13.8672614,0.625 17.1694597,0.625 C20.471543,0.625 23.1238137,3.33658779 23.1238137,6.6818853 C23.1238137,7.17846018 23.1529115,7.65872335 22.9228893,8.12069412 L22.9228893,36.2442858 C23.0379004,38.9665928 22.7075886,40.0275526 22.7075886,40.0275526 C21.8076268,42.2255547 19.6670405,43.75 17.1779706,43.75 C13.8757723,43.75 11.1948638,41.0334022 11.1948638,37.6882212 C11.1948638,37.5486396 11.2041797,37.4101066 11.2133806,37.2729718 C8.34442908,36.8276623 6.14392198,34.3233496 6.14392198,31.292402 C6.14392198,30.6506529 6.24363659,30.0324394 6.42615918,29.4517427 C3.13178163,28.8741918 0.625,25.9659315 0.625,22.4631095" id="Fill-23" fill="#A700FF"></path>
                <path d="M17.0570371,0.00089661045 C13.5672236,0.0582062029 10.7353662,2.85579565 10.566943,6.36219179 L10.5657645,6.38986587 L10.5086379,6.39134983 C6.72712666,6.51557297 3.69943766,9.65975844 3.69943766,13.5204541 L3.70003726,13.6137303 C3.70882711,14.2971829 3.81416494,14.9678205 4.00987504,15.611814 L4.02249767,15.6525052 L3.99149592,15.6694106 C1.56453336,17.0038815 0,19.587971 0,22.4629132 L0.000805106652,22.575968 C0.0501314182,26.0376102 2.36107635,28.9993565 5.57356512,29.9067831 L5.65256742,29.9284682 L5.64275787,29.9768355 C5.55848164,30.405312 5.51547927,30.8431335 5.51547927,31.2859159 L5.51619674,31.3851956 C5.56063077,34.4579435 7.66438035,37.0677888 10.5502266,37.7811879 L10.5641554,37.7845267 L10.566807,37.8981215 C10.6820409,41.4926172 13.5986484,44.375 17.1748112,44.375 C19.8752499,44.375 22.2709764,42.7363206 23.2849065,40.2601899 C23.2919856,40.2429018 23.2983131,40.2253077 23.3038707,40.2074582 L23.3132187,40.1758547 L23.3238684,40.1365877 L23.3356989,40.0895646 L23.3485891,40.0346931 L23.3553936,40.0042853 C23.3680967,39.9466098 23.3806866,39.8841678 23.393046,39.8168684 L23.4113974,39.7122649 C23.4144223,39.69422 23.4174291,39.6758687 23.4204159,39.6572095 L23.4380836,39.5415489 C23.4409834,39.5216526 23.4438598,39.5014457 23.4467106,39.4809266 L23.4630323,39.3578993 L23.4785264,39.2292896 C23.4810201,39.2075192 23.4834691,39.1855809 23.4858727,39.1634742 L23.4997468,39.0288091 C23.501967,39.0060269 23.5041409,38.9830753 23.5062678,38.959954 L23.5184608,38.8191856 L23.5294992,38.6743215 L23.5393559,38.5253406 C23.5408987,38.5001661 23.5423912,38.4748193 23.5438327,38.4492996 L23.551866,38.2941032 C23.5543371,38.2416773 23.5565998,38.1885562 23.5586499,38.1347366 L23.5641571,37.9711785 L23.5683607,37.8034074 C23.5707225,37.6901509 23.572197,37.5740716 23.5727482,37.4551411 L23.572878,37.2746032 L23.5715956,37.0897671 C23.5709297,37.0274363 23.570024,36.9643855 23.5688739,36.9006113 L23.5646859,36.7071147 L23.5590043,36.5092558 L23.5518022,36.3070133 L23.5482782,36.2211157 L23.5482782,8.27334061 L23.5627161,8.23944719 C23.6829602,7.94862815 23.7302159,7.67613097 23.7446761,7.28061553 L23.7476311,7.17909199 C23.7480175,7.16171699 23.7483528,7.14410797 23.7486398,7.1262547 L23.75,7.01612234 C23.75,6.99725119 23.75,6.97811535 23.75,6.95870459 L23.7491117,6.69293101 C23.7491117,2.99244746 20.8116385,0 17.1663057,0 L17.0570371,0.00089661045 Z M17.1663057,1.2807209 C20.1117589,1.2807209 22.4847789,3.69815154 22.4847789,6.69293101 L22.4856721,6.94176214 L22.4848679,7.07189709 L22.4833984,7.15088599 L22.4810956,7.22418212 L22.4778852,7.29223241 C22.4772704,7.3031618 22.4766147,7.31389123 22.4759165,7.32443003 L22.4712056,7.38544955 C22.459841,7.51302458 22.4407786,7.61152799 22.4106199,7.70141613 L22.3959002,7.74236572 C22.3907227,7.75586133 22.3852702,7.76922751 22.3795304,7.78253876 L22.3614363,7.8223822 C22.3582728,7.82902014 22.3550344,7.83566296 22.3517194,7.84231998 C22.3071814,7.93176117 22.2839799,8.03053942 22.2839799,8.13071487 L22.2841244,36.2479662 L22.291905,36.4497718 L22.2978886,36.6336868 L22.3025347,36.8134187 C22.3031991,36.8430266 22.3038088,36.8724609 22.3043644,36.9017222 L22.3070533,37.0752168 L22.3084698,37.2445778 C22.3086013,37.2724612 22.3086808,37.3001733 22.308709,37.3277144 L22.3082657,37.4909122 L22.306615,37.6500261 C22.3062407,37.6762058 22.3058172,37.7022162 22.305345,37.7280577 L22.3019321,37.8810826 L22.2973768,38.0300731 C22.2965239,38.0545697 22.2956244,38.0788991 22.2946789,38.1030616 L22.2884589,38.2460374 L22.2811615,38.3850283 L22.2728129,38.5200539 L22.2634389,38.6511342 L22.2530656,38.778289 C22.2512549,38.7991554 22.2494036,38.8198591 22.2475123,38.8404004 L22.2356888,38.9617039 L22.2229311,39.0791314 L22.209265,39.1927026 L22.1947166,39.3024373 L22.1875202,39.3530492 L22.1729569,39.4486677 L22.158243,39.5368714 C22.1557832,39.5509581 22.1533209,39.5647388 22.1508581,39.5782149 L22.1360898,39.6554292 C22.1336324,39.6676931 22.1311782,39.6796555 22.1287292,39.6913177 L22.1100522,39.7751744 L22.1033757,39.8020114 L22.1170532,39.7694979 C21.2979928,41.7697351 19.3615278,43.0942791 17.1748112,43.0942791 C14.2534868,43.0942791 11.8755861,40.7148008 11.8283202,37.7666879 L11.8276531,37.6593163 L11.8284516,37.6057415 L11.8312586,37.5280406 L11.8364163,37.4332792 L11.8446531,37.3056501 C11.8669319,36.9736249 11.6344266,36.6796527 11.3096834,36.6292515 C8.71807523,36.227026 6.77981203,33.9650514 6.77981203,31.2859159 C6.77981203,30.7228306 6.8656489,30.1702917 7.03207315,29.6408589 C7.14841081,29.2707628 6.91532391,28.8818173 6.53750436,28.8155861 C3.50856786,28.2846179 1.26433276,25.6113938 1.26433276,22.4629132 C1.26433276,19.8836859 2.77340858,17.5853063 5.06424581,16.5614662 C5.37752299,16.4214537 5.52380317,16.0542367 5.39418608,15.7331949 C5.11130712,15.0325467 4.96377043,14.286175 4.96377043,13.5204541 C4.96377043,10.2882878 7.55024202,7.66825819 10.7410815,7.66825819 L10.8002961,7.66887684 L10.8844393,7.67186697 L10.9856319,7.67776383 L11.1627649,7.69052766 C11.5433391,7.71879818 11.8616956,7.40166634 11.8401583,7.01574014 L11.8273121,6.81205796 L11.8247777,6.76116818 L11.823401,6.70605612 L11.8233504,6.69293101 C11.8233504,3.70367791 14.2153031,1.2807209 17.1663057,1.2807209 Z" id="Stroke-25" fill="#19223A" fill-rule="nonzero"></path>
                <path d="M17.8125,0 C21.4370086,0 24.375,2.96832429 24.375,6.63028379 C24.375,9.07263622 23.0562916,11.2811793 20.977816,12.4394326 C20.7450495,12.5691442 20.452276,12.4836562 20.3238881,12.2484896 C20.1955002,12.0133231 20.2801158,11.7175308 20.5128823,11.5878191 C22.287312,10.5989987 23.4123573,8.7147984 23.4123573,6.63028379 C23.4123573,3.50545614 20.9053529,0.972568478 17.8125,0.972568478 C14.7196471,0.972568478 12.2126427,3.50545614 12.2126427,6.63028379 C12.2126427,7.64843638 12.4786752,8.62599387 12.9764481,9.4850263 C13.1107494,9.71679711 13.0336524,10.0146798 12.8042469,10.1503659 C12.5748415,10.2860521 12.2799989,10.20816 12.1456976,9.97638924 C11.5621356,8.96930614 11.25,7.82233905 11.25,6.63028379 C11.25,2.96832429 14.1879914,0 17.8125,0 Z" id="Stroke-27" fill="#19223A" fill-rule="nonzero"></path>
                <path d="M17.8125,31.25 C21.4369696,31.25 24.375,34.1879652 24.375,37.8123245 C24.375,41.4368982 21.4369892,44.375 17.8125,44.375 C14.1880108,44.375 11.25,41.4368982 11.25,37.8123245 C11.25,37.5465005 11.4654949,37.3310075 11.7313214,37.3310075 C11.9971478,37.3310075 12.2126427,37.5465005 12.2126427,37.8123245 C12.2126427,40.9052587 14.7196723,43.4123659 17.8125,43.4123659 C20.9053277,43.4123659 23.4123573,40.9052587 23.4123573,37.8123245 C23.4123573,34.7196162 20.9053196,32.2126341 17.8125,32.2126341 C17.5466736,32.2126341 17.3311786,31.9971411 17.3311786,31.7313171 C17.3311786,31.465493 17.5466736,31.25 17.8125,31.25 Z" id="Stroke-29" fill="#19223A" fill-rule="nonzero"></path>
                <path d="M10.7975161,6.875 C11.0830079,6.875 11.3144448,7.1007659 11.3144448,7.37926225 C11.3144448,7.6577586 11.0830079,7.8835245 10.7975161,7.8835245 C7.47621807,7.8835245 4.78385742,10.5099134 4.78385742,13.7498286 C4.78385742,16.9900378 7.47616805,19.6164755 10.7975161,19.6164755 C11.3681538,19.6164755 11.9277465,19.5390855 12.4649511,19.3882462 C12.7393038,19.3112119 13.025728,19.4657204 13.1046973,19.7333506 C13.1836667,20.0009808 13.0252771,20.2803866 12.7509243,20.3574209 C12.1209854,20.5342987 11.4651412,20.625 10.7975161,20.625 C6.90517576,20.625 3.75,17.5470221 3.75,13.7498286 C3.75,9.9529207 6.90523438,6.875 10.7975161,6.875 Z" id="Stroke-31" fill="#19223A" fill-rule="nonzero"></path>
                <path d="M4.4872717,15.6767874 C4.77241127,15.5481503 5.11139459,15.6674085 5.24441215,15.9431581 C5.3774297,16.2189077 5.25411044,16.5467279 4.96897088,16.675365 C2.65196186,17.7206545 1.13941174,19.9714165 1.13941174,22.487761 C1.13941174,26.0281817 4.10690052,28.8981104 7.76734072,28.8981104 C9.1612742,28.8981104 10.4886854,28.4818836 11.6004057,27.7184593 C11.8569468,27.5422911 12.2125902,27.6005976 12.3947574,27.8486905 C12.5769246,28.0967835 12.5166325,28.4407151 12.2600914,28.6168833 C10.957164,29.5116107 9.39961536,30 7.76734072,30 C3.47760633,30 0,26.6367246 0,22.487761 C0,19.5392651 1.77265445,16.9014528 4.4872717,15.6767874 Z" id="Stroke-33" fill="#19223A" fill-rule="nonzero"></path>
                <path d="M14.5692354,29.4374844 C14.7911336,29.3052706 15.0716231,29.3897305 15.1957261,29.6261308 C15.3198291,29.862531 15.2405505,30.1613518 15.0186523,30.2935655 C13.5145049,31.1897827 12.9772065,33.2149116 13.81854,34.816942 C14.6597254,36.4193956 16.5607968,36.9916143 18.0647963,36.0951613 C18.2866754,35.9629112 18.567177,36.047325 18.6913142,36.2837049 C18.8154514,36.5200848 18.736216,36.8189186 18.5143369,36.9511687 C16.5665364,38.1121476 14.1043822,37.371044 13.0150052,35.295787 C11.9253906,33.2209904 12.621274,30.5981396 14.5692354,29.4374844 Z" id="Stroke-35" fill="#19223A" fill-rule="nonzero"></path>
                <path d="M20.2168654,21.2510981 C20.4841055,21.2336396 20.7155625,21.4264293 20.7338392,21.681706 C20.7521159,21.9369827 20.5502913,22.1580783 20.2830512,22.1755368 C18.4716086,22.2938766 17.1037047,23.7924222 17.2278982,25.5225725 C17.3516675,27.2528316 18.9202762,28.5591839 20.731904,28.4409301 C20.9991451,28.423486 21.2305907,28.6162882 21.2488523,28.8715659 C21.267114,29.1268436 21.0652762,29.3479283 20.7980352,29.3653724 C18.4519826,29.5185106 16.4204271,27.8266118 16.2601403,25.5858494 C16.0992997,23.3451651 17.8709099,21.4043571 20.2168654,21.2510981 Z" id="Stroke-37" fill="#19223A" fill-rule="nonzero"></path>
                <path d="M11.9184757,14.3457766 C12.8870855,12.2254002 15.3959774,11.2896268 17.5223092,12.2557909 C19.6487917,13.2214243 20.5870736,15.7232282 19.6180064,17.8435799 C19.5076205,18.085108 19.2217675,18.1916796 18.9795359,18.0816143 C18.7373044,17.9715489 18.6304223,17.6865261 18.7408082,17.444998 C19.4890805,15.8077529 18.7646295,13.8761008 17.122669,13.1304882 C15.4807808,12.3844459 13.543654,13.1069608 12.7957468,14.7441989 C12.6854051,14.9857471 12.3995716,15.0923707 12.1573199,14.9823494 C11.9150682,14.8723282 11.808134,14.5873248 11.9184757,14.3457766 Z" id="Stroke-39" fill="#19223A" fill-rule="nonzero"></path>
                <path d="M9.39492373,22.3073694 C10.0504046,20.1325577 12.3573145,18.8975398 14.547082,19.5489051 C16.7372396,20.2002326 17.9806675,22.4906533 17.3249525,24.6658973 C17.2502687,24.9136506 16.987473,25.0543728 16.7379819,24.9802092 C16.4884908,24.9060456 16.3467815,24.6450804 16.4214653,24.3973271 C16.9278309,22.7175292 15.9677367,20.9490152 14.276491,20.4460584 C12.585718,19.9431233 10.8045303,20.8966927 10.2984227,22.5759006 C10.2237498,22.8236571 9.96096021,22.9643907 9.71146585,22.8902378 C9.4619715,22.816085 9.32025076,22.5551259 9.39492373,22.3073694 Z" id="Stroke-41" fill="#19223A" fill-rule="nonzero"></path>
                <path d="M17.5956088,5.62710652 C17.8615785,5.60286274 18.0976149,5.790673 18.1228108,6.04659248 C18.1480066,6.30251196 17.9528208,6.52962915 17.6868511,6.55387293 C15.8838756,6.71821845 14.5611786,8.25749474 14.7324828,9.99236175 C14.8241871,10.9246811 15.3332857,11.7510937 16.1146723,12.2784315 C16.333397,12.4260433 16.3863462,12.7163176 16.2329375,12.9267773 C16.0795289,13.1372371 15.7778552,13.1881855 15.5591304,13.0405737 C14.5481595,12.3582953 13.8879945,11.2866587 13.7693298,10.0802441 C13.5474905,7.83358794 15.260623,5.83994606 17.5956088,5.62710652 Z" id="Stroke-43" fill="#19223A" fill-rule="nonzero"></path>
            </g>
            <g id="Music-Note" transform="translate(521.000000, 433.000000)">
                <path d="M30.8305563,10.9367219 L30.8305563,23.9429283 C30.4843105,24.0135401 30.104617,24.1039728 29.708819,24.2080324 C29.1420661,24.3542113 28.538149,24.5332185 27.9032618,24.7617779 C26.5938456,25.2337624 25.5359067,26.0216419 24.8502286,26.9321631 C24.0765953,27.9591318 23.7799016,29.1415706 24.1633116,30.2038452 C24.8836763,32.2069918 27.8053962,33.2104233 30.5140418,32.0118801 C30.6323477,31.9604698 30.7426012,31.8991489 30.8503772,31.8341117 C32.7191135,30.7154714 33.026337,27.8340126 33.0554489,25.7992765 C33.0597847,25.5942544 33.0597847,25.4028592 33.0622623,25.2188967 L33.0721727,25.2188967 L33.0721727,7.78582312 L17.3628953,13.224174 L17.3628953,13.9575462 L17.3628953,29.8972412 C17.0166495,29.9697112 16.6375754,30.0582857 16.2417774,30.1623453 C15.6762633,30.3085242 15.073585,30.486912 14.4411754,30.7167102 C13.1317592,31.1868365 12.0732009,31.9759548 11.3875228,32.886476 C10.6132701,33.9146835 10.3171958,35.0965029 10.6987476,36.1587775 C11.4184929,38.1613047 14.3402128,39.1641168 17.0500972,37.966193 C17.1677837,37.9141632 17.2786566,37.8528424 17.3864326,37.7884246 C19.2545495,36.6697843 19.5636312,33.7883255 19.5927431,31.75297 L19.5927431,31.6321866 L19.6051311,31.6321866 L19.6051311,15.5543649 L19.6051311,14.8209928 L30.8305563,10.9367219 Z" id="Fill-1" fill="#FF6B1B"></path>
                <path d="M50,24.9996903 C50,38.8067837 38.8074031,49.9993806 25.0003097,49.9993806 C11.1932163,49.9993806 0,38.8067837 0,24.9996903 C0,11.1925969 11.1932163,0 25.0003097,0 C38.8074031,0 50,11.1925969 50,24.9996903 Z" id="Stroke-3" stroke="#19223A" stroke-width="8" stroke-linecap="round" stroke-linejoin="round"></path>
            </g>
            <g id="Video" transform="translate(388.000000, 11.000000)">
                <polygon id="Rectangle" fill="#FE5353" points="0.740740741 0 39.2592593 0 40 12 0 12"></polygon>
                <polygon id="Rectangle-Copy-142" fill="#FF2929" transform="translate(20.000000, 18.000000) scale(1, -1) translate(-20.000000, -18.000000) " points="0.740740741 12 39.2592593 12 40 24 0 24"></polygon>
                <polygon id="Triangle" fill="#FFFFFF" transform="translate(22.000000, 9.200000) rotate(90.000000) translate(-22.000000, -9.200000) " points="24.8 4 24.8 14.4 19.2 14.4"></polygon>
                <polygon id="Triangle-Copy-2" fill="#DEDEDE" transform="translate(22.000000, 14.800000) scale(1, -1) rotate(90.000000) translate(-22.000000, -14.800000) " points="24.8 9.6 24.8 20 19.2 20"></polygon>
            </g>
            <g id="Bulb" transform="translate(167.000000, 363.000000)">
                <path d="M20.4874992,47.273794 C20.2439809,47.273794 20.0063508,47.1959859 19.809938,47.0525667 L19.7649355,47.0197612 C19.5664197,47.1791626 19.3144898,47.273794 19.0444747,47.273794 L14.0239607,47.273794 C13.3901402,47.273794 12.8757657,46.7594195 12.8757657,46.1260197 C12.8757657,40.7295034 10.1882325,37.394691 7.34255955,33.8638863 C4.2920621,30.0769459 1.14777437,26.1739242 1.14777437,19.4340619 C1.14777437,8.66752606 8.89998297,1.14790055 20.0004626,1.14790055 C31.0996806,1.14790055 38.8523097,8.67131132 38.8523097,19.4437353 C38.8523097,26.1764477 35.708022,30.0782076 32.6676186,33.8516894 C29.8152163,37.389644 27.1255801,40.7261387 27.1255801,46.1260197 C27.1255801,46.7594195 26.6116262,47.273794 25.9778058,47.273794 L20.4874992,47.273794 Z" id="Fill-1" fill="#FFFFFF"></path>
                <g id="Group-5">
                    <mask id="mask-32" fill="white">
                        <use xlink:href="#path-31"></use>
                    </mask>
                    <g id="Clip-4"></g>
                    <path d="M5.64205338,5.43138273 C2.00399976,8.95377569 -8.41168472e-05,13.9263431 -8.41168472e-05,19.4343142 C-8.41168472e-05,26.578358 3.27332297,30.6416223 6.4390605,34.5715614 C9.16360516,37.952638 11.7283278,41.1343577 11.7283278,46.1258514 C11.7283278,47.3939129 12.7558151,48.4214002 14.0238766,48.4214002 L19.0448111,48.4214002 C19.2954794,48.4214002 19.5381565,48.3806035 19.7661131,48.3053189 C19.9974344,48.3814447 20.2409527,48.4214002 20.4874151,48.4214002 L25.9777217,48.4214002 C27.2457831,48.4214002 28.2732704,47.3939129 28.2732704,46.1258514 C28.2732704,41.1309931 30.8392548,37.947591 33.5566495,34.5774495 C36.7270135,30.6433046 40,26.5813021 40,19.4435671 C40,13.9355959 37.9959161,8.96134621 34.3578625,5.43642974 C30.7383146,1.93086016 25.6395719,-4.20584243e-05 20.0003785,-4.20584243e-05 C14.3599234,-4.20584243e-05 9.26076012,1.92875724 5.64205338,5.43138273 Z M37.7044513,19.4435671 C37.7044513,25.7603217 34.8238698,29.3462228 31.773793,33.1314809 C28.9239142,36.6664914 25.9777217,40.3180037 25.9777217,46.1258514 L20.4874151,46.1258514 L19.0448111,46.1258514 L14.0238766,46.1258514 C14.0238766,40.3180037 11.0755811,36.6664914 8.22654349,33.1314809 C5.1773078,29.3462228 2.29546463,25.7514894 2.29546463,19.4343142 C2.29546463,9.34323669 9.57661888,2.29550669 20.0003785,2.29550669 C30.4216147,2.29550669 37.7044513,9.35248954 37.7044513,19.4435671 Z" id="Fill-3" fill="#19223A" mask="url(#mask-32)"></path>
                </g>
                <path d="M13.9043886,50.6901998 C12.7368468,50.6901998 11.7863264,49.7396794 11.7863264,48.571717 L11.7863264,48.4623651 C11.7863264,47.2948232 12.7368468,46.3447235 13.9043886,46.3447235 L25.9717914,46.3447235 C27.1401744,46.3447235 28.0902742,47.2948232 28.0902742,48.4623651 L28.0902742,48.571717 C28.0902742,49.7396794 27.1401744,50.6901998 25.9717914,50.6901998 L13.9043886,50.6901998 Z" id="Fill-6" fill="#808080"></path>
                <path d="M25.9719596,45.1971594 L13.9045568,45.1971594 C12.1036151,45.1971594 10.6387202,46.6616337 10.6387202,48.4625754 L10.6387202,48.5715067 C10.6387202,50.372869 12.1036151,51.8377638 13.9045568,51.8377638 L25.9719596,51.8377638 C27.7729013,51.8377638 29.2382168,50.372869 29.2382168,48.5715067 L29.2382168,48.4625754 C29.2382168,46.6616337 27.7729013,45.1971594 25.9719596,45.1971594 M25.9719596,47.4927081 C26.507784,47.4927081 26.9426681,47.926751 26.9426681,48.4625754 L26.9426681,48.5715067 C26.9426681,49.1077516 26.507784,49.5422151 25.9719596,49.5422151 L13.9045568,49.5422151 C13.3691531,49.5422151 12.934269,49.1077516 12.934269,48.5715067 L12.934269,48.4625754 C12.934269,47.926751 13.3691531,47.4927081 13.9045568,47.4927081 L25.9719596,47.4927081" id="Fill-8" fill="#19223A"></path>
                <path d="M13.9043886,54.1066475 C12.7368468,54.1066475 11.7863264,53.1561272 11.7863264,51.9881648 L11.7863264,51.879654 C11.7863264,50.7116916 12.7368468,49.7607507 13.9043886,49.7607507 L25.9717914,49.7607507 C27.1401744,49.7607507 28.0902742,50.7116916 28.0902742,51.879654 L28.0902742,51.9881648 C28.0902742,53.1561272 27.1401744,54.1066475 25.9717914,54.1066475 L13.9043886,54.1066475 Z" id="Fill-10" fill="#808080"></path>
                <path d="M25.9719596,48.6131866 L13.9045568,48.6131866 C12.1036151,48.6131866 10.6387202,50.078502 10.6387202,51.8798643 L10.6387202,51.9879545 C10.6387202,53.7893167 12.1036151,55.2542116 13.9045568,55.2542116 L25.9719596,55.2542116 C27.7729013,55.2542116 29.2382168,53.7893167 29.2382168,51.9879545 L29.2382168,51.8798643 C29.2382168,50.078502 27.7729013,48.6131866 25.9719596,48.6131866 M25.9719596,50.9087353 C26.507784,50.9087353 26.9426681,51.3431988 26.9426681,51.8798643 L26.9426681,51.9879545 C26.9426681,52.5241994 26.507784,52.9586629 25.9719596,52.9586629 L13.9045568,52.9586629 C13.3691531,52.9586629 12.934269,52.5241994 12.934269,51.9879545 L12.934269,51.8798643 C12.934269,51.3431988 13.3691531,50.9087353 13.9045568,50.9087353 L25.9719596,50.9087353" id="Fill-12" fill="#19223A"></path>
                <path d="M13.9043886,57.5230533 C12.7368468,57.5230533 11.7863264,56.5721123 11.7863264,55.4041499 L11.7863264,55.2956392 C11.7863264,54.1276768 12.7368468,53.1771564 13.9043886,53.1771564 L25.9717914,53.1771564 C27.1401744,53.1771564 28.0902742,54.1276768 28.0902742,55.2956392 L28.0902742,55.4041499 C28.0902742,56.5721123 27.1401744,57.5230533 25.9717914,57.5230533 L13.9043886,57.5230533 Z" id="Fill-14" fill="#808080"></path>
                <path d="M25.9719596,52.0295923 L13.9045568,52.0295923 C12.1036151,52.0295923 10.6387202,53.4944872 10.6387202,55.2958495 L10.6387202,55.4039396 C10.6387202,57.2053019 12.1036151,58.6706174 13.9045568,58.6706174 L25.9719596,58.6706174 C27.7729013,58.6706174 29.2382168,57.2053019 29.2382168,55.4039396 L29.2382168,55.2958495 C29.2382168,53.4944872 27.7729013,52.0295923 25.9719596,52.0295923 M25.9719596,54.3251411 C26.507784,54.3251411 26.9426681,54.7600252 26.9426681,55.2958495 L26.9426681,55.4039396 C26.9426681,55.9406051 26.507784,56.3750686 25.9719596,56.3750686 L13.9045568,56.3750686 C13.3691531,56.3750686 12.934269,55.9406051 12.934269,55.4039396 L12.934269,55.2958495 C12.934269,54.7600252 13.3691531,54.3251411 13.9045568,54.3251411 L25.9719596,54.3251411" id="Fill-16" fill="#19223A"></path>
            </g>
        </g>
    </g>
</svg>