<?xml version="1.0" encoding="UTF-8"?>
<svg width="551" height="361" xmlns="http://www.w3.org/2000/svg" xmlns:xlink="http://www.w3.org/1999/xlink">
  <defs>
    <path id="a" d="M0 386.318h552v-357H0z"/>
    <path d="M248 62.318c-89.884.943-104.776 32.874-106.943 116.16-1.819 69.88 11.943 103.84 68.943 119.84 36.45 10.231 136.93 12.061 174.007-14.43 33.006-23.582 46.502-85.398 40.993-132.57-5.509-47.173-68.133-90.142-177-89z" id="d"/>
    <path d="M248 62.318c-89.884.943-104.776 32.874-106.943 116.16-1.819 69.88 11.943 103.84 68.943 119.84 36.45 10.231 136.93 12.061 174.007-14.43 33.006-23.582 46.502-85.398 40.993-132.57-5.509-47.173-68.133-90.142-177-89z" id="f"/>
    <path d="M66.884 25.818a9.242 9.242 0 001.95-5.684c0-5.127-4.145-9.282-9.258-9.282-1.423 0-2.764.33-3.97.906C55.34 5.22 49.983 0 43.398 0c-6.025 0-11.02 4.369-12.036 10.117a9.221 9.221 0 00-2.929-.482c-4.772 0-8.698 3.623-9.2 8.273a8.787 8.787 0 00-3.197-.607c-4.88 0-8.837 3.965-8.837 8.86 0 .356.027.709.069 1.055C3.018 28.858 0 32.98 0 37.817 0 44.1 5.076 49.19 11.34 49.19a11.25 11.25 0 005.807-1.617 8.792 8.792 0 0013.079.287A11.306 11.306 0 0038.979 52c4.108 0 7.699-2.2 9.687-5.483.536.102 1.087.161 1.653.161a8.77 8.77 0 004.85-1.458 11.259 11.259 0 006.49 2.056C67.923 47.276 73 42.185 73 35.904c0-4.39-2.484-8.19-6.116-10.086" id="h"/>
    <filter x="-9.5%" y="-11.1%" width="118.9%" height="122.1%" filterUnits="objectBoundingBox" id="c">
      <feMorphology radius="4" operator="dilate" in="SourceAlpha" result="shadowSpreadOuter1"/>
      <feOffset in="shadowSpreadOuter1" result="shadowOffsetOuter1"/>
      <feGaussianBlur stdDeviation="5" in="shadowOffsetOuter1" result="shadowBlurOuter1"/>
      <feColorMatrix values="0 0 0 0 0 0 0 0 0 0 0 0 0 0 0 0 0 0 0.1 0" in="shadowBlurOuter1"/>
    </filter>
    <filter x="-9.5%" y="-11.1%" width="118.9%" height="122.1%" filterUnits="objectBoundingBox" id="e">
      <feMorphology radius="4" operator="dilate" in="SourceAlpha" result="shadowSpreadOuter1"/>
      <feOffset in="shadowSpreadOuter1" result="shadowOffsetOuter1"/>
      <feGaussianBlur stdDeviation="5" in="shadowOffsetOuter1" result="shadowBlurOuter1"/>
      <feColorMatrix values="0 0 0 0 0 0 0 0 0 0 0 0 0 0 0 0 0 0 0.1 0" in="shadowBlurOuter1"/>
    </filter>
    <filter x="-19.9%" y="-24%" width="139.7%" height="155.8%" filterUnits="objectBoundingBox" id="g">
      <feOffset dy="2" in="SourceAlpha" result="shadowOffsetOuter1"/>
      <feGaussianBlur stdDeviation="4.5" in="shadowOffsetOuter1" result="shadowBlurOuter1"/>
      <feColorMatrix values="0 0 0 0 0 0 0 0 0 0 0 0 0 0 0 0 0 0 0.15 0" in="shadowBlurOuter1"/>
    </filter>
  </defs>
  <g fill="none" fill-rule="evenodd">
    <path d="M451 259c35.899 0 65-29.101 65-65s-29.101-65-65-65-65 29.101-65 65 29.101 65 65 65z" stroke="#B6B6B6" opacity=".495" stroke-dasharray="62"/>
    <path d="M109 259c35.899 0 65-29.101 65-65s-29.101-65-65-65-65 29.101-65 65 29.101 65 65 65z" stroke-opacity=".454" stroke="#B6B6B6" stroke-dasharray="16"/>
    <g transform="translate(0 -24.318)">
      <g fill="#B6B6B6">
        <path d="M196.99 309.792c5.89-9.67 9.004-20.802 9.004-32.196 0-28.655-20.184-54.012-47.994-60.294l.22-.984c13.635 3.079 26.015 10.813 34.86 21.78 8.976 11.125 13.92 25.154 13.92 39.498 0 11.58-3.165 22.895-9.152 32.722l-.858-.526zM84 262.079c5.139-20.444 20.34-36.804 40.664-43.761l.336.943c-19.997 6.845-34.954 22.94-40.01 43.057l-.99-.24zM100.692 321.815C89.11 310.55 82.471 295.468 82 279.347l.993-.03c.966 33.088 27.68 59.008 60.814 59.008 3.364 0 6.74-.277 10.03-.823l.163.98a62.463 62.463 0 01-10.193.836c-16.197 0-31.508-6.216-43.115-17.503z"/>
      </g>
      <g opacity=".6" fill="#B6B6B6">
        <path d="M289.634 177.601c13.353-2.511 25.78-8.674 35.94-17.822 25.555-23.01 31.96-61.37 15.232-91.214l1.055-.593c8.202 14.63 11.245 31.881 8.569 48.575-2.715 16.938-11.256 32.61-24.048 44.129-10.326 9.297-22.958 15.56-36.529 18.112l-.22-1.187zM241.457 38.528c22.358-11.833 49.153-11.413 71.676 1.124l-.571 1.057c-22.16-12.336-48.525-12.75-70.523-1.107l-.582-1.074zM201.59 101.379c.744-19.375 8.863-37.405 22.861-50.77l.824.863c-28.73 27.43-30.396 72.064-3.79 101.612 2.701 3 5.658 5.788 8.788 8.284l-.743.932a74.956 74.956 0 01-8.93-8.419c-13.006-14.443-19.757-33.089-19.01-52.502z"/>
      </g>
      <g opacity=".6" fill="#B6B6B6">
        <path d="M303.619 350.297c12.353-5.14 23.06-13.608 30.969-24.493 19.89-27.375 18.16-65.643-4.11-90.992l.894-.787c10.919 12.428 17.406 28.43 18.265 45.06.873 16.874-4.13 33.715-14.086 47.42-8.037 11.06-18.921 19.669-31.476 24.891l-.456-1.099zM229.467 226.017c19.07-16.01 44.831-21.192 68.913-13.858l-.336 1.133c-23.695-7.216-49.043-2.12-67.805 13.635l-.772-.91zM203.278 294.772c-3.228-18.822.921-37.867 11.685-53.627l.968.66c-22.09 32.347-14.605 75.697 17.04 98.69a72.432 72.432 0 0010.153 6.173l-.525 1.05a73.572 73.572 0 01-10.318-6.273c-15.469-11.239-25.77-27.814-29.003-46.673z"/>
      </g>
      <mask id="b" fill="#fff">
        <use xlink:href="#a"/>
      </mask>
      <path fill="#8E66A3" mask="url(#b)" d="M162 364.318h38v-48h-38z"/>
      <path fill="#FDFFFF" mask="url(#b)" d="M166 322.318h11v-1h-11zM170 326.318h26v-1h-26zM166 330.318h30v-1h-30zM166 334.318h30v-1h-30zM166 338.318h19v-1h-19zM170 342.318h26v-1h-26zM166 346.318h30v-1h-30zM166 351.318h30v-1h-30zM166 354.318h30v-1h-30zM165 359.318h15v-1h-15z"/>
      <path d="M129 175.271l.038-1.01c.79.03 1.593.045 2.386.045 33.946 0 61.564-27.619 61.564-61.566 0-13.839-4.484-26.91-12.967-37.8l.799-.622C189.442 85.388 194 98.674 194 112.74c0 34.505-28.072 62.578-62.576 62.578a63.59 63.59 0 01-2.424-.047z" fill="#B6B6B6" mask="url(#b)"/>
      <path d="M173.694 68.624a62.825 62.825 0 00-8.253-6.945 62.377 62.377 0 00-12.018-6.62m-33.064-4.078a62.108 62.108 0 00-23.854 8.746" stroke="#B6B6B6" mask="url(#b)"/>
      <g mask="url(#b)">
        <g transform="translate(122 33.318)" fill-rule="nonzero">
          <path d="M28.598 27.545a.579.579 0 01-.185-.03l-10.505-3.524a.584.584 0 01-.301-.232l-6.546-9.881-3.007 4.034a.581.581 0 01-.76.155L.29 13.956a.59.59 0 01-.21-.804.582.582 0 01.798-.21l6.554 3.847 3.19-4.28a.557.557 0 01.483-.235c.19.005.364.103.47.261l6.892 10.405 10.316 3.46a.588.588 0 01-.185 1.145z" fill="#AFB9D2"/>
          <path d="M.582 31.636a.581.581 0 01-.52-.841l3.496-6.978a.584.584 0 01.617-.313l10.241 1.703 6.61-4.947L24.48 1.295a.584.584 0 011.147.208l-3.496 19.19a.58.58 0 01-.224.36l-6.991 5.234a.579.579 0 01-.446.108L4.407 24.721l-3.303 6.594a.582.582 0 01-.522.321z" fill="#8F96AC"/>
          <circle fill="#FF6464" cx="4.227" cy="23.864" r="1.227"/>
          <g transform="translate(6.545 11.727)" fill="#C3E678">
            <ellipse cx="1.173" cy="5.844" rx="1.173" ry="1.169"/>
            <ellipse cx="4.691" cy="1.169" rx="1.173" ry="1.169"/>
            <ellipse cx="11.727" cy="11.688" rx="1.173" ry="1.169"/>
            <ellipse cx="22.282" cy="15.195" rx="1.173" ry="1.169"/>
          </g>
          <g transform="translate(13.364)" fill="#FF6464">
            <ellipse cx="1.165" cy="25.565" rx="1.165" ry="1.162"/>
            <ellipse cx="8.157" cy="20.336" rx="1.165" ry="1.162"/>
            <ellipse cx="11.653" cy="1.162" rx="1.165" ry="1.162"/>
          </g>
        </g>
      </g>
      <path d="M111.679 171.318A62.478 62.478 0 0189 158.057l.688-.74A61.465 61.465 0 00112 170.366l-.321.953zM407.276 179.318c-34.339 0-62.276-27.955-62.276-62.316a62.357 62.357 0 0132.391-54.684l.48.878a61.356 61.356 0 00-31.87 53.806c0 33.81 27.487 61.314 61.275 61.314 16.731 0 32.36-6.622 44.006-18.647l.718.696c-11.836 12.222-27.72 18.953-44.724 18.953M461.345 148.318l-.863-.508a60.814 60.814 0 008.514-31.061c0-24.842-14.914-47.023-37.996-56.509l.383-.922C454.842 68.958 470 91.5 470 116.748a61.804 61.804 0 01-8.655 31.57" fill="#B6B6B6" mask="url(#b)"/>
      <path d="M426 74.333c0 2.2-1.804 3.985-4.03 3.985h-33.94c-2.226 0-4.03-1.784-4.03-3.985V48.302c0-2.2 1.804-3.984 4.03-3.984h33.94c2.226 0 4.03 1.783 4.03 3.984v26.031z" fill="#D8D8D8" mask="url(#b)"/>
      <path d="M415.055 55.125a2.998 2.998 0 11-2.11-5.615 3 3 0 012.11 5.615" fill="#FDFFFF" mask="url(#b)"/>
      <path d="M426 74.32v-3.8c-3.72.6-4.526-7.13-10.066-7.13-4.69 0-7.335 8.938-14.002-1.399-6.447-9.996-12.48-5.1-17.932 1.8v10.528c0 2.208 1.804 3.999 4.03 3.999h33.94c2.226 0 4.03-1.79 4.03-3.999" fill="#9B9B9B" mask="url(#b)"/>
      <path d="M350.731 335.318A62.54 62.54 0 01348 316.989c0-34.557 28.197-62.671 62.856-62.671 19.863 0 38.14 9.069 50.144 24.88l-.798.602c-11.813-15.56-29.8-24.483-49.346-24.483-34.107 0-61.854 27.666-61.854 61.672 0 6.146.904 12.214 2.687 18.037l-.958.292zM411.307 380.318c-12.232 0-24.094-3.512-34.307-10.155l.548-.845c10.049 6.537 21.723 9.992 33.76 9.992 6.624 0 13.144-1.04 19.379-3.09l.313.957a62.924 62.924 0 01-19.693 3.14" fill="#B6B6B6" mask="url(#b)"/>
      <path d="M453.871 340.318l-.871-.503c5.232-9.388 7.998-20.088 7.998-30.944 0-3.15-.231-6.313-.687-9.402l.99-.151c.464 3.139.699 6.353.699 9.553 0 11.032-2.812 21.906-8.129 31.447" fill="#7ACFED" mask="url(#b)"/>
      <path d="M551 105.817c0 30.653-24.848 55.5-55.5 55.5s-55.5-24.847-55.5-55.5c0-30.651 24.848-55.5 55.5-55.5s55.5 24.849 55.5 55.5" fill-opacity=".3" fill="#B2BCBF" mask="url(#b)"/>
      <path fill="#BBA4FF" mask="url(#b)" d="M493 122.318h13v-10h-13z"/>
      <path fill="#F9C2B2" mask="url(#b)" d="M494 117.318h11v-19h-11z"/>
      <path d="M524 77.276c0 13.83-10.969 25.042-24.502 25.042-13.53 0-24.498-11.212-24.498-25.042V71.36c0-13.83 10.968-25.041 24.498-25.041 13.533 0 24.502 11.211 24.502 25.041v5.917z" fill="#F9C2B2" mask="url(#b)"/>
      <path d="M493 89.318c.792 2.882 3.398 5 6.5 5 3.103 0 5.71-2.118 6.5-5h-13z" fill="#FFF" mask="url(#b)"/>
      <path fill="#F9C2B2" mask="url(#b)" d="M493 90.318h13v-1h-13zM522.408 72.413c.607-.36 6.064-2.76 7.336.95 1.36 3.958-2.91 11.645-7.744 9.621 1.247-3.048.408-10.57.408-10.57M475.592 72.413c-.607-.36-6.064-2.76-7.337.95-1.357 3.958 2.913 11.645 7.745 9.621-1.247-3.048-.408-10.57-.408-10.57"/>
      <path d="M523.937 70.209s-1.95-11.163-9.178-14.627c0 0-1.005 7.224-11.96 5.967-6.775-.778-11.292-5.143-16.713-5.03-4.473.095-6.947 2.527-6.947 2.527s5.706 11.647-4.519 18.272c-4.51-6.74-3.779-13.202-1.52-18.283-2.655 3.088-3.726 7.428-3.726 7.428-1.92-10.172 4.178-12.263 4.178-12.263s3.097-15.272 14.616-18.938l-3.098 6.628c13.1-7.544 15.585-12.572 15.585-12.572 4.718 3.859 2.68 13.054 2.68 13.054 4.97-5.486 4.56-10.247 4.56-10.247 11.277 4.205 3.6 13.272 3.6 13.272 4.594-3.68 5.31-4.879 5.31-4.879 4.77 3.455 3.406 9.091 3.406 9.091 5.21 3.708 5.789 7.774 5.789 7.774l-2.034.458c4.325 6.63-.03 12.368-.03 12.368M507.133 76.318a4.264 4.264 0 00-.133 1.054c0 1.627.896 2.946 1.999 2.946 1.105 0 2.001-1.319 2.001-2.946 0-.372-.05-.726-.137-1.054h-3.73zM489.134 76.318a4.231 4.231 0 00-.134 1.054c0 1.627.895 2.946 2 2.946s2-1.319 2-2.946c0-.372-.05-.726-.134-1.054h-3.732z" fill="#1B2135" mask="url(#b)"/>
      <path d="M507.888 112.318h-2.113c-3.57 4.858-7.697 6.108-12.964 0h-1.691c-15.295 3.97-12.265 36.947-11.016 46.721a55.96 55.96 0 0015.843 2.279c9.41 0 18.274-2.325 26.041-6.423.48-42.574-14.1-42.577-14.1-42.577" fill="#6895DD" mask="url(#b)"/>
      <path d="M523 147.545s-.851-.884-1.283-1.203c-3.2-2.367-4.15-6.101-4.833-6.023-.761.087-1.292 1.452-.47 2.741.824 1.293 3.834 5.258 3.834 5.258l2.752-.773z" fill="#F9C2B2" mask="url(#b)"/>
      <path d="M534.415 138.318s4.082 7.753 1.987 12.055c-1.274 2.615-17.433 2.945-17.433 2.945l-.969-3.735c7.339-2.552 12.05-2.802 12.015-3.547-.08-1.672-1.999-6.86-1.999-6.86l6.4-.858zM481 149.318c4.764-3.817 3.78-7.985 4.569-8 .79-.015 1.94 1.645 1.185 4-.702 2.178-1.986 3.172-1.986 3.172l-3.768.828z" fill="#F9C2B2" mask="url(#b)"/>
      <path d="M508 112.318s7.326 2.859 11.483 18.1c2.318 3.032 5.479 7.49 5.801 12.9l12.716-.956s-5.862-27.025-30-30.044" fill="#6186D1" mask="url(#b)"/>
      <path d="M465.514 140.318s-3.969 7.498-1.933 11.659c1.24 2.53 18.41 2.337 18.41 2.337L483 151.72c-6.558-3.902-13.348-4.3-12.884-4.876 1.295-1.604 2.884-5.167 2.884-5.167l-7.486-1.358z" fill="#F9C2B2" mask="url(#b)"/>
      <path d="M463 140.914l11.305 2.404c1.105-4.489 3.456-7.634 6.147-11.192.881-8.79 3.588-17.476 10.548-19.808-22.33 3.143-28 28.596-28 28.596z" fill="#6186D1" mask="url(#b)"/>
      <path d="M520 153.544c0 3.19-2.324 5.774-5.19 5.774h-27.62c-2.865 0-5.19-2.585-5.19-5.774v-19.451c0-3.19 2.325-5.775 5.19-5.775h27.62c2.866 0 5.19 2.585 5.19 5.775v19.451z" fill="#EAEAEA" mask="url(#b)"/>
      <path fill="#D7D6D6" mask="url(#b)" d="M496.735 159.318l19.265-31h-9.123l-19.877 31z"/>
      <circle fill="#FFF" mask="url(#b)" cx="501" cy="144.318" r="4"/>
      <path d="M488.653 147.183s6.632-1.774 6.712-.242c.053 1.028-6.119.972-5.94 1.98.105.574 7.57-1.025 7.575.564.003 1.378-7.651.732-7.856 1.599-.205.866 7.52-.425 7.517.936-.009 2.197-7.324.308-7.217 1.13.086.668 6.077.186 5.643 1.702-.315 1.102-5.666-.098-5.666-.098s-8.39-.396-9.742-2.062c-.956-1.174-.801-2.376-.16-3.42 1.305-2.129 9.134-2.089 9.134-2.089M514.971 146.337s-6.238-.268-6.313 1.214c-.049.996 5.76-.508 5.591.468-.097.555-6.243.445-6.249 1.982-.003 1.335 6.323-.728 6.513.111.193.838-5.662 1.11-5.66 2.427.009 2.126 5.48-1.222 5.38-.426-.08.645-3.714 1.469-3.31 2.936.294 1.066 3.332-1.384 3.332-1.384s7.846-.384 9.11-1.997c.894-1.136.75-2.298.15-3.31-1.22-2.06-8.544-2.021-8.544-2.021" fill="#F9C2B2" mask="url(#b)"/>
      <path d="M140 329.818c0 30.651-24.847 55.5-55.5 55.5-30.652 0-55.5-24.849-55.5-55.5 0-30.652 24.848-55.5 55.5-55.5 30.653 0 55.5 24.848 55.5 55.5" fill-opacity=".3" fill="#B2BCBF" mask="url(#b)"/>
      <path fill="#F9C2B2" mask="url(#b)" d="M115.703 359.318l4.297 19h-6.632L109 362.155z"/>
      <path d="M59.349 342.35c20.827 11.177 55.458 0 55.458 0s7.466-60.48-14.954-65.77c-28.137-6.64-47.616 13.552-46.83 45.923.787 32.373 6.326 19.848 6.326 19.848" fill="#FCD192" mask="url(#b)"/>
      <path d="M66.497 309.052v-.867c-.45-.32-3.474-2.314-4.339 1.111-.923 3.653 2.34 10.627 5.842 8.687a27.067 27.067 0 01-1.503-8.931" fill="#F9C2B2" mask="url(#b)"/>
      <path d="M121 370.007s-11.217-30.65-18-31.69l.86 21.14 5.22 13.86 11.92-3.31z" fill="#7ACFED" mask="url(#b)"/>
      <path fill="#FFF" mask="url(#b)" d="M80 344.318h14v-10H80z"/>
      <path fill="#F9C2B2" mask="url(#b)" d="M82 343.318h11v-18H82zM110.305 304.321c.456-.33 4.548-2.53 5.503.872 1.02 3.629-2.184 10.674-5.808 8.82.934-2.795.305-9.692.305-9.692"/>
      <path d="M112 305.618c0 13.089-10.745 23.7-24 23.7s-24-10.611-24-23.7v-5.6c0-13.09 10.745-23.7 24-23.7s24 10.61 24 23.7v5.6z" fill="#F9C2B2" mask="url(#b)"/>
      <path d="M81.103 335.318l-11.91 3.973c-.711 7.764-5.493 35.081-3.852 39.027H109c-.34-5.76-4.314-37.228-4.7-40.045l-8.906-2.955c-3.181 5.799-12.704 3.821-14.291 0" fill="#7ACFED" mask="url(#b)"/>
      <path d="M81 318.318c.792 2.305 3.399 4 6.5 4 3.102 0 5.709-1.695 6.5-4H81z" fill="#FFF" mask="url(#b)"/>
      <path fill="#F9C2B2" mask="url(#b)" d="M81 318.318h13v-1H81z"/>
      <path d="M112.007 305.35c1.516-.376 2.835 2.645 1.328 3.795-1.51 1.148-1.328-3.795-1.328-3.795" fill="#F7A692" mask="url(#b)"/>
      <path d="M76.03 304.318a6.04 6.04 0 00-.03.585c0 1.885.896 3.415 2 3.415 1.105 0 2-1.53 2-3.415 0-.2-.012-.395-.031-.585H76.03zM97.032 304.318c-.02.19-.032.385-.032.585 0 1.885.895 3.415 2 3.415s2-1.53 2-3.415c0-.2-.012-.395-.03-.585h-3.938z" fill="#1B2135" mask="url(#b)"/>
      <path d="M87.83 343.317h.15c6.556 0 9.683-4.591 11.02-7.566l-1.221-.433c-1.21 2.681-4.011 6.686-9.934 6.62-5.793-.06-8.894-2.436-10.475-4.42a9.07 9.07 0 01-1.125-1.79L75 336.17c1.532 3.453 5.655 7.071 12.83 7.147M108.416 369.318L119 366.37c-.135-.331-.28-.681-.434-1.053L108 368.259l.416 1.059z" fill="#FFF" mask="url(#b)"/>
      <path d="M55 376.126a56.323 56.323 0 005.436 3.192h.89L66 363.154l-7.174-2.836L55 376.126z" fill="#F9C2B2" mask="url(#b)"/>
      <path d="M53 370.006s11.217-30.649 18-31.688l-.861 21.138-5.219 13.862L53 370.006z" fill="#7ACFED" mask="url(#b)"/>
      <path d="M64.584 369.318L54 366.37c.135-.33.28-.682.434-1.053L65 368.259l-.416 1.059z" fill="#FFF" mask="url(#b)"/>
      <path d="M119.544 311.87c5.663-12.636-5.248-43.46-24.74-40.378 0 0-12.205-7.073-27.603 4.296-25.094 18.534-18.08 78.355-8.062 76.667l.412-7.521s.947 10.078 8.895 10.274c0 0-4.487-7.259-2.646-7.908 0 0 5.308 10.433 11.812 8.855 0 0-13.73-26.863-11.922-54.429 0 0 4.324-1.422 8.927-3.058a72.15 72.15 0 005.507-5.79c-.671 2.203-1.434 3.987-2.16 5.395 15.023-2.658 19.087-16.175 19.087-16.175s5.47 14.461 15.79 13.869c0 0 1.689 35.953-10.906 56.031 3.503.23 11.985-6.93 10.905-6.494 0 0-1.159 5.213-4.2 7.646 0 0 6.762.724 10.288-5.72 6.462-11.806.742-27.653.616-35.56" fill="#FFE2A4" mask="url(#b)"/>
      <path d="M89.988 279.318c-13.02 14.627-20.516 16.72-23.988 18.709 2.886.869 7.722-.36 10.427-1.694 1.401-1.523 2.263-2.583 2.263-2.583-.176.591-.36 1.15-.545 1.683 12.69-7.048 11.843-16.115 11.843-16.115M98 281.318c4.5 14.45 14 10.509 14 10.509-7.375-3.253-14-10.51-14-10.51" fill="#FCD192" mask="url(#b)"/>
      <path d="M63 381.318h59v-36a3 3 0 00-3-3H66a3 3 0 00-3 3v36z" fill="#4E5977" mask="url(#b)"/>
      <path fill="#353C50" mask="url(#b)" d="M63 383.318h59v-4H63z"/>
      <path d="M94 361.817a2.5 2.5 0 11-5 0 2.5 2.5 0 015 0" stroke="#D8D8D8" fill="#FFF" mask="url(#b)"/>
      <path d="M425 333.817c0 27.891 22.61 50.5 50.5 50.5s50.5-22.609 50.5-50.5c0-27.89-22.61-50.5-50.5-50.5s-50.5 22.61-50.5 50.5" fill-opacity=".3" fill="#B2BCBF" mask="url(#b)"/>
      <path fill="#F9C2B2" mask="url(#b)" d="M465 357.318h17v-10h-17zM447.141 360.318l-13.14 13.56c-4.603-.214-19.001 1.971-19.001 1.971v4.854s15.943 1.972 22.331-1.146c4.924-2.402 15.669-12.323 15.669-12.323l-5.859-6.916z"/>
      <path fill="#F9C2B2" mask="url(#b)" d="M468 353.318h11v-19h-11zM451 310.779c-.655-2.728-5.51-1.475-5.94 2.413-.645 5.807 4.08 8.884 5.88 7.965-.816-3.162.06-10.378.06-10.378M493.64 315.264c1.363-2.365 5.889.011 5.309 3.723-.866 5.546-6.388 7.215-7.949 5.911 1.64-2.726 2.64-9.634 2.64-9.634"/>
      <path d="M495.435 321.11c-1.111 12.796-12.162 22.252-24.683 21.115-12.521-1.134-21.772-12.428-20.662-25.226l.477-5.473c1.11-12.796 12.161-22.25 24.682-21.116 12.52 1.136 21.772 12.43 20.66 25.226l-.474 5.474z" fill="#F9C2B2" mask="url(#b)"/>
      <path d="M465 332.318c.716 2.13 2.897 3.771 5.634 3.978 2.738.207 5.223-1.08 6.366-3.068l-12-.91z" fill="#FFF" mask="url(#b)"/>
      <path d="M465 347.318c-7.135-.013-24.514 14.615-26.943 18.959-.912 1.627 9.491 12.04 9.491 12.04l10.89-11.42 6.562-19.58zM481 347.318l14.808 32s1.38-.279 3.231-.744a51.48 51.48 0 008.961-6.03c-8.832-20.89-27-25.226-27-25.226" fill="#64D0DA" mask="url(#b)"/>
      <path d="M475.84 384.318a51.25 51.25 0 0018.16-3.303c-.26-10.873-2.42-26.532-11.996-33.697-6.988 5.143-12.593 5.12-16.839 0 0 0-9.778 7.38-12.165 31.654 6.867 3.418 14.625 5.346 22.84 5.346" fill="#FFF" mask="url(#b)"/>
      <path d="M396.265 372.615c-.122 1.093.651 2.078 1.728 2.2l22.69 2.613a1.97 1.97 0 002.17-1.753l1.387-12.41c.123-1.092-.65-2.077-1.728-2.2l-22.69-2.611c-1.077-.125-2.047.66-2.17 1.751l-1.387 12.41z" fill="#BFBFBF" mask="url(#b)" transform="rotate(58 410.252 367.94)"/>
      <path d="M414.538 373.179c-.068 2.798-.764 5.188-1.955 5.198-1.215.012.25-4.53-.946-4.367-.683.092.134 5.542-1.741 5.465-1.627-.065-.19-5.668-1.204-5.954-1.012-.284-.167 5.497-1.772 5.423-2.591-.12.486-5.832-.488-5.749-.79.068-.796 4.79-2.434 3.865-.591-.336-.736-2.988.311-5.423.728-2.297 10.01-.87 10.229 1.542" fill="#F9C2B2" mask="url(#b)" transform="rotate(-122 409.038 374.976)"/>
      <path d="M418.022 371.068a1.499 1.499 0 102.956-.501 1.498 1.498 0 00-1.728-1.228 1.497 1.497 0 00-1.228 1.73" fill="#F9C2B2" mask="url(#b)"/>
      <path d="M477 321.318a2 2 0 104 0 2 2 0 00-4 0M462 320.318a2.001 2.001 0 004 0 2 2 0 10-4 0" fill="#1B2135" mask="url(#b)"/>
      <path d="M473 288.487c2.555-8.094 29.81-15.483 41.043 14.368 5.958 15.834 7.679 15.038 7.679 15.038 1.481 2.825-3.21 7.445-8.025 6.067 0 0 1.193.546 1.853 2.252.74 1.92-12.726 3.028-13.416-11.66-1.13-24.09-18.412-26.475-17.548-21.619L473 288.487z" fill="#A0746B" mask="url(#b)"/>
      <path d="M451.7 315.562c.664-4.468 4.047-21.753 24.267-19.499 21.533 2.4 18.463 23.187 20.06 25.08 2.548 3.019 10.495-34.028-18.006-35.769-21.86-1.336-30.68 21.37-27.332 32.49.8 2.659 1.01-2.302 1.01-2.302" fill="#B27C6F" mask="url(#b)"/>
      <path d="M41.454 189.318h27.059c4.693 0 8.487 3.925 8.487 8.627v11.782a8.474 8.474 0 01-8.487 8.488H40.799v7.103c-4.268-.293-7.799-3.982-7.799-8.496v-18.877c0-4.702 3.76-8.627 8.454-8.627" fill="#9A7CA9" mask="url(#b)"/>
      <path d="M40.5 195.818h30m-30 4h30m-30 4h30m-30 4h8" stroke="#FFF" stroke-linecap="square" mask="url(#b)"/>
      <path d="M54 220.817c0 6.352 5.148 11.5 11.5 11.5 6.351 0 11.5-5.148 11.5-11.5 0-6.351-5.149-11.5-11.5-11.5-6.352 0-11.5 5.149-11.5 11.5" fill="#FFF" mask="url(#b)"/>
      <g mask="url(#b)" fill="#964A9E" fill-rule="nonzero">
        <path d="M68.527 224.794a31.871 31.871 0 01-3.13 2.737 31.862 31.862 0 01-3.13-2.737c-2.184-2.196-3.35-4.153-3.37-5.66-.012-.902.383-1.647 1.209-2.276.56-.427 1.17-.643 1.814-.643 1.218 0 2.382.758 3.143 1.395l.334.278.334-.278c.761-.637 1.925-1.395 3.143-1.395.644 0 1.254.216 1.814.643.826.63 1.221 1.374 1.209 2.277-.02 1.506-1.186 3.463-3.37 5.66z"/>
      </g>
      <g mask="url(#b)">
        <path d="M536 237.086a5.226 5.226 0 01-5.22 5.232h-34.56a5.225 5.225 0 01-5.22-5.232V216.55a5.225 5.225 0 015.22-5.232h34.56a5.226 5.226 0 015.22 5.232v20.536z" fill="#B13D3D"/>
        <path fill="#FFF" d="M509 219.318v15l11-7.5z"/>
      </g>
      <g mask="url(#b)">
        <use fill="#000" filter="url(#c)" xlink:href="#d"/>
        <use fill="#B9A4C4" xlink:href="#d"/>
      </g>
      <g mask="url(#b)">
        <use fill="#000" filter="url(#e)" xlink:href="#f"/>
        <use fill="#B9A4C4" xlink:href="#f"/>
      </g>
      <path d="M377.332 263.637c-2.429 2.438-5.562 3.68-8.995 3.68h-176.57c-3.434 0-6.616-1.242-9.047-3.683-2.427-2.439-3.72-5.581-3.72-9.03V139.319h202v115.287c0 3.448-1.24 6.59-3.668 9.032" fill="#FFF" mask="url(#b)"/>
      <path d="M377.332 129.009c-2.429-2.439-5.562-3.691-8.995-3.691h-176.57c-3.434 0-6.616 1.252-9.047 3.692-2.427 2.44-3.72 5.591-3.72 9.041v115.267h202V138.05c0-3.45-1.24-6.602-3.668-9.042" fill="#FFF" mask="url(#b)"/>
      <path d="M186 246.318V138.134c0-1.638.566-3.034 1.684-4.153 1.105-1.104 2.51-1.663 4.172-1.663h177.198c1.693 0 3.111.56 4.215 1.663 1.15 1.15 1.731 2.547 1.731 4.153v108.184H186z" fill="#FFF" mask="url(#b)"/>
      <path d="M374.25 244.568H185.751V136.856c0-1.632.564-3.022 1.68-4.135 1.103-1.1 2.502-1.656 4.16-1.656h176.724c1.69 0 3.105.556 4.205 1.656 1.146 1.144 1.728 2.535 1.728 4.135v107.712zm.219-113.788c-1.616-1.61-3.742-2.462-6.153-2.462H191.592c-2.38 0-4.492.851-6.106 2.462-1.627 1.623-2.486 3.725-2.486 6.076v110.462h194V136.856c0-2.323-.875-4.423-2.531-6.076z" fill="#EAEAEA" mask="url(#b)"/>
      <circle fill="#3BDA27" mask="url(#b)" cx="196" cy="140.318" r="4"/>
      <path d="M334.383 152.318l-44.204 11.612-44.206-11.612c0 34.437-9.964 35.976-16.301 60.339-3.024 11.626-2.507 28.273 6.268 41.207a41.159 41.159 0 004.196 5.194c27.802 18.5 89.55 23.924 104.28-5.194 7.059-13.955 9.294-29.581 6.268-41.207-6.337-24.363-16.301-25.902-16.301-60.34" fill="#3D2121" mask="url(#b)"/>
      <path d="M334 151.818c0 23.472-19.7 42.5-44.001 42.5-24.3 0-43.999-19.028-43.999-42.5s19.7-42.5 43.999-42.5c24.302 0 44.001 19.028 44.001 42.5" fill="#3D2121" mask="url(#b)"/>
      <path d="M234.925 222.318c-.357 0-.661-.236-.695-.55-1.213-11.702 2.582-19.774 6.455-26.128.179-.294.6-.408.942-.253.342.156.472.52.292.815-3.777 6.198-7.479 14.07-6.297 25.459.034.331-.25.624-.633.654-.022 0-.043.003-.064.003M248.52 186.318a.443.443 0 01-.244-.076c-.254-.167-.35-.557-.214-.87 1.615-3.737 2.511-6.672 2.904-9.52.049-.35.317-.585.6-.525.284.06.475.391.427.741-.413 2.99-1.343 6.046-3.013 9.91-.094.216-.274.34-.46.34" fill="#3A4460" mask="url(#b)"/>
      <path d="M280 213.689c9.456 16.865 18.042 16.196 26 1.815-3.644-9.38-6.112-21.258-6.474-32.186h-17.3c1.517 10.15-.386 20.082-2.226 30.37" fill="#F9C2B2" mask="url(#b)"/>
      <path d="M342.347 210.318a.648.648 0 01-.619-.431c-1.62-4.854-3.848-8.734-6-12.486-3.48-6.062-6.766-11.787-6.728-20.469.003-.34.294-.614.652-.614h.003c.36.001.65.278.649.62-.037 8.365 3.17 13.955 6.567 19.873 2.183 3.803 4.44 7.737 6.099 12.703.108.325-.083.672-.425.775a.687.687 0 01-.198.029" fill="#3A4460" mask="url(#b)"/>
      <path d="M325 158.227c0 18.275-15.447 33.09-34.501 33.09-19.053 0-34.499-14.815-34.499-33.09v-7.818c0-18.276 15.446-33.091 34.499-33.091 19.054 0 34.501 14.815 34.501 33.091v7.818z" fill="#F9C2B2" mask="url(#b)"/>
      <path d="M291 179.318a7 7 0 007-7h-14a7 7 0 007 7" fill="#FFF" mask="url(#b)"/>
      <path d="M454.086 202.296c-5.333 4.205-14.585 6.758-17.025 4.947 0 0 4.383-5.723 1.67-8.53-.681-.704-1.449-.394-1.755.351-.906 2.204-3.439 6.51-5.766 8.447-2.198 1.829-4.057 10.447-4.057 10.447L415 226.534l2.919 5.784 14.782-10.962s22.078-5.845 27.32-16.956c2.887-6.118-1.067-5.941-5.935-2.104" fill="#F9C2B2" mask="url(#b)"/>
      <path d="M281 156.318c-.002-2.21-2.016-4-4.5-4-2.485 0-4.5 1.79-4.5 4h9zM309 156.318c-.001-2.21-2.015-4-4.5-4s-4.5 1.79-4.5 4h9z" fill="#1B2135" mask="url(#b)"/>
      <path d="M277 166.318a4 4 0 11-8-.002 4 4 0 018 .002M314 166.318a4 4 0 11-8-.001 4 4 0 018 .001" fill="#F69D9A" mask="url(#b)"/>
      <path d="M254.95 146.253c27.619 1.668 33.059-29.528 30.475-31.935l-12.97 4.208-11.154 13.249s-10.441 14.23-6.35 14.478" fill="#3D2121" mask="url(#b)"/>
      <path d="M329.18 146.816s-11.001 3.773-21.626-9.367c-7.023-8.687-26.554 4.046-24.958-17.067l-1.596-.34 5.383-6.724h16.916l20.854 13.647L332 141.997l-2.82 4.819z" fill="#3D2121" mask="url(#b)"/>
      <path d="M314.376 134.318a.669.669 0 01-.368-.107c-2.123-1.382-3.931-3.217-5.374-5.454-2.568-3.978-6.195-4.055-9.701-4.13-2.841-.06-5.524-.117-6.867-2.507-.154-.273-.03-.607.278-.744.307-.137.683-.025.837.248 1.01 1.793 3.115 1.838 5.782 1.895 3.49.073 7.835.166 10.752 4.685 1.356 2.103 3.05 3.823 5.03 5.112.278.18.338.528.134.775a.65.65 0 01-.503.227" fill="#3A4460" mask="url(#b)"/>
      <path d="M425.596 220.36s-46.187 17.197-50.916 16.622c-12.822-1.56-35.234-16.128-47.713-22.262-10.095-4.962-23.94-8.402-23.94-8.402 4.325 17.08-19.367 20.479-21.58 1.262-23.654 3.24-53.139 27.19-27.587 96.99 22.036 1.365 47.585.975 71.003-2.12.282-12.015 2.294-26.664 4.129-35.108 2.772-12.76-.892-24.385-.892-24.385s27.555 13.996 49.347 12.72C397.891 254.479 429 225.482 429 225.482l-3.404-5.122z" fill="#5E406E" mask="url(#b)"/>
      <path d="M263.006 255.509s-.489 20.562 7.505 48.757c1.158.021 2.322.039 3.489.052-2.87-20.582-7.8-51.728-10.994-48.81" fill="#422C4E" mask="url(#b)"/>
      <path d="M111 104.818c0 30.652-24.848 55.5-55.5 55.5S0 135.47 0 104.818s24.848-55.5 55.5-55.5 55.5 24.848 55.5 55.5" fill-opacity=".4" fill="#B2BCBF" mask="url(#b)"/>
      <path fill="#FFF" mask="url(#b)" d="M71 116.318H55v-11.414l15.44-.586z"/>
      <path d="M79 127.318l2.108 27A62.132 62.132 0 0090 149.035c-.13-9.926-.713-21.244-.617-21.717H79z" fill="#A16655" mask="url(#b)"/>
      <path d="M87.181 50.153c5.985 11.783.58 24.165.58 24.165L72 48.318l15.181 1.835z" fill="#1B2135" mask="url(#b)"/>
      <path d="M87.47 71.655c1.163-2.888 6.606-.814 6.53 3.502-.115 6.443-6.05 9.122-8 7.855 1.416-3.34 1.47-11.357 1.47-11.357" fill="#A76B59" mask="url(#b)"/>
      <g mask="url(#b)">
        <g transform="translate(273 242.318)">
          <path fill="#ABABAB" d="M41 13h1v19h-1z"/>
          <ellipse fill="#ABABAB" cx="41.5" cy="26" rx="1.5" ry="2"/>
          <path d="M40.55 31.927c.25-1.384.687-1.975 1-1.924.313.05.504.742.833 1.937.44 1.593.662 4.613.667 9.06-.63-.55-1.13-.825-1.5-.825-.37 0-.87.275-1.5.825 0-4.203.167-7.227.5-9.073z" fill="#ABABAB"/>
          <path d="M22.697 0L45 11.984 35.96 17c-4.21-2.415-8.533-3.623-12.969-3.623S14.036 14.585 9.432 17L0 11.984 22.697 0z" fill="#9C78AF"/>
          <path d="M10 19.471c3.26-2.156 7.667-3.309 13.22-3.459 5.554-.15 9.813 1.05 12.78 3.6V28c-2.302-.994-4.489-1.491-6.559-1.491-2.07 0-4.123.497-6.16 1.491-2.055-.994-4.175-1.491-6.36-1.491-2.187 0-4.44.497-6.758 1.491L10 19.471z" fill="#9C78AF"/>
          <path fill="#FFF" d="M30.5 15l-12 5.5v-11z"/>
        </g>
      </g>
      <path fill="#B46E59" mask="url(#b)" d="M57 111.318h12v-19H57z"/>
      <path d="M87.724 75.903C87.13 89.97 75.302 100.89 61.3 100.294c-14-.595-24.87-12.479-24.278-26.544l.253-6.018C37.87 53.666 49.7 42.746 63.7 43.34c14 .595 24.87 12.48 24.278 26.546l-.253 6.016z" fill="#C17D69" mask="url(#b)"/>
      <path d="M38.552 66.811c-.867-2.933-6.238-1.329-6.528 2.923-.432 6.348 5.007 9.46 6.976 8.37-1.071-3.4-.448-11.293-.448-11.293" fill="#A76B59" mask="url(#b)"/>
      <path d="M40.565 68.318c1.586-9.475 7.112-12.894 11.22-13.755 8.495-1.781 17.267 6.042 28.201 3.24 12.226-3.135 8.47-13.572 8.47-13.572-9.411 2.508-19.579-14.79-38.947-4.751C33.047 48.012 36.252 66.03 36.252 66.03" fill="#1B2135" mask="url(#b)"/>
      <path d="M42.751 46.318C41.71 46.103 40 43.188 40 43.188l3.959.776c.306-1.912 3.493-6.208 3.493-6.208l.427 2.85C52.053 36.535 58 35.317 58 35.317l-3.216 5.664-12.033 5.336z" fill="#1B2135" mask="url(#b)"/>
      <path d="M58 87.318c.976 2.796 3.61 4.86 6.798 4.993 3.187.133 5.99-1.706 7.202-4.411l-14-.582z" fill="#FFF" mask="url(#b)"/>
      <path d="M56.997 72.9c-.06 1.38-1.002 2.462-2.105 2.416-1.102-.046-1.949-1.2-1.889-2.58.06-1.38 1.003-2.462 2.106-2.417 1.102.046 1.948 1.201 1.888 2.581M75.109 71.32c-1.103-.047-2.047 1.035-2.106 2.415-.06 1.38.786 2.536 1.889 2.581 1.102.046 2.045-1.036 2.105-2.415.06-1.38-.786-2.537-1.888-2.582" fill="#1B2135" mask="url(#b)"/>
      <path d="M70 104.318c16.188.14 20.584 21.145 21 30.826l-10.365 3.174L70 104.458" fill="#6895DD" mask="url(#b)"/>
      <path d="M69.252 104.318c-1.87 7.516-9.46 6.424-15.67.604-7.401 3.02-11.064 10.193-12.026 17.537-1.613 12.292.705 30.249 1.643 36.624a57.444 57.444 0 0011.864 1.235c8.37 0 16.316-1.798 23.466-5.021 1.405-8.59 3.5-24.1 1.888-32.24-3.32-16.754-11.165-18.74-11.165-18.74" fill="#FFF" mask="url(#b)"/>
      <path d="M33.173 132.257s-.995 15.96 1.782 19.217C38.851 156.044 86 140.557 86 140.557l-.366-4.505c-8.8 2.426-21.518 3.181-30.244 4.07-7.575.77-11.825 1.83-11.825 1.83l-.85-12.634-9.542 2.94z" fill="#C17D69" mask="url(#b)"/>
      <path d="M42.756 136.433c0-3.562.244-23.18 12.244-31.115 0 0-9.781-.14-17.466 8.852-5.658 6.622-7.512 26.701-6.062 26.136 5.34-2.084 11.284-3.873 11.284-3.873" fill="#6895DD" mask="url(#b)"/>
      <path d="M87.049 149.318c-.58 0-1.049-.445-1.049-.992v-25.015c0-.549.47-.993 1.049-.993h16.903c.58 0 1.048.444 1.048.993v25.015c0 .547-.469.992-1.048.992H87.05z" fill="#B13D3D" mask="url(#b)"/>
      <path d="M87.049 149.318h1.76L105 130.302v-6.984l-19 21.265v3.717c0 .561.47 1.018 1.049 1.018" fill="#7F2A2A" mask="url(#b)"/>
      <path d="M88.26 134.007s7.212-4.109 7.744-2.17c.357 1.303-6.844 2.942-6.345 4.182.285.706 8.519-3.41 8.98-1.378.4 1.765-8.701 3.06-8.69 4.226.01 1.166 8.635-2.63 9.02-.885.623 2.815-8.439 2.426-8.08 3.448.293.832 7.132-1.446 7.062.615-.05 1.499-6.628 1.447-6.628 1.447s-9.884 1.818-11.937.06c-1.449-1.24-1.613-2.823-1.167-4.337.91-3.087 10.04-5.208 10.04-5.208" fill="#C17D69" mask="url(#b)"/>
      <path d="M81 138.318c4.635-5.84 3.272-10.736 4.208-10.973.935-.237 2.133 1.092 1.701 2.932-.433 1.84-1.653 6.015-1.653 6.015L81 138.318z" fill="#C17D69" mask="url(#b)"/>
    </g>
    <g transform="translate(232 7)">
      <use fill="#000" filter="url(#g)" xlink:href="#h"/>
      <use fill="#FFF" xlink:href="#h"/>
    </g>
    <g transform="translate(123 58.682)">
      <circle fill="#D8D8D8" opacity=".783" cx="35" cy="35" r="35"/>
      <g fill="#BE5106">
        <path d="M52.78 25.501c0 9.668-8.135 17.505-18.169 17.505s-18.17-7.837-18.17-17.505 8.136-17.506 18.17-17.506c10.034 0 18.168 7.838 18.168 17.506"/>
        <path d="M61.38 46.263c0 6.362-5.157 11.517-11.516 11.517-6.36 0-11.517-5.155-11.517-11.517 0-6.36 5.158-11.515 11.517-11.515 6.359 0 11.515 5.154 11.515 11.515M34.702 43.48c0 7.315-5.931 13.243-13.244 13.243S8.215 50.795 8.215 43.48s5.93-13.243 13.243-13.243c7.313 0 13.244 5.928 13.244 13.243"/>
      </g>
      <path d="M35.284 51.321h-.31c.053 0 .103-.002.155-.004a15.348 15.348 0 01-7.507-2.016v7.31a17.641 17.641 0 007.507 1.736 17.604 17.604 0 007.994-1.978v-7.36c-2.286 1.432-5.034 2.28-7.994 2.308.052.002.102.004.155.004" fill="#D88850"/>
      <path d="M24.337 36.67a4.222 4.222 0 11-8.444-.001 4.222 4.222 0 018.444 0M53.702 36.382a4.222 4.222 0 11-8.444.001 4.222 4.222 0 018.444-.001" fill="#F9C19B"/>
      <path d="M50.405 38.255c0 8.877-12.681 16.143-15.997 16.073h.34c-4.366-.073-15.998-7.196-15.998-16.073v-8.93c0-8.875 7.161-16.07 15.997-16.07h-.339c8.836 0 15.997 7.195 15.997 16.07v8.93z" fill="#EFB893"/>
      <path d="M35.305 58.351c-.058 0-.117-.003-.176-.004-.059 0-.116.004-.175.004h.351z" fill="#2F190A"/>
      <path d="M31.124 42.441l-.007.67c-.01 1.292 1.495 2.352 3.36 2.366l.966.009c1.866.013 3.386-1.02 3.397-2.314l.004-.67-7.72-.06z" fill="#EC696B"/>
      <path d="M28.83 33.472a1.295 1.295 0 11-2.59 0 1.295 1.295 0 012.59 0M43.515 33.472a1.08 1.08 0 01-2.16 0 1.08 1.08 0 012.16 0M30.031 28.833a.717.717 0 01-.787.646l-5.157-.502a.72.72 0 01.14-1.433l5.156.503c.397.04.686.392.648.786M47.16 28.833a.717.717 0 01-.786.646l-5.156-.502a.722.722 0 01-.648-.788.722.722 0 01.788-.645l5.157.503a.72.72 0 01.645.786" fill="#2F190A"/>
      <path d="M18.29 32.06l.962 4.605s1.918-2.11.383-7.867c0 0 .768-11.133 9.596-12.667 0 0 7.678 7.677 18.809 6.91 0 0 1.728 3.262 1.345 6.907 0 0-.386 2.88.575 4.8 0 0 5.373-14.394-9.98-21.497 0 0-22.65-5.182-21.69 18.81" fill="#BE5106"/>
      <path d="M19.635 28.798s4.27.31 9.595-12.668c0 0-3.742-1.03-8.349 4.873 0 0-2.062 2.058-1.246 7.795" fill="#BE5106"/>
      <path d="M25.13 29.817a3.354 3.354 0 00-3.35 3.35 3.355 3.355 0 003.35 3.35h4.317a3.353 3.353 0 003.349-3.35 3.352 3.352 0 00-3.35-3.35H25.13zm4.317 7.055H25.13a3.71 3.71 0 01-3.707-3.706 3.711 3.711 0 013.707-3.706h4.317a3.71 3.71 0 013.705 3.706 3.71 3.71 0 01-3.705 3.706zM40.1 29.817a3.353 3.353 0 00-3.35 3.35 3.354 3.354 0 003.35 3.35h4.318a3.353 3.353 0 003.347-3.35 3.352 3.352 0 00-3.347-3.35h-4.319zm4.318 7.055h-4.319a3.71 3.71 0 01-3.704-3.706A3.71 3.71 0 0140.1 29.46h4.319a3.71 3.71 0 013.704 3.706 3.71 3.71 0 01-3.704 3.706z" fill="#2F190A"/>
    </g>
    <g transform="translate(139 213.682)">
      <circle fill="#FFF" opacity=".662" cx="35" cy="35" r="35"/>
      <path d="M32.908 25.392c0 7.809-4.197 14.139-9.37 14.139-5.176 0-9.371-6.33-9.371-14.14 0-7.808 4.195-14.14 9.37-14.14 5.174 0 9.371 6.332 9.371 14.14M55.401 26.472c0 7.212-4.195 13.06-9.37 13.06-5.176 0-9.369-5.848-9.369-13.06 0-7.213 4.193-13.06 9.369-13.06 5.175 0 9.37 5.847 9.37 13.06" fill="#2F190A"/>
      <path d="M23.86 36.194a4.74 4.74 0 11-9.479 0 4.74 4.74 0 019.478 0M55.244 35.751c0 2.617-1.733 4.739-3.87 4.739-2.136 0-3.868-2.122-3.868-4.739s1.732-4.739 3.868-4.739c2.137 0 3.87 2.122 3.87 4.739" fill="#F9C19B"/>
      <path d="M54.084 44.436c0 9.425-8.037 17.067-17.951 17.067h.38c-9.917 0-17.953-7.642-17.953-17.067v-9.484c0-9.427 8.036-17.069 17.953-17.069h-.38c9.914 0 17.95 7.642 17.95 17.069v9.484z" fill="#F9C19B"/>
      <path d="M36.493 63.331c-.066 0-.133-.006-.198-.007-.067.001-.132.007-.199.007h.397zM51.678 20.06c.778 1.93.8 6.671.8 8.885v9.204c0 9.088-1.99 16.462-10.943 16.558.058 0 .115.003.173.003h-.347c.06 0 .115-.003.174-.003-8.954-.096-18.438 2.926-21.425-16.558v-9.204c0-2.214.433-4.322 1.211-6.253a19.026 19.026 0 00-3.566 11.126v10.54c0 10.412 8.283 18.86 18.54 18.966 10.256-.107 18.539-8.554 18.539-18.967V33.818c0-4.159-.915-10.634-3.156-13.759" fill="#2F190A"/>
      <path d="M33.903 35a1.938 1.938 0 11-3.876.002A1.938 1.938 0 0133.903 35M50.409 35a1.939 1.939 0 11-3.878 0 1.939 1.939 0 013.878 0M35.368 28.741a.808.808 0 01-.569.99l-5.614 1.517a.807.807 0 11-.422-1.559l5.614-1.517a.809.809 0 01.991.57M53.143 30.74a.804.804 0 01-.978.585l-5.64-1.423a.806.806 0 11.394-1.565l5.64 1.421c.433.11.694.549.584.982" fill="#2F190A"/>
      <path d="M33.525 43.709v1.866a6.534 6.534 0 006.535 6.536h1.868a6.534 6.534 0 006.535-6.536V43.71H33.525z" fill="#EC696B"/>
      <path d="M47.135 45.006c0 .824-.67 1.493-1.495 1.493h-9.294a1.494 1.494 0 110-2.99h9.294c.825 0 1.495.67 1.495 1.497" fill="#FFF"/>
      <path d="M29.744 40.997l20.106.166s3.324.167 3.158 3.99l-2.16 5.15s2.16-7.311-2.326-7.311H33.067s-4.321 1.661-4.653 5.317l-2.56 8.095-3.256-6.266s1.33-7.811 7.146-9.14M20.66 24.214h25.69s9.483-1.63 9.483-17.283c0 0-2.568 2.934-7.903 2.934H25.6s-6.917 3.913-4.94 14.349M43.87 54.873c0 .871-.708 1.578-1.58 1.578h-2.327a1.578 1.578 0 010-3.157h2.328a1.58 1.58 0 011.579 1.58" fill="#2F190A"/>
    </g>
    <g transform="translate(364 75.682)">
      <circle fill="#FFF" opacity=".453" cx="32.5" cy="32.5" r="32.5"/>
      <path d="M16.272 21.52c.29 5.224 5.792 9.288 12.286 9.088l3.361-.103c6.498-.201 11.531-4.593 11.241-9.816-.295-5.223-5.795-9.29-12.292-9.089l-3.36.103c-6.497.204-11.526 4.596-11.236 9.817" fill="#383838"/>
      <path d="M34.597 29.77c.165 6.032 3.612 10.707 7.7 10.453l2.113-.13c4.088-.256 7.272-5.344 7.106-11.375-.168-6.03-3.614-10.71-7.702-10.454l-2.115.13c-4.088.257-7.266 5.347-7.102 11.376M13.388 28.727c.161 6.635 3.605 11.777 7.69 11.495l2.116-.145c4.088-.284 7.275-5.883 7.115-12.518-.165-6.635-3.608-11.78-7.697-11.497l-2.114.145c-4.088.286-7.27 5.888-7.11 12.52" fill="#383838"/>
      <path d="M27.52 13.376c-1.73 3.228 1.185 8.492 6.512 11.764l2.755 1.693c5.33 3.27 11.052 3.313 12.784.086 1.728-3.23-1.187-8.495-6.514-11.766L40.3 13.459c-5.328-3.272-11.047-3.307-12.78-.083" fill="#383838"/>
      <path d="M49.216 34.023l-.651-.257c-2.107-.823-4.635.535-5.646 3.032l-.372.92c-1.011 2.497-.12 5.189 1.986 6.013l.651.257c2.109.823 4.635-.534 5.648-3.031l.369-.918c1.01-2.499.122-5.192-1.985-6.016M22.781 39.537l-.353-.928c-.957-2.518-3.454-3.928-5.58-3.152l-.656.244c-2.123.778-3.069 3.452-2.113 5.97l.35.927c.959 2.52 3.457 3.928 5.582 3.151l.655-.243c2.125-.778 3.072-3.45 2.115-5.97" fill="#FDCCA4"/>
      <path d="M17.358 44.102c.174 9.308 7.295 16.743 15.906 16.606 8.611-.137 15.45-7.791 15.275-17.1l-.094-4.983c-.172-9.309-7.295-16.745-15.904-16.608-8.612.136-15.45 7.791-15.276 17.102l.093 4.983z" fill="#FDCCA4"/>
      <path d="M25.74 7.95s-.274.115-.727.36c-.456.242-1.091.614-1.82 1.092-.352.262-.75.517-1.122.847-.392.304-.77.666-1.146 1.048-.383.374-.73.801-1.094 1.22-.293.468-.709.861-.949 1.369-.135.244-.286.477-.431.715l-.329.763c-.246.493-.37 1.02-.517 1.53-.186.503-.17 1.025-.262 1.51-.098.487-.043.956-.04 1.39.024.433-.015.843.074 1.188a245.447 245.447 0 01.274 1.72l-.265-.77c-.084-.248-.185-.548-.3-.894-.139-.342-.16-.756-.25-1.2-.065-.445-.191-.928-.161-1.454.02-.52-.073-1.089.068-1.652.108-.568.153-1.18.408-1.742.107-.286.217-.574.325-.864.15-.273.292-.548.453-.816.288-.555.707-1.019 1.085-1.493.441-.417.838-.867 1.308-1.198.455-.35.902-.67 1.354-.93.432-.285.879-.492 1.272-.707.81-.393 1.505-.667 2.006-.81.496-.16.786-.221.786-.221" fill="#383838"/>
      <path d="M22.745 39.493a1.74 1.74 0 103.48 0 1.74 1.74 0 00-3.48 0M39.576 39.493a1.74 1.74 0 103.48 0 1.74 1.74 0 00-3.48 0" fill="#1E1007"/>
      <path d="M28.555 35.049a.74.74 0 01-.74.74h-6.289a.74.74 0 010-1.479h6.289c.409 0 .74.33.74.739M45.94 35.049a.74.74 0 01-.74.74h-6.288a.74.74 0 010-1.479h6.289c.408 0 .739.33.739.739" fill="#383838"/>
      <path d="M16.84 34.062v6.906s1.727-1.974 1.727-7.152c0 0 5.671-2.959 5.671-8.878 0 0 10.111 7.152 22.688 7.152 0 0-.57 4.847 2.182 7.6v-8.34s-3.907-13.07-17.963-11.837c0 0-12.824-.493-14.305 14.55" fill="#383838"/>
      <path d="M27.528 46.59v1.388a4.854 4.854 0 004.855 4.854h1.388a4.853 4.853 0 004.854-4.854V46.59H27.528z" fill="#EC696B"/>
      <path d="M37.638 47.553a1.11 1.11 0 01-1.109 1.11h-6.905a1.11 1.11 0 010-2.22h6.905c.613 0 1.11.498 1.11 1.11" fill="#FFF"/>
    </g>
    <g transform="translate(263.364 22)" opacity=".5">
      <circle stroke="#B9A4C4" stroke-width="2" cx="8.213" cy="17.667" r="6.915"/>
      <path d="M13.399 7.077a5.186 5.186 0 10-10.372 0" stroke="#B9A4C4" stroke-width="2"/>
      <path stroke="#B9A4C4" stroke-width="2" stroke-linecap="square" d="M2.978 7.209l.135 5.186M13.416 7.209l-.18 5.555"/>
      <path fill="#B9A4C4" d="M7.348 17.367h1.891v4.921H7.348z"/>
    </g>
    <path d="M379.009 156a24.995 24.995 0 00-22.981 15.16l-.312.103.121.363c-5.184 12.788.978 27.358 13.764 32.543A24.977 24.977 0 00379 206c13.805.002 24.997-11.19 24.999-24.996.002-13.807-11.187-25.002-24.991-25.004zm19.605 37.605l-1.283-1.283v-2.989a.833.833 0 00-.083-.372l-3.25-6.491v-3.137a.833.833 0 00-.37-.693l-2.5-1.667a.833.833 0 00-.666-.115l-3.061.765-5.142-2.206-.707-4.957 1.96-1.96h4.208l1.417 2.13c.128.19.33.32.556.358l5 .834a.826.826 0 00.4-.032l4.603-1.535a23.254 23.254 0 01-1.082 23.35zm-3.436-29.393l-1.355.903-3.776-.756-2.45-.816a.818.818 0 00-.466-.018l-3.097.774-1.358-.452 1.006-2.014h2.818c.13 0 .257-.03.372-.087l2.883-1.442a23.414 23.414 0 015.423 3.908zm-25.302-4.685l2 1.334c.098.065.209.109.325.128l4.038.673-.394 1.18-2.104.702a.833.833 0 00-.45.361l-2.394 3.988-3.843 2.307-5.666.81a.833.833 0 00-.716.823v2.5c0 .221.088.433.244.59l1.422 1.422v1.432l-3.466-2.312-1.257-3.773a23.465 23.465 0 0112.26-12.165zm-2.372 27.323l-3.766-.754-1.4-2.793v-1.958l3.105-3.105 1.149 2.3c.14.282.43.46.745.46h5.36l2.258 3.762c.15.251.421.405.714.405h2.316l-.583 2.922-3.155 3.155a.834.834 0 00-.245.59v2.083l-2.999 2.25a.834.834 0 00-.333.666v3.01l-1.037-.343-1.463-3.66v-8.173a.833.833 0 00-.666-.817zm-2.505 12.81a23.33 23.33 0 01-8.309-25.473l.693 2.076a.833.833 0 00.327.43l4.153 2.77-.947.948a.833.833 0 00-.244.589v2.5c0 .13.03.257.087.372l1.667 3.334c.115.23.33.394.583.444l3.5.7V196c0 .106.02.21.058.31l1.667 4.166a.833.833 0 00.51.48l2.5.834a.833.833 0 001.092-.79v-3.75l3-2.25a.834.834 0 00.333-.667v-2.155l3.088-3.089a.834.834 0 00.228-.426l.833-4.166a.833.833 0 00-.817-.997h-2.86l-2.258-3.763a.833.833 0 00-.714-.404h-5.317l-1.431-2.872a.833.833 0 00-1.335-.217l-1.081 1.078V176a.833.833 0 00-.245-.59l-1.422-1.422v-1.432l5.118-.731a.837.837 0 00.31-.11l4.166-2.5a.833.833 0 00.285-.286l2.341-3.902 2.207-.737a.825.825 0 00.527-.527l.833-2.5a.833.833 0 00-.653-1.083l-4.823-.804-.847-.565a23.26 23.26 0 0116.023.596l-1.522.76h-3.136a.833.833 0 00-.75.46l-1.666 3.334a.833.833 0 00.482 1.162l2.5.834c.15.05.311.057.465.018l3.098-.774 2.27.756c.032.011.065.02.1.026l4.165.834c.216.044.442 0 .626-.124l1.896-1.265a23.509 23.509 0 012.506 3.35l-4.1 1.366-4.437-.74-1.467-2.2a.833.833 0 00-.689-.37h-4.999a.833.833 0 00-.589.243l-2.5 2.5a.833.833 0 00-.235.708l.833 5.833a.833.833 0 00.5.648l5.832 2.5a.823.823 0 00.53.042l2.975-.744 1.819 1.215v2.888a.833.833 0 00.083.372l3.25 6.491v3.137c0 .22.088.433.244.589l1.743 1.744c-7.73 10.306-22.35 12.392-32.653 4.66z" opacity=".48" fill="#5E406E" fill-opacity=".5" fill-rule="nonzero"/>
    <g fill="#8E66A3" fill-rule="nonzero">
      <path d="M282.307 343.195l6.406 4.805v-4.805H296v-21.7h-14.494V307H255v21.701h7.287v4.805l6.406-4.805h.801v14.494h12.813zm11.29-2.402h-7.286v2.402l-3.204-2.402h-11.21v-16.897h21.7v16.897zm-25.704-14.494l-3.204 2.402V326.3h-7.287v-16.897h21.702v12.092h-5.264l-5.547-11.094-5.88 11.758 2.15 1.075 1.47-2.94h4.52l.601 1.201h-1.66v4.805h-1.601zm1.46-8.408h-2.12l1.06-2.12 1.06 2.12z"/>
      <path d="M281.317 333.952c-1.287 1.084-2.502 1.648-3.117 1.648v2.4c1.546 0 3.404-1.132 4.8-2.33 1.396 1.198 3.254 2.33 4.8 2.33v-2.4c-.615 0-1.83-.564-3.117-1.648.697-.847 1.43-1.956 1.75-3.152H289v-2.4h-4.8V326h-2.4v2.4H277v2.4h2.567c.32 1.196 1.053 2.305 1.75 3.152zm1.683-1.735a7.399 7.399 0 01-.886-1.418h1.772a7.399 7.399 0 01-.886 1.418z"/>
    </g>
    <path d="M199.983 191.415C201.925 188.268 203 184.72 203 181c0-8.666-5.469-16.184-13.638-18.924a7.487 7.487 0 00-5.032-3.442l1.17-2.34a1.25 1.25 0 00-.56-1.676l1.119-2.237a1.253 1.253 0 001.677-.559l2.632-5.264a1.25 1.25 0 00-.56-1.677l-7.5-3.75a1.25 1.25 0 00-1.677.56L178 146.954a1.25 1.25 0 00.56 1.677l-1.119 2.237a1.252 1.252 0 00-1.677.559l-10.132 20.264a1.25 1.25 0 00.559 1.677l7.5 3.75a1.252 1.252 0 001.677-.559l2.543-5.084c1.34 1.246 3.12 2.025 5.09 2.025a7.435 7.435 0 004.384-1.442c3.424 1.674 5.615 5.096 5.615 8.942 0 5.514-4.486 10-10 10h-10v-2.5h3.75a1.25 1.25 0 100-2.5h-17.5a1.25 1.25 0 100 2.5H163v2.5c-2.757 0-5 2.243-5 5v3.75c0 .691.56 1.25 1.25 1.25h42.5c.692 0 1.251-.559 1.251-1.25v-3.75a5.004 5.004 0 00-3.018-4.586zM183 168.5a2.503 2.503 0 01-2.5-2.5c0-1.378 1.121-2.5 2.5-2.5 1.378 0 2.5 1.122 2.5 2.5s-1.122 2.5-2.5 2.5z" fill="#EAC4E2" fill-rule="nonzero"/>
    <g fill="#BFBFBF" fill-rule="nonzero">
      <path d="M349.921 317.421h-4.737c-.654 0-1.184.542-1.184 1.21V338c0 .668.53 1.21 1.184 1.21h4.737c.654 0 1.184-.541 1.184-1.21v-19.368c0-.669-.53-1.21-1.184-1.21zM379.976 320.514c-.213-1.89-1.96-3.228-3.842-3.228h-9.4c.798-1.445 1.227-5.533 1.208-7.202a5.045 5.045 0 00-5.033-4.979h-.995c-.666 0-1.206.545-1.206 1.218 0 2.817-1.085 7.901-3.133 9.97-1.378 1.392-2.556 1.896-4.101 2.676v18.277c2.365.796 5.368 1.965 9.945 1.965h7.888c2.599 0 4.623-2.432 3.616-5.001a3.655 3.655 0 002.666-3.526c0-.474-.091-.929-.255-1.346 2.586-.712 3.537-3.937 1.743-5.962a3.67 3.67 0 00.899-2.862z"/>
    </g>
  </g>
</svg>
