<svg width="1367" height="421" xmlns="http://www.w3.org/2000/svg"><g stroke="#7108B9" stroke-width=".25" fill="none" fill-rule="evenodd"><path d="M1366 421C1113.9 13.8 463.4 136.7.1 301.7M1366 408.4C1078 33.7 468.1 137 .1 292M1366 395.8C1042.1 53.7 472.9 137.3.1 282.3M1366 383.1C1006.1 73.6 477.6 137.6.1 272.6M1366 370.5C970.2 93.5 482.3 138 .1 262.9M1366 357.9C934.3 113.5 487 138.3.1 253.2M1366 345.2C898.4 133.4 491.8 138.6.1 243.5M1366 332.6C862.4 153.3 496.5 138.9.1 233.8M1366 320C826.5 173.3 501.2 139.2.1 224.1M1366 307.4C790.6 193.2 505.9 139.5.1 214.4M1366 294.7C754.6 213.2 510.7 139.8.1 204.6M1366 282.1C718.7 233.1 515.4 140.2.1 194.9M1366 269.5C682.8 253 520.1 140.5.1 185.2M1366 256.8C646.8 273 524.8 140.8.1 175.5M1366 244.2C610.9 292.9 529.5 141.1.1 165.8M1366 231.6C575 312.8 534.3 141.4.1 156.1M1366 219C539.1 332.8 539 141.7.1 146.4M1366 206.3C503.1 352.7 543.7 142 .1 136.7M1366 193.7C467.2 372.7 548.4 142.3.1 127M1366 181.1C431.3 392.6 553.2 142.7.1 117.3M1366 168.4C395.3 412.5 557.9 143 .1 107.6M1366 155.8C359.4 432.5 562.6 143.3.1 97.9M1366 143.2C323.5 452.4 567.3 143.6.1 88.2M1366 130.6C287.5 472.3 572.1 143.9.1 78.4M1366 117.9C251.6 492.3 576.8 144.2.1 68.7M1366 105.3C215.7 512.2 581.5 144.5.1 59M1366 92.7C179.7 532.2 586.2 144.9.1 49.3M1366 80C143.8 552.1 590.9 145.2.1 39.6M1366 67.4C107.9 572 595.7 145.5.1 29.9M1366 54.8C72 592 600.4 145.8.1 20.2M1366 42.2C36 611.9 605.1 146.1.1 10.5M1366 29.5C.1 631.8 609.8 146.4.1.8"/></g></svg>