<?xml version="1.0" encoding="UTF-8"?>
<svg width="497px" height="497px" viewBox="0 0 497 497" version="1.1" xmlns="http://www.w3.org/2000/svg" xmlns:xlink="http://www.w3.org/1999/xlink">
    <title>teacher-icon</title>
    <g id="Page-1" stroke="none" stroke-width="1" fill="none" fill-rule="evenodd">
        <g id="teacher-icon" fill-rule="nonzero">
            <path d="M496.2,248.1 C496.2,111.1 385.1,0 248.1,0 C111.1,0 0,111.1 0,248.1 C0,385.1 111.1,496.2 248.1,496.2 C385.1,496.2 496.2,385.1 496.2,248.1 Z" id="Path" fill="#BE324C"></path>
            <g id="Group" transform="translate(91.000000, 282.000000)" fill="#E2A379">
                <path d="M196,0.1 L118.2,0.1 C130.3,36.7 119.2,53.4 119.2,53.4 L146.1,59.5 L168.1,59.5 L195,53.4 C195,53.4 183.9,36.7 196,0.1 Z" id="Path"></path>
                <path d="M157.2,108.1 C202.1,108.1 195,53.4 195,53.4 C195,53.4 186.1,70.7 156.9,70.7 C127.7,70.7 119.4,53.4 119.4,53.4 C119.4,53.4 112.3,108.1 157.2,108.1 Z" id="Path"></path>
                <path d="M156.8,51.4 C79.6,51.4 17.7,73.5 10.4,100.7 C7.1,112.9 3.4,135.9 0.3,158.2 C43,193.1 97.7,214.1 157.2,214.1 C216.7,214.1 271.3,193.1 314.1,158.2 C310.9,135.9 307.2,112.8 304,100.7 C296.5,73.5 233.9,51.4 156.8,51.4 Z" id="Path"></path>
            </g>
            <rect id="Rectangle" fill="#DEE0E2" x="205.1" y="324.9" width="86" height="25"></rect>
            <path d="M247.8,333.4 C170.6,333.4 108.7,355.5 101.4,382.7 C98.1,394.9 94.4,417.9 91.3,440.2 C134,475.1 188.7,496.1 248.2,496.1 C307.7,496.1 362.3,475.1 405.1,440.2 C401.9,417.9 398.2,394.8 395,382.7 C387.5,355.5 324.9,333.4 247.8,333.4 Z" id="Path" fill="#823D0F"></path>
            <g id="Group" transform="translate(168.000000, 324.000000)" fill="#F3FAFF">
                <path d="M125.9,12.2 C111.4,10.4 95.9,9.5 79.8,9.5 C63.9,9.5 48.6,10.4 34.3,12.2 L80.1,103.2 L125.9,12.2 Z" id="Path"></path>
                <path d="M0.1,33.2 L37.1,0.9 L69.1,64.8 C69.1,64.8 43.9,71.9 43.6,71.6 L0.1,33.2 Z" id="Path"></path>
                <path d="M160.1,33.2 L123.1,0.9 L91.1,64.8 C91.1,64.8 116.3,71.9 116.6,71.6 L160.1,33.2 Z" id="Path"></path>
            </g>
            <path d="M248.1,412.1 L210.3,335.3 C210.3,335.3 219.5,322.9 247.7,322.9 C275.9,322.9 285.8,335.4 285.8,335.4 L248.1,412.1 Z" id="Path" fill="#E2A379"></path>
            <g id="Group" transform="translate(91.000000, 344.000000)" fill="#F3FAFF">
                <path d="M303.8,38.8 C299.6,23.2 277.4,9.3 244.7,0.3 L264,128.1 C282,119.5 298.7,108.8 314,96.4 C310.8,73.9 307.1,50.9 303.8,38.8 Z" id="Path"></path>
                <path d="M10.4,38.8 C7.1,51 3.4,74 0.3,96.3 C15.3,108.6 31.8,119.1 49.4,127.6 L68.6,0.4 C36.3,9.4 14.5,23.2 10.4,38.8 Z" id="Path"></path>
            </g>
            <path d="M287,282.1 L209.2,282.1 C221.3,318.7 210.2,335.4 210.2,335.4 C210.2,335.4 226.6,341.5 248.1,341.5 C269.6,341.5 286,335.4 286,335.4 C286,335.4 274.9,318.7 287,282.1 Z" id="Path" fill="#E2A379"></path>
            <path d="M327.9,175.2 C327.9,82.8 292.2,61.6 248.1,61.6 C204.1,61.6 168.3,82.8 168.3,175.2 C168.3,206.5 173.9,231 182.3,249.9 C200.7,291.5 232.6,306 248.1,306 C263.6,306 295.4,291.5 313.9,249.9 C322.3,231 327.9,206.5 327.9,175.2 Z" id="Path" fill="#F4B382"></path>
            <g id="Group" transform="translate(195.000000, 175.000000)" fill="#261D17">
                <path d="M22.1,43.6 C10.2,43.6 0.6,34 0.6,22.1 C0.6,10.2 10.2,0.6 22.1,0.6 C34,0.6 43.6,10.2 43.6,22.1 C43.6,34 34,43.6 22.1,43.6 Z M22.1,5.6 C13,5.6 5.6,13 5.6,22.1 C5.6,31.2 13,38.6 22.1,38.6 C31.2,38.6 38.6,31.2 38.6,22.1 C38.6,13 31.2,5.6 22.1,5.6 Z" id="Shape"></path>
                <path d="M53,13.9 C42.7,13.9 41.6,19.4 41.9,22.6 C41.7,25.3 42.3,27.5 42.3,27.5 C44.3,23.4 48.4,20.8 52.9,20.8 C57.4,20.8 61.6,23.4 63.5,27.5 C63.5,27.5 64.1,25.3 63.9,22.6 C64.4,19.5 63.3,13.9 53,13.9 Z" id="Path"></path>
                <path d="M84.1,43.6 C72.2,43.6 62.6,34 62.6,22.1 C62.6,10.2 72.2,0.6 84.1,0.6 C96,0.6 105.6,10.2 105.6,22.1 C105.6,34 96,43.6 84.1,43.6 Z M84.1,5.6 C75,5.6 67.6,13 67.6,22.1 C67.6,31.2 75,38.6 84.1,38.6 C93.2,38.6 100.6,31.2 100.6,22.1 C100.6,13 93.2,5.6 84.1,5.6 Z" id="Shape"></path>
            </g>
            <g id="Group" transform="translate(200.000000, 180.000000)" fill="#E8D3BB">
                <path d="M79.1,0.6 C70,0.6 62.6,8 62.6,17.1 C62.6,26.2 70,33.6 79.1,33.6 C88.2,33.6 95.6,26.2 95.6,17.1 C95.6,8 88.2,0.6 79.1,0.6 Z" id="Path"></path>
                <path d="M17.1,0.6 C8,0.6 0.6,8 0.6,17.1 C0.6,26.2 8,33.6 17.1,33.6 C26.2,33.6 33.6,26.2 33.6,17.1 C33.6,8 26.2,0.6 17.1,0.6 Z" id="Path"></path>
            </g>
            <g id="Group" transform="translate(172.000000, 190.000000)" fill="#261D17">
                <rect id="Rectangle" transform="translate(12.809551, 4.907171) rotate(-168.070915) translate(-12.809551, -4.907171) " x="0.709603028" y="3.40717731" width="24.1998965" height="2.99998717"></rect>
                <rect id="Rectangle" transform="translate(139.135856, 4.928325) rotate(-101.911084) translate(-139.135856, -4.928325) " x="137.635809" y="-7.17255723" width="3.00009481" height="24.2017649"></rect>
            </g>
            <g id="Group" transform="translate(159.000000, 41.000000)" fill="#E6E7E8">
                <path d="M129.7,30.1 C113.5,13 78,17.7 78,17.7 L78,17.7 L78,17.7 L78,17.7 C9.2,17.7 2.1,91.6 2.1,91.6 L0.8,112.1 C0.8,126.3 8.4,143.9 15.8,161.4 C15.8,161.4 14.3,103.7 48.9,88.3 C83.5,72.9 141,76.6 138.5,58.9 C138.4,58 140,41.1 129.7,30.1 Z" id="Path"></path>
                <path d="M110.8,19.1 C121.4,14.2 146.5,26.7 159.1,45.4 C165.8,55.3 173.6,70.4 176.2,91.6 C176.2,91.6 176.5,133.9 166,160.1 C166,160.1 135.8,72.8 102.9,35.5 C103,35 104,22.3 110.8,19.1 Z" id="Path"></path>
                <circle id="Oval" cx="89.1" cy="31" r="30.7"></circle>
            </g>
            <g id="Group" transform="translate(159.000000, 177.000000)" fill="#F4B382">
                <path d="M1.7,30.7 C6,55.9 11.3,57 19,55.7 L10.9,0.9 C3.2,2.3 -2.6,5.6 1.7,30.7 Z" id="Path"></path>
                <path d="M167.5,1 L159.4,55.8 C167,57.1 172.4,55.9 176.7,30.8 C180.9,5.6 175.1,2.3 167.5,1 Z" id="Path"></path>
            </g>
            <path d="M274.8,263.8 C274.8,263.8 260.6,273.4 248.1,273.4 C235.6,273.4 221.4,263.8 221.4,263.8 C221.4,262.4 232.7,258.5 237.5,257.8 C240.5,257.3 248.1,260.3 248.1,260.3 C248.1,260.3 255.6,257.4 258.5,257.8 C263.4,258.5 274.8,263.8 274.8,263.8 Z" id="Path" fill="#CC785E"></path>
            <path d="M274.8,263.8 C274.8,263.8 260.6,277.3 248.1,277.3 C235.6,277.3 221.4,263.8 221.4,263.8 C221.4,263.8 227.9,265.3 241,264.5 C243.2,264.4 246.1,266.1 248,266.1 C249.7,266.1 252.2,264.3 254.1,264.4 C267.9,265.2 274.8,263.8 274.8,263.8 Z" id="Path" fill="#C16952"></path>
        </g>
    </g>
</svg>