<?xml version="1.0" encoding="UTF-8"?><svg width="100" height="100" xmlns="http://www.w3.org/2000/svg"><path d="M50 0c27.596 0 50 22.404 50 50s-22.404 50-50 50S0 77.596 0 50 22.404 0 50 0zm-8.807 76.593c22.126 0 34.224-18.334 34.224-34.223 0-.524 0-1.048-.025-1.547a24.64 24.64 0 006.011-6.236 24.41 24.41 0 01-6.91 1.896 12.022 12.022 0 005.289-6.66 24.36 24.36 0 01-7.633 2.919 11.97 11.97 0 00-8.78-3.792c-6.636 0-12.023 5.388-12.023 12.023 0 .948.1 1.87.324 2.744-10.003-.499-18.858-5.288-24.795-12.572a12.065 12.065 0 00-1.621 6.037c0 4.165 2.12 7.857 5.363 10.002a11.816 11.816 0 01-5.438-1.496v.15c0 5.836 4.14 10.675 9.653 11.798-.997.274-2.07.424-3.167.424-.774 0-1.522-.075-2.27-.225a12.01 12.01 0 0011.225 8.357 24.178 24.178 0 01-14.942 5.138c-.973 0-1.92-.05-2.869-.174 5.264 3.442 11.6 5.437 18.384 5.437z" fill="#1DA1F2" fill-rule="evenodd"/></svg>