<?xml version="1.0" encoding="UTF-8"?>
<svg width="193px" height="92px" viewBox="0 0 193 92" version="1.1" xmlns="http://www.w3.org/2000/svg" xmlns:xlink="http://www.w3.org/1999/xlink">
    <title>White Label Big</title>
    <g id="Page-1" stroke="none" stroke-width="1" fill="none" fill-rule="evenodd">
        <g id="White-Label-Big" transform="translate(-8.002865, -62.601943)">
            <path d="M75.4090784,164.241947 C75.4090784,164.241947 79.1894665,161.581394 78.9794449,155.000999 C78.7694234,148.420603 80.9393661,142.119956 80.9393661,142.119956 C80.9393661,142.119956 78.7694234,147.580517 80.1694271,153.181372 C81.5694308,158.781387 79.4692152,161.722529 79.4692152,161.722529 C79.4692152,161.722529 89.2003543,147.020179 80.9393661,134.279431 C80.9393661,134.279431 85.9101565,138.479862 85.4901133,152.901623 C85.4901133,152.901623 88.0103721,153.110805 88.0800992,141.210143 C88.1502464,129.308641 89.1302071,122.657678 91.8604874,118.527814 C91.8604874,118.527814 88.7807312,125.248504 91.2304227,143.170064 C91.2304227,143.170064 92.3506777,143.310358 93.6108071,130.079 C94.8709364,116.847642 98.2312814,110.546995 98.2312814,110.546995 L105.091846,128.188806 L100.191623,100.325665 L101.24173,95.4951694 L112.372873,118.597541 L103.37681,93.6049753 C103.37681,93.6049753 107.787262,87.9343931 108.207306,74.1779808 C108.207306,74.1779808 115.873093,78.5884336 118.498362,95.8102017 C118.498362,95.8102017 118.603373,84.5740481 109.257413,72.2877868 C109.257413,72.2877868 112.722769,67.0372477 112.092705,48.3453287 C111.46264,29.6529897 111.042597,20.8320841 111.042597,20.8320841 C111.042597,20.8320841 118.288341,25.0850207 121.701191,33.3808724 C121.701191,33.3808724 117.080717,22.3547404 112.14521,18.2068145 C112.14521,18.2068145 114.980501,3.19027285 121.386159,-2.5853201 C121.386159,-2.5853201 125.009031,1.40508957 126.26916,5.44800464 C126.26916,5.44800464 124.588987,-0.800136827 122.593783,-3.42540635 C122.593783,-3.42540635 131.939742,-4.37050338 140.445615,7.18068253 C140.445615,7.18068253 137.505314,14.1113941 137.505314,13.9538779 C137.505314,13.7963617 141.915766,8.65083346 141.915766,8.65083346 C141.915766,8.65083346 150.789177,19.2569223 150.631661,25.8200961 C150.474145,32.38327 142.703347,39.4714977 142.703347,39.4714977 C142.703347,39.4714977 150.52665,36.2686689 152.311834,28.760398 C152.311834,28.760398 157.317488,38.9283819 156.897444,48.1000235 C156.477401,57.2712451 149.756711,58.8111232 149.756711,58.8111232 C149.756711,58.8111232 156.039716,58.6363852 159.242545,51.6006629 C159.242545,51.6006629 160.957581,56.081683 162.637754,69.9431061 L145.626007,83.2441916 L163.828156,73.7234942 C163.828156,73.7234942 168.028587,109.006276 155.637315,115.587512 C155.637315,115.587512 159.627725,114.88688 161.657793,112.576643 C161.657793,112.576643 158.227301,126.08859 142.755853,131.339129 C142.755853,131.339129 154.797229,129.939546 159.837746,126.018863 C159.837746,126.018863 153.957143,150.590546 136.59508,153.811436 C136.59508,153.811436 144.015982,156.926476 149.476543,154.406217 C149.476543,154.406217 131.62471,183.389193 97.9162491,169.947813 C97.9162491,169.947813 104.780174,177.508589 119.961372,176.826019 C119.961372,176.826019 105.372015,179.923837 94.7659257,169.895308 C94.7659257,169.895308 96.7086251,176.090944 102.851756,177.666105 C108.994886,179.241267 111.042597,179.188762 112.460242,182.444096 C112.460242,182.444096 110.622554,178.663708 103.166788,179.293773 C95.7110227,179.923837 91.1955591,177.876127 88.3077626,169.212738 C88.3077626,169.212738 87.9927303,176.195955 91.6156022,179.818826 C91.6156022,179.818826 85.8925147,175.828417 84.8949122,168.582673 C84.8949122,168.582673 75.1289096,174.988331 58.642217,174.253255 C42.1555244,173.51818 57.8021307,171.312953 64.4178099,171.207942 C71.0334892,171.102932 162.917923,134.349158 133.934947,25.9776123 C133.934947,25.9776123 161.167603,124.618439 75.4090784,164.241947" id="Feather" fill="#D200A5" transform="translate(107.925301, 89.500000) rotate(66.000000) translate(-107.925301, -89.500000) "></path>
            <text id="WHITE" stroke="#FFFFFF" fill-opacity="0" fill="#D8D8D8" fill-rule="nonzero" font-family="AvenirNext-DemiBold, Avenir Next" font-size="42" font-weight="500" line-spacing="17">
                <tspan x="39.0028651" y="123.601943">WHITE</tspan>
            </text>
            <text id="LABEL" stroke="#FFFFFF" fill-opacity="0" fill="#D8D8D8" fill-rule="nonzero" font-family="AvenirNext-DemiBold, Avenir Next" font-size="42" font-weight="500" line-spacing="17">
                <tspan x="45.0028651" y="158.601943">LABEL</tspan>
            </text>
            <text id="SOLUTIONS" font-family="AvenirNext-Regular, Avenir Next" font-size="17" font-weight="normal" letter-spacing="3.8" fill="#6D6D6D">
                <tspan x="52.0028651" y="150.601943">SOLUTIONS</tspan>
            </text>
        </g>
    </g>
</svg>