<?xml version="1.0" encoding="UTF-8"?>
<svg width="467px" height="84px" viewBox="0 0 467 84" version="1.1" xmlns="http://www.w3.org/2000/svg" xmlns:xlink="http://www.w3.org/1999/xlink">
    <title>yahoo-finance</title>
    <g id="Page-1" stroke="none" stroke-width="1" fill="none" fill-rule="evenodd">
        <g id="yahoo-finance" transform="translate(0.000000, -11.710751)">
            <g id="Group" transform="translate(193.400000, 19.158879) scale(-1, 1) rotate(-180.000000) translate(-193.400000, -19.158879) translate(106.900000, 0.000000)"></g>
            <g id="Group-98" transform="translate(148.950000, 53.360751) scale(1, -1) translate(-148.950000, -53.360751) translate(0.000000, 11.810751)" fill="#5F02D2" fill-rule="nonzero">
                <path d="M106.9,50 L106.9,17 L114.9,17 L122.9,17 L122.9,31 C122.9,43.7 123.1,45.2 124.9,47 C127.4,49.5 130.1,49.6 132.2,47.2 C133.6,45.7 133.9,43 133.9,31.2 L133.9,17 L141.9,17 L149.9,17 L149.9,34.5 C149.9,53.8 149.5,55.7 143.9,60.4 C139.8,63.8 131.1,64.1 126.4,61 L123.4,59 L122.9,70.8 L122.4,82.5 L114.7,82.8 L106.9,83.1 L106.9,50 Z" id="Path"></path>
                <path d="M278.2,81.3 C277.8,80.3 274,71 269.7,60.6 C265.4,50.3 261.9,41.6 261.9,41.4 C261.9,41.2 266.1,41 271.3,41 C277.9,41 280.8,41.4 281.2,42.3 C281.5,42.9 285.4,52.2 289.8,62.9 C294.3,73.5 297.9,82.4 297.9,82.6 C297.9,82.8 293.6,83 288.4,83 C280.2,83 278.7,82.7 278.2,81.3 Z" id="Path"></path>
                <path d="M63.6,60.9 C49,53.2 48.1,28.5 62.1,19.2 C65.7,16.9 67.3,16.5 73.5,16.5 C78.9,16.5 81.2,16.9 82.6,18.2 C85,20.4 85.9,20.5 85.9,18.5 C85.9,17.3 87.4,17 93.7,17 L101.4,17 L101.4,39.5 L101.4,62 L93.7,62 C87.5,62 85.9,61.7 85.9,60.5 C85.9,59.3 85.3,59.4 82.7,61 C78.2,63.7 68.8,63.7 63.6,60.9 Z M83,46.1 C89,40.1 85.3,30.5 77,30.5 C68.2,30.5 64.2,40.3 70.7,46.1 C75,50 79.1,49.9 83,46.1 Z" id="Shape"></path>
                <path d="M167.4,61.1 C152.7,54.4 149.3,34.6 160.9,23 C174.3,9.5 198,16.1 201.9,34.3 C204.2,45 199.3,55.8 189.9,60.5 C183.7,63.6 173.6,63.9 167.4,61.1 Z M184,46.1 C191,39.1 184.5,28 175.2,31.1 C169.9,32.8 167.5,38.9 170.3,43.9 C173.4,49.4 179.6,50.4 184,46.1 Z" id="Shape"></path>
                <path d="M217.9,60.6 C201.1,52.1 201.1,27 218,18.6 C227.9,13.7 239.4,15.4 246.9,23 C255.9,31.9 256.4,45.4 248,55.1 C243.2,60.8 238.1,63 229.4,62.9 C224.1,62.9 221.3,62.4 217.9,60.6 Z M233.8,47.6 C236.5,46.2 238.9,42.3 238.9,39.4 C238.9,36.2 235.8,32.1 232.6,31.1 C226.2,29 220.9,33.1 220.9,40.1 C220.9,43 221.6,44.4 224,46.4 C227.5,49.3 229.8,49.6 233.8,47.6 Z" id="Shape"></path>
                <path d="M4.1,52.3 C6.3,46.9 10.6,36.9 13.5,30.1 C16.5,23.2 18.9,17.1 18.9,16.4 C18.9,15.7 17.6,12.2 15.9,8.5 C14.3,4.8 12.9,1.4 12.9,0.9 C12.9,0.4 16.6,-3.55271368e-15 21.2,-3.55271368e-15 L29.5,-3.55271368e-15 L41.8,29.8 C48.6,46.1 54.4,60.1 54.6,60.8 C55,61.7 53,62 46.6,62 L38,62 L33.2,49.5 C30.6,42.6 28.1,37 27.8,37 C27.4,37 25,42.6 22.4,49.5 L17.6,62 L8.8,62 L2.0250468e-13,62 L4.1,52.3 Z" id="Path"></path>
                <path d="M259.3,33.6 C256.7,31 255.9,29.4 255.9,26.5 C255.9,21.5 261.2,16 265.9,16 C275.6,16 280.7,27.4 274,34.1 C269.7,38.4 263.9,38.2 259.3,33.6 Z" id="Path"></path>
            </g>
            <g id="Group-99" transform="translate(380.400000, 60.476636) scale(1, -1) translate(-380.400000, -60.476636) translate(293.900000, 41.317757)" fill="#000000" fill-rule="nonzero">
                <path d="M8.3,36.607006 C6.2,35.207006 4.7,33.307006 3.9,30.507006 C3.2,28.307006 2.1,26.507006 1.3,26.507006 C0.4,26.507006 0,25.207006 0,22.507006 C0,19.607006 0.4,18.507006 1.5,18.507006 C2.7,18.507006 3,16.807006 3,9.507006 L3,0.507006002 L8,0.507006002 L13,0.507006002 L13,9.507006 L13,18.507006 L16,18.507006 C18.8,18.507006 19,18.707006 19,22.507006 C19,26.307006 18.8,26.507006 15.9,26.507006 C13.5,26.507006 12.9,26.907006 13.2,28.307006 C13.4,29.307006 14.6,30.107006 16.3,30.307006 C18.9,30.607006 19.1,30.907006 18.8,34.307006 C18.5,37.707006 18.3,38.007006 15,38.307006 C12.9,38.407006 10.3,37.807006 8.3,36.607006 Z" id="Path"></path>
                <path d="M47.5,25.907006 C45.6,24.907006 44.4,24.807006 44.2,25.407006 C44,26.007006 41.8,26.507006 39.4,26.507006 L35,26.507006 L35,13.507006 L35,0.507006002 L39.5,0.507006002 L44,0.507006002 L44,7.807006 C44,15.807006 45.4,19.007006 48.6,18.307006 C50.3,18.007006 50.5,17.007006 50.8,9.207006 L51.1,0.407006002 L55.8,0.707006002 L60.5,1.007006 L60.8,8.707006 C61.2,19.607006 59.8,24.307006 55.5,26.107006 C51.3,27.807006 51.2,27.807006 47.5,25.907006 Z" id="Path"></path>
                <path d="M70.2,26.007006 C66.8,24.507006 63.1,18.207006 63,13.807006 C63,10.007006 66,3.707006 68.8,1.907006 C71.9,-0.0929939979 78.3,-0.292993998 80.6,1.607006 C82,2.707006 82.4,2.707006 82.7,1.807006 C83,1.007006 84.9,0.507006002 87.6,0.507006002 L92,0.507006002 L92,13.507006 L92,26.507006 L87.6,26.507006 C85.2,26.507006 83,26.007006 82.8,25.407006 C82.6,24.807006 81.4,24.907006 79.5,25.907006 C75.9,27.807006 74.4,27.807006 70.2,26.007006 Z M81.4,16.907006 C84.6,13.807006 82.2,8.507006 77.6,8.507006 C74.7,8.507006 73,10.307006 73,13.507006 C73,14.907006 73.5,16.607006 74.2,17.307006 C75.9,19.007006 79.6,18.807006 81.4,16.907006 Z" id="Shape"></path>
                <path d="M108.5,25.907006 C106.6,24.907006 105.4,24.807006 105.2,25.407006 C105,26.007006 102.8,26.507006 100.4,26.507006 L96,26.507006 L96,13.507006 L96,0.507006002 L100.5,0.507006002 L105,0.507006002 L105,7.807006 C105,15.807006 106.4,19.007006 109.6,18.307006 C111.3,18.007006 111.5,17.007006 111.8,9.207006 L112.1,0.407006002 L116.8,0.707006002 L121.5,1.007006 L121.8,8.707006 C122.2,19.007006 120.8,24.007006 117,26.007006 C113.4,27.907006 112.2,27.907006 108.5,25.907006 Z" id="Path"></path>
                <path d="M133.6,26.507006 C124.3,23.707006 121.2,10.307006 128.4,3.607006 C131.2,1.007006 137.1,-0.592993998 141.2,0.207006002 C143.7,0.707006002 144,1.107006 144,4.907006 C144,9.107006 144,9.107006 140.7,8.707006 C138.5,8.507006 136.8,8.907006 135.7,10.007006 C131.9,13.707006 135,18.907006 140.7,18.307006 C144,17.907006 144,17.907006 144,22.107006 C144,25.607006 143.6,26.407006 141.8,26.907006 C138.9,27.607006 137.2,27.507006 133.6,26.507006 Z" id="Path"></path>
                <path d="M155.3,26.407006 C148.8,24.507006 144.7,16.107006 146.9,9.207006 C149.2,2.307006 156.7,-1.392994 164.3,0.607006002 C167.9,1.607006 172,4.607006 172,6.307006 C172,7.907006 164.9,9.507006 163,8.307006 C160.8,6.907006 156,8.107006 156,10.007006 C156,11.207006 157.7,11.507006 164.5,11.507006 L173,11.507006 L173,14.807006 C173,18.407006 170,23.907006 167.3,25.307006 C164.3,26.907006 158.7,27.407006 155.3,26.407006 Z M163.8,17.807006 C164,16.907006 162.9,16.507006 160.1,16.507006 C156.2,16.507006 155.1,17.307006 156.7,18.907006 C157.8,20.007006 163.3,19.107006 163.8,17.807006 Z" id="Shape"></path>
                <polygon id="Path" points="22 13.507006 22 0.407006002 26.8 0.707006002 31.5 1.007006 31.5 13.507006 31.5 26.007006 26.8 26.307006 22 26.607006"></polygon>
            </g>
        </g>
    </g>
</svg>